<?xml version="1.0" standalone="no"?><!DOCTYPE svg PUBLIC "-//W3C//DTD SVG 1.1//EN" "http://www.w3.org/Graphics/SVG/1.1/DTD/svg11.dtd"><svg t="1647868953909" class="icon" viewBox="0 0 1024 1024" version="1.1" xmlns="http://www.w3.org/2000/svg" p-id="7171" xmlns:xlink="http://www.w3.org/1999/xlink" width="20" height="20"><defs><style type="text/css">@font-face { font-family: element-icons; src: url("chrome-extension://moombeodfomdpjnpocobemoiaemednkg/fonts/element-icons.woff") format("woff"), url("chrome-extension://moombeodfomdpjnpocobemoiaemednkg/fonts/element-icons.ttf ") format("truetype"); }
</style></defs><path d="M512 0a512 512 0 1 0 512 512A512 512 0 0 0 512 0z m0 853.333333a68.266667 68.266667 0 1 1 68.266667-68.266666 68.266667 68.266667 0 0 1-68.266667 68.266666z m68.266667-256a51.2 51.2 0 0 1-51.2 51.2h-34.133334a51.2 51.2 0 0 1-51.2-51.2v-375.466666A51.2 51.2 0 0 1 494.933333 170.666667h34.133334A51.2 51.2 0 0 1 580.266667 221.866667z" fill="#c00000" p-id="7172"></path></svg>