<?xml version="1.0" standalone="no"?><!DOCTYPE svg PUBLIC "-//W3C//DTD SVG 1.1//EN" "http://www.w3.org/Graphics/SVG/1.1/DTD/svg11.dtd"><svg t="1647867498403" class="icon" viewBox="0 0 1024 1024" version="1.1" xmlns="http://www.w3.org/2000/svg" p-id="14467" xmlns:xlink="http://www.w3.org/1999/xlink" width="20" height="20"><defs><style type="text/css">@font-face { font-family: element-icons; src: url("chrome-extension://moombeodfomdpjnpocobemoiaemednkg/fonts/element-icons.woff") format("woff"), url("chrome-extension://moombeodfomdpjnpocobemoiaemednkg/fonts/element-icons.ttf ") format("truetype"); }
</style></defs><path d="M866.571 42.028l-701.415 0c-32.277 0-58.375 26.166-58.375 58.375l0 818.298c0 32.277 26.166 58.375 58.375 58.375l701.415 0c32.277 0 58.375-26.166 58.375-58.375l0-818.298c0-32.277-26.166-58.375-58.375-58.375zM574.306 801.898l-350.771 0 0-58.375 350.771 0 0 58.375zM808.193 626.529l-584.49 0 0-58.375 584.49 0 0 58.375zM808.193 451.196l-584.49 0 0-58.375 584.49 0 0 58.375zM808.193 275.854l-584.49 0 0-58.375 584.49 0 0 58.375z" p-id="14468" fill="#428bca"></path></svg>