<?xml version="1.0" standalone="no"?><!DOCTYPE svg PUBLIC "-//W3C//DTD SVG 1.1//EN" "http://www.w3.org/Graphics/SVG/1.1/DTD/svg11.dtd"><svg t="1647868088792" class="icon" viewBox="0 0 1024 1024" version="1.1" xmlns="http://www.w3.org/2000/svg" p-id="19614" data-spm-anchor-id="a313x.7781069.0.i51" width="22" height="22" xmlns:xlink="http://www.w3.org/1999/xlink"><defs><style type="text/css">@font-face { font-family: element-icons; src: url("chrome-extension://moombeodfomdpjnpocobemoiaemednkg/fonts/element-icons.woff") format("woff"), url("chrome-extension://moombeodfomdpjnpocobemoiaemednkg/fonts/element-icons.ttf ") format("truetype"); }
</style></defs><path d="M298.666667 703.317333a384 384 0 1 1 426.666666 0V768a85.333333 85.333333 0 0 1-85.333333 85.333333H384a85.333333 85.333333 0 0 1-85.333333-85.333333v-64.682667zM512 128a256 256 0 0 0-256 256 42.666667 42.666667 0 1 0 85.333333 0 170.666667 170.666667 0 0 1 170.666667-170.666667 42.666667 42.666667 0 1 0 0-85.333333z" fill="#ffae00" p-id="19615"></path><path d="M341.333333 938.666667l341.333334 0 0 85.333333-341.333334 0 0-85.333333Z" fill="#ffae00" p-id="19616"></path></svg>