<?xml version="1.0" encoding="utf-8"?>
<!-- Generator: Adobe Illustrator 25.3.1, SVG Export Plug-In . SVG Version: 6.00 Build 0)  -->
<svg version="1.1" id="图层_1" xmlns="http://www.w3.org/2000/svg" xmlns:xlink="http://www.w3.org/1999/xlink" x="0px" y="0px"
	 viewBox="0 0 40 40" style="enable-background:new 0 0 40 40;" xml:space="preserve">
<style type="text/css">
	.st0{fill-rule:evenodd;clip-rule:evenodd;fill:#FFFFFF;}
	.st1{fill-rule:evenodd;clip-rule:evenodd;fill:url(#a_2_);}
	.st2{fill-rule:evenodd;clip-rule:evenodd;fill:url(#i_2_);}
	.st3{fill:url(#SVGID_1_);}
</style>
<circle class="st0" cx="20" cy="20" r="19"/>
<g>
	
		<linearGradient id="a_2_" gradientUnits="userSpaceOnUse" x1="1.872" y1="40.0413" x2="1.872" y2="41" gradientTransform="matrix(-28.1535 -28.1535 -28.1535 28.1535 1212.8528 -1067.4473)">
		<stop  offset="0" style="stop-color:#3943E1"/>
		<stop  offset="0.1572" style="stop-color:#3D41FF"/>
		<stop  offset="1" style="stop-color:#B500FE"/>
	</linearGradient>
	<path id="a_1_" class="st1" d="M5.9,34.1C-2,26.3-2,13.7,5.9,5.9C13.7-2,26.3-2,34.1,5.9c7.8,7.8,7.8,20.5,0,28.3
		C26.3,42,13.7,42,5.9,34.1z M10.9,29.1c5,5,13.1,5,18.2,0s5-13.1,0-18.2s-13.1-5-18.2,0S5.9,24.1,10.9,29.1z"/>
</g>
<g>
	
		<linearGradient id="i_2_" gradientUnits="userSpaceOnUse" x1="3.9921" y1="40.9386" x2="3.2563" y2="40.0859" gradientTransform="matrix(-4.9766 -4.9766 -4.9766 4.9766 236.8064 -161.0622)">
		<stop  offset="0" style="stop-color:#FF4695"/>
		<stop  offset="1" style="stop-color:#CC34E7"/>
	</linearGradient>
	<circle id="i_1_" class="st2" cx="17.4" cy="22.5" r="3.5"/>
</g>
<linearGradient id="SVGID_1_" gradientUnits="userSpaceOnUse" x1="21.2945" y1="18.0391" x2="29.9948" y2="9.6692">
	<stop  offset="0.2152" style="stop-color:#3967FF"/>
	<stop  offset="1" style="stop-color:#3935DE"/>
</linearGradient>
<path class="st3" d="M39.7,16.5c-0.7-3.9-2.5-7.7-5.5-10.7C31,2.7,27.1,0.9,23,0.2l-5.5,16.1c3.4,0.4,5.9,3.2,5.8,6L39.7,16.5z"/>
</svg>
