<svg width="60" height="60" viewBox="0 0 60 60" fill="none" xmlns="http://www.w3.org/2000/svg">
<path fill-rule="evenodd" clip-rule="evenodd" d="M27.6984 27.71C22.7255 29.1545 19.6821 42.8699 28.4919 46.6287L48.1277 46.6802C51.1168 46.2412 50.962 40.4878 48.1495 40.6938H36.3016C31.9538 40.5664 31.8179 33.3523 36.2391 33.019H47.087L48.7174 33.0488C59.1386 33.393 58.8071 53.5854 49.7065 54.5501H47.894L27.6169 54.5664C26.663 54.5041 24.6875 53.7073 23.5652 52.8401C11.8804 43.8157 15.0272 27.5149 23.4565 21.7317C24.3016 21.1518 25.6304 19.9241 27.8995 19.8347H60V10.6748C59.9957 7.85014 58.8707 5.14195 56.8708 3.14182C54.8708 1.14169 52.1584 0.012169 49.3261 0H10.6739C7.84138 0.0114577 5.12857 1.14075 3.12845 3.14104C1.12833 5.14132 0.00356767 7.84992 0 10.6748V49.3252C0.00428146 52.1499 1.12928 54.8581 3.12924 56.8582C5.12921 58.8583 7.8416 59.9878 10.6739 60H49.3261C52.1582 59.9871 54.8702 58.8574 56.87 56.8574C58.8698 54.8574 59.995 52.1497 60 49.3252V27.71H27.6984ZM17.3451 7.63144C17.3451 6.78862 17.9511 6.10027 18.7038 6.10027H54.8506C55.5897 6.10027 56.2092 6.78862 56.2092 7.63144V12.6748C56.2092 13.5176 55.6006 14.206 54.8506 14.206H18.6875C17.9457 14.206 17.3288 13.5176 17.3288 12.6748L17.3451 7.63144ZM5.58696 27.6504C1.55706 27.0217 1.91304 20.271 5.58696 19.8211H20.4701C17.8451 21.4634 15.8288 23.9892 14.6223 27.6802L5.58696 27.6504Z" fill="#0D48CE"/>
</svg>
