<?xml version="1.0" standalone="no"?><!DOCTYPE svg PUBLIC "-//W3C//DTD SVG 1.1//EN" "http://www.w3.org/Graphics/SVG/1.1/DTD/svg11.dtd"><svg t="1651036933380" class="icon" viewBox="0 0 1024 1024" version="1.1" xmlns="http://www.w3.org/2000/svg" p-id="11261" width="27" height="27" xmlns:xlink="http://www.w3.org/1999/xlink"><defs><style type="text/css">@font-face { font-family: element-icons; src: url("chrome-extension://moombeodfomdpjnpocobemoiaemednkg/fonts/element-icons.woff") format("woff"), url("chrome-extension://moombeodfomdpjnpocobemoiaemednkg/fonts/element-icons.ttf ") format("truetype"); }
</style></defs><path d="M512 128L158.75 256.64l49.92 470.4L512 896z" fill="#E64E3D" p-id="11262"></path><path d="M512 128l353.25 128.64-49.92 470.4L512 896z" fill="#BD483B" p-id="11263"></path><path d="M516.85 275.9c29.38 0.09 58.42 6.32 85.31 18.3a400.134 400.134 0 0 0-82.88 62.4c-1.44-0.64-2.94-0.99-4.42-1.44a37.815 37.815 0 0 0-11.07-1.79c-2.27 0-4.51 0.32-6.72 0.67a285.402 285.402 0 0 1-19.68-74.18 210.51 210.51 0 0 1 37.47-3.9l1.99-0.06zM453.17 285.89a312.401 312.401 0 0 0 22.08 80.13 38.836 38.836 0 0 0-10.5 26.4c0.02 7.12 2.01 14.1 5.76 20.16-29.98 41.41-52.99 89.7-60.96 137.92-0.32 1.79-0.42 3.52-0.64 5.31a36.677 36.677 0 0 0-20.99 17.28c-31.58-10.66-60.32-30.98-83.68-64.7-0.48-5.48-0.76-10.98-0.83-16.48 0.07-94.43 60.72-177.87 149.76-206.02zM629.39 308.58c35.35 22.27 63.5 54.53 80.96 92.8-12.06 30.5-33.57 60.54-60.58 87.26a39.789 39.789 0 0 0-20.61-5.89 39.77 39.77 0 0 0-24.58 8.64 354.718 354.718 0 0 1-42.18-37.38c-10.66-11.2-20.38-23.36-29.47-35.94 6.08-6.88 9.92-15.81 9.92-25.66a38.348 38.348 0 0 0-5.09-18.75c33.87-32.25 67.6-53.44 91.63-65.08zM503.79 372c3.97 0.09 7.83 1.36 11.07 3.65 5.77 3.63 9.3 9.95 9.34 16.77a19.981 19.981 0 0 1-9.34 16.77c-3.25 2.28-7.1 3.53-11.07 3.62-11.2 0.07-20.35-8.95-20.42-20.16v-0.22c0.01-11.37 9.06-20.43 20.42-20.43zM489.68 428.67a38.59 38.59 0 0 0 21.6 1.98c1.15 1.6 2.4 3.1 3.58 4.74a366.11 366.11 0 0 0 29.47 35.81 386.937 386.937 0 0 0 46.27 40.86c-1.02 3.52-1.73 7.17-1.73 10.94 0.06 4.14 0.78 8.24 2.11 12.16a316.61 316.61 0 0 1-67.78 33.34c-2.78 0.93-5.54 1.66-8.35 2.5a247.273 247.273 0 0 1-59.84 10.62 36.814 36.814 0 0 0-21.12-24.74c0.13-0.77 0.16-1.57 0.32-2.34 7.02-42.64 27.95-87.34 55.47-125.87zM722.38 434.75c5.13 18.61 7.76 37.83 7.84 57.15-0.02 20.09-2.81 40.08-8.29 59.39a319.756 319.756 0 0 1-53.31-20.16c1.56-7.64 0.84-15.58-2.08-22.82a301.943 301.943 0 0 0 55.84-73.6v0.04zM629.17 501.98c11.74 0 21.02 9.31 21.02 21.06s-9.31 21.02-21.02 21.02c-11.74 0-21.06-9.28-21.06-21.02s9.28-21.06 21.06-21.06zM655.95 552.86a345.666 345.666 0 0 0 57.66 22.02c-33.07 80.47-110.67 132.93-196.77 133.02-0.66-0.04-1.32-0.08-1.98-0.13h-1.34c-2.78-1.34-5.38-2.56-8.51-4.13-9.98-4.93-21.34-11.26-27.07-16a121.47 121.47 0 0 1-41.41-64.96 36.66 36.66 0 0 0 15.58-15.84 269.6 269.6 0 0 0 62.72-9.79c5.52-1.48 10.99-3.12 16.42-4.93 26.3-9.07 51.45-21.21 74.91-36.16 6.56 4.58 14.46 7.36 23.01 7.36 9.92-0.05 19.47-3.79 26.78-10.5v0.04zM313.33 556.58a184.328 184.328 0 0 0 70.78 41.54 36.675 36.675 0 0 0 27.42 27.84 147.21 147.21 0 0 0 39.68 71.1c-65.72-21.47-117.11-73.82-137.92-140.48h0.04zM419.79 571.42c10.59 0 19.04 8.42 19.04 19.07 0 10.66-8.45 19.04-19.04 19.04-10.43 0.11-18.97-8.26-19.07-18.69v-0.35c-0.09-10.44 8.31-18.98 18.75-19.07h0.32z" fill="#FEC82F" p-id="11264"></path></svg>