<?xml version="1.0" standalone="no"?><!DOCTYPE svg PUBLIC "-//W3C//DTD SVG 1.1//EN" "http://www.w3.org/Graphics/SVG/1.1/DTD/svg11.dtd"><svg t="1671710533018" class="icon" viewBox="0 0 1024 1024" version="1.1" xmlns="http://www.w3.org/2000/svg" p-id="7157" xmlns:xlink="http://www.w3.org/1999/xlink" width="20" height="20"><path d="M529.2 444.9c129.7-67.1 199.9-217.6 160.6-364.5l-102.3 27.4c30.3 113-36.8 229.2-149.8 259.5-113 30.3-229.2-36.8-259.5-149.8L75.8 245c39.4 146.9 175.4 242 321.3 235.3C225 560 129.9 754.1 180.7 943.5l127.9-34.3c-37.9-141.3 46-286.5 187.3-324.4 141.3-37.9 286.5 46 324.4 187.3l127.9-34.3c-50.7-189.3-230.1-309.9-419-292.9z" fill="#ffffff" p-id="7158"></path><path d="M434.2 354.6c70.6-18.9 112.6-91.6 93.6-162.2-6.3-23.4-18.8-43.3-34.9-59.2-32.4-32.1-80.1-47.1-127.3-34.4-47.2 12.7-81.1 49.5-93 93.5-5.9 21.8-6.9 45.3-0.6 68.7 18.9 70.6 91.6 112.5 162.2 93.6z" fill="#ffffff" p-id="7159"></path></svg>