<?xml version="1.0" standalone="no"?><!DOCTYPE svg PUBLIC "-//W3C//DTD SVG 1.1//EN" "http://www.w3.org/Graphics/SVG/1.1/DTD/svg11.dtd"><svg t="1671709613839" class="icon" viewBox="0 0 1024 1024" version="1.1" xmlns="http://www.w3.org/2000/svg" p-id="4805" xmlns:xlink="http://www.w3.org/1999/xlink" width="20" height="20"><path d="M1023.979 862.827A161.152 161.152 0 0 1 862.805 1024H161.173A161.152 161.152 0 0 1 0 862.827V161.195A161.195 161.195 0 0 1 161.173 0.02h701.632a161.195 161.195 0 0 1 161.174 161.174v701.632z" fill="#05B711" p-id="4806"></path><path d="M218.56 208.064h586.816v66.09H218.56z m535.83 393.493v-258.41h-484.8v258.41h484.8zM339.882 409.173H684.8v126.358H339.883V409.173z m309.61 341.334c21.099-32.299 41.003-69.739 59.435-112.256l-70.507-25.707c-18.346 50.368-39.701 96.427-64 137.941H451.712c-20.373-53.802-43.328-99.818-69.077-137.941l-64.854 25.707c26.752 40.128 48.32 77.482 64.854 112.256H201.94v65.386h620.054v-65.386H649.493z" fill="#FFFFFF" p-id="4807"></path></svg>