<svg xmlns="http://www.w3.org/2000/svg" xmlns:xlink="http://www.w3.org/1999/xlink" width="32" height="32" viewBox="0 0 32 32" fill="none"><g opacity="1" transform="translate(0 0)  rotate(0 16 15.999999999999998)"><path id="矩形 1" fill-rule="evenodd"   transform="translate(0 0)  rotate(0 16 15.999999999999998)" opacity="1" d="M0,32L32,32L32,0L0,0L0,32Z " /><path id="路径 2" fill-rule="evenodd" style="fill:#FFFFFF" transform="translate(9.875085649622179 6)  rotate(0 6.124914350377853 10)" opacity="1" d="M0.05,13.64C0.17,15.07 1.05,16.19 2.42,16.6C2.87,16.74 3.35,16.84 3.81,16.85C5.4,16.89 6.98,16.86 8.57,16.9C9.03,16.91 9.52,16.99 9.96,17.15C10.67,17.41 11.18,17.93 11.41,18.67C11.53,19.09 11.45,19.18 11.02,19.18C9.61,19.18 8.21,19.16 6.8,19.18C5.91,19.2 5.19,18.9 4.56,18.26C4.39,18.09 4.07,18.01 3.81,17.97C3.54,17.92 3.47,18.09 3.62,18.32C4.26,19.31 5.15,19.94 6.34,19.97C8.01,20.02 9.68,19.99 11.35,19.98C11.87,19.98 12.22,19.64 12.25,19.11C12.26,18.9 12.24,18.69 12.19,18.48C11.96,17.64 11.43,17.04 10.7,16.59C9.96,16.15 9.16,16.07 8.32,16.06C6.74,16.06 5.15,16.08 3.57,16.02C1.98,15.97 1.05,15.06 0.86,13.49C0.83,13.28 0.81,13.06 0.81,12.85C0.81,8.99 0.81,5.13 0.81,1.27C0.81,0.8 0.86,0.74 1.33,0.84C1.98,0.97 2.43,1.37 2.75,1.94C3.05,2.49 3.12,3.09 3.12,3.7C3.12,7.01 3.11,10.33 3.12,13.64C3.12,13.88 3.16,14.15 3.28,14.36C3.36,14.51 3.6,14.58 3.77,14.69C3.82,14.53 3.92,14.37 3.92,14.22C3.93,10.69 3.93,7.16 3.93,3.63C3.93,2.89 3.82,2.16 3.43,1.5C2.91,0.63 2.19,0.07 1.14,0C0.34,-0.04 0,0.29 0,1.09C0,3.07 0,5.05 0,7.03C0,8.77 0,10.51 0,12.25C0,12.71 0.02,13.18 0.05,13.64Z " /></g></svg>