<svg width="128" height="128" viewBox="0 0 128 128" fill="none" xmlns="http://www.w3.org/2000/svg">

<path d="M85 62.5V59V58H88.5L92.5 53.5L92 59.5L88.5 64L85 62.5Z" fill="white"/>
<path d="M78 57V53.5L90 44.5L83.5 57H78Z" fill="white"/>
<path d="M76 51H70.5V46.5L82 37L76 51Z" fill="white"/>
<path d="M67 45.5L62 47L61.5 40.5L73 30.5L67 45.5Z" fill="white"/>
<path d="M56 42H50L47.5 37L52 34L54.5 33.5C56.3333 31.8333 57.5 30.5 59 29C58.5 29.5057 56.5 34 56 42Z" fill="white"/>
<path d="M47.5 59V71L43 74L36.5 71L33.5 60.5L36 52.5L48 46C50 47 55.7 49.6 62.5 52C69.3 54.4 79 65.3333 83 70.5L83.5 74.5L80 78C78 78.5 78 78.5 75 79C66 68.5 58.5 60.5 54 58C50.4 56 48.1667 57.8333 47.5 59Z" fill="white"/>
<path d="M59.5 78.5L55 80.5L54 88.5L57.5 97.5L64 100.5L69.5 97.5L71 92.5L69 83.5L59.5 78.5Z" fill="white"/>
</svg>
