<?xml version="1.0" standalone="no"?><!DOCTYPE svg PUBLIC "-//W3C//DTD SVG 1.1//EN" "http://www.w3.org/Graphics/SVG/1.1/DTD/svg11.dtd"><svg t="1671712409640" class="icon" viewBox="0 0 1024 1024" version="1.1" xmlns="http://www.w3.org/2000/svg" p-id="11819" xmlns:xlink="http://www.w3.org/1999/xlink" width="20" height="20"><path d="M955.728 428.224c8.385-8.785 3.76-23.536-8.073-25.753l-276.832-51.854c-4.838-0.906-9.02-3.987-11.38-8.383L525.873 93.229c-2.798-5.23-8.342-7.85-13.875-7.896-5.532 0.045-11.075 2.667-13.873 7.896L364.558 342.234c-2.36 4.396-6.543 7.477-11.381 8.383L76.345 402.471c-11.833 2.217-16.458 16.968-8.073 25.753L269.64 639.086c3.564 3.733 5.205 8.952 4.433 14.1l-46.015 282.032c-1.819 12.126 10.394 21.407 21.298 16.182L505 827.827a16.098 16.098 0 0 1 7-1.58 16.1 16.1 0 0 1 7.003 1.58L774.644 951.4c10.904 5.225 23.117-4.056 21.298-16.182l-46.88-287.298 206.666-219.696z" fill="#ffcf00" p-id="11820" data-spm-anchor-id="a313x.7781069.0.i13" class=""></path><path d="M559.42 493.63c-4.517-3.772-110.987-40.332-273.968-16-3.16 0.47-5.913-0.394-8.04-1.992-0.717 4 3.587 7.152 8.988 7.527 115.064 8.021 179.42 54.987 199.492 71.501 40.78-28.923 71.882-50.606 73.063-51.527 3.668-2.856 3.695-6.811 0.465-9.51m135.65-29.972c-41.744 35.168-160.159 116.897-201.52 148.468-4.864 3.711-3.177 9.424 2.098 11.43 17.045 6.488 36.23 11.95 56.421 16.445l159.784-152.228c12.544-13.184 5.238-29.152-10.422-32.661-1.025 3.011-3.259 5.933-6.36 8.546M817.187 640l-0.101 0.045c-70.456 29.709-241.54 79.623-451.762 72.33-25.386-0.88-50.63-3.715-64.786-6.325-2.067-0.38-3.878-1.012-5.476-1.846-10.567 12.224 2.073 21.462 47.148 30.58 131.886 26.676 286.047 38.934 415.304 30.665l-8.884-54.324c43.727-31.431 64.996-58.546 67.524-62.57 2.899-4.616 1.033-8.555 1.033-8.555" fill="#F1A308" p-id="11821"></path><path d="M818.863 646.995c-53.31 5.137-215.894 3.686-311.826-33.167-5.107-1.962-6.834-7.566-2.129-11.194 40.025-30.84 154.62-110.68 195.014-145.035 7.872-6.696 9.95-15.437 0.375-22.542-18.36-13.623-83.168-36.203-158.198-36.816-107.373-0.88-212.858 29.498-259.133 54.09-10.983 5.837-4.392 21.221 6.83 19.495 164.223-25.24 271.495 12.756 276.045 16.67 3.255 2.798 3.074 6.906-0.5 9.715-3.036 2.389-199.263 143.36-258.23 193.11-9.286 7.834-6.845 24.246 8.35 27.018 14.152 2.582 39.406 5.412 64.784 6.284 210.173 7.214 381.314-42.24 451.755-71.63 0 0-2.148-7.057-13.137-5.998" fill="#FFFFFF" p-id="11822"></path></svg>