<?xml version="1.0" standalone="no"?><!DOCTYPE svg PUBLIC "-//W3C//DTD SVG 1.1//EN" "http://www.w3.org/Graphics/SVG/1.1/DTD/svg11.dtd"><svg t="1671709909238" class="icon" viewBox="0 0 1024 1024" version="1.1" xmlns="http://www.w3.org/2000/svg" p-id="6094" xmlns:xlink="http://www.w3.org/1999/xlink" width="20" height="20"><path d="M1024 862.827A161.152 161.152 0 0 1 862.827 1024H161.195A161.152 161.152 0 0 1 0.02 862.827V161.195A161.195 161.195 0 0 1 161.195 0.02h701.632A161.195 161.195 0 0 1 1024 161.195v701.632z" fill="#306FB6" p-id="6095"></path><path d="M828.843 250.261H655.38V213.74a17.067 17.067 0 0 0-17.066-17.067h-41.942a17.045 17.045 0 0 0-17.045 17.067v263.296h-24.896a17.067 17.067 0 0 0-17.045 17.066V810.22a17.067 17.067 0 0 0 17.045 17.088h257.365a17.067 17.067 0 0 0 17.067-17.088v-58.987h-0.256V553.088h0.256v-58.987a17.067 17.067 0 0 0-17.067-17.066H655.381v-150.72h173.462a17.067 17.067 0 0 0 17.066-17.067v-41.941a17.067 17.067 0 0 0-17.066-17.046zM735.467 553.11c9.429 0 17.045 7.638 17.045 17.067v164.01a17.067 17.067 0 0 1-17.045 17.067H630.485a17.045 17.045 0 0 1-17.045-17.066V570.176a17.067 17.067 0 0 1 17.045-17.067h104.982zM197.909 657.408h41.942a17.088 17.088 0 0 0 17.088-17.088V281.579h174.528V640.32a17.067 17.067 0 0 0 17.045 17.088h41.941a17.088 17.088 0 0 0 17.088-17.088V222.57c0-9.407-7.658-17.066-17.088-17.066H197.931a17.067 17.067 0 0 0-17.046 17.067V640.32a17.024 17.024 0 0 0 17.024 17.088z" fill="#FFFFFF" p-id="6096"></path><path d="M492.97 739.2v-0.17a110.656 110.656 0 0 1-110.655-110.657h-0.107V332.331a17.067 17.067 0 0 0-17.067-17.046H323.2a17.045 17.045 0 0 0-17.045 17.046v296.042h-0.363A110.677 110.677 0 0 1 195.115 739.03v0.171a17.045 17.045 0 0 0-17.046 17.067v42.112a17.067 17.067 0 0 0 17.046 17.066 186.603 186.603 0 0 0 148.928-74.176 186.624 186.624 0 0 0 148.928 74.176 17.045 17.045 0 0 0 17.045-17.066v-42.112a17.024 17.024 0 0 0-17.045-17.067zM865.45 873.685c17.665-3.797 15.254-24.896 14.742-29.504-0.875-7.125-9.237-19.541-20.587-18.581-14.293 1.28-16.362 21.93-16.362 21.93-1.963 9.558 4.608 29.953 22.208 26.155z m18.753 36.694c-0.534 1.493-1.664 5.29-0.683 8.597 1.963 7.403 8.405 7.744 8.405 7.744h9.259v-22.613h-9.899a10.837 10.837 0 0 0-7.082 6.272z m14.037-72.086c9.75 0 17.621-11.221 17.621-25.109 0-13.867-7.872-25.088-17.621-25.088-9.728 0-17.643 11.221-17.643 25.088 0 13.888 7.894 25.11 17.643 25.11z m41.984 1.664c13.035 1.707 21.419-12.202 23.083-22.762 1.706-10.539-6.699-22.763-15.936-24.854-9.259-2.112-20.779 12.672-21.846 22.358-1.258 11.797 1.686 23.573 14.699 25.258z m31.936 61.974s-20.16-15.595-31.936-32.448c-15.957-24.875-38.635-14.763-46.208-2.112-7.552 12.65-19.328 20.629-20.992 22.741-1.685 2.09-24.363 14.336-19.328 36.672s22.72 21.91 22.72 21.91 13.013 1.28 28.139-2.113c15.104-3.349 28.117 0.832 28.117 0.832s35.307 11.819 44.97-10.944c9.622-22.72-5.482-34.538-5.482-34.538z m-60.395 33.877h-22.954c-9.92-1.984-13.867-8.747-14.358-9.899-0.49-1.173-3.306-6.613-1.813-15.85 4.288-13.867 16.49-14.848 16.49-14.848h12.225v-15.04l10.41 0.149v55.488z m42.752-0.17h-26.41c-10.24-2.625-10.71-9.92-10.71-9.92v-29.206l10.71-0.17v26.26c0.64 2.795 4.117 3.307 4.117 3.307h10.88v-29.397h11.413v39.125z m37.376-77.995c0-5.035-4.181-20.224-19.733-20.224s-17.643 14.336-17.643 24.469c0 9.685 0.811 23.19 20.16 22.741 19.328-0.426 17.216-21.909 17.216-26.986z" fill="#FFFFFF" p-id="6097"></path></svg>