<svg xmlns="http://www.w3.org/2000/svg" viewBox="0 0 190 190" width="190" height="190" preserveAspectRatio="xMidYMid meet" style="width: 100%; height: 100%; transform: translate3d(0px, 0px, 0px);"><defs><clipPath id="__lottie_element_31"><rect width="190" height="190" x="0" y="0"></rect></clipPath><mask id="__lottie_element_38" mask-type="alpha"><g transform="matrix(2,0,0,2,95.19999694824219,95)" opacity="1" style="display: block;"><g opacity="1" transform="matrix(1,0,0,1,-0.5,-12.5)"><path fill="rgb(255,255,255)" fill-opacity="1" d=" M35,-26 C35,-26 35,26 35,26 C35,26 -35,26 -35,26 C-35,26 -35,-26 -35,-26 C-35,-26 35,-26 35,-26z"></path></g></g></mask><mask id="__lottie_element_41" mask-type="alpha"><g transform="matrix(2,0,0,2,95.19999694824219,95)" opacity="1" style="display: block;"><g opacity="1" transform="matrix(1,0,0,1,-0.5,-12.5)"><path fill="rgb(255,255,255)" fill-opacity="1" d=" M35,-26 C35,-26 35,26 35,26 C35,26 -35,26 -35,26 C-35,26 -35,-26 -35,-26 C-35,-26 35,-26 35,-26z"></path></g></g></mask></defs><g clip-path="url(#__lottie_element_31)"><g transform="matrix(1,0,0,1,95,95)" opacity="1" style="display: block;"><g opacity="1" transform="matrix(1,0,0,1,0,0)"><path fill="rgb(255,255,255)" fill-opacity="1" d=" M0,-75 C41.39250183105469,-75 75,-41.39250183105469 75,0 C75,41.39250183105469 41.39250183105469,75 0,75 C-41.39250183105469,75 -75,41.39250183105469 -75,0 C-75,-41.39250183105469 -41.39250183105469,-75 0,-75z"></path></g></g><g mask="url(#__lottie_element_38)" style="display: block;"><g transform="matrix(2,0,0,2,94.5,95)" opacity="1"><g opacity="1" transform="matrix(1,0,0,1,0,0)"><path fill="rgb(255,53,93)" fill-opacity="1" d=" M0,-31 C17.10890007019043,-31 31,-17.10890007019043 31,0 C31,17.10890007019043 17.10890007019043,31 0,31 C-17.10890007019043,31 -31,17.10890007019043 -31,0 C-31,-17.10890007019043 -17.10890007019043,-31 0,-31z"></path></g></g></g><g style="display: block;" mask="url(#__lottie_element_41)"><g transform="matrix(2,0,0,2,95.5,94.97200012207031)" opacity="1"><g opacity="1" transform="matrix(1,0,0,1,0,0)"><path stroke-linecap="round" stroke-linejoin="miter" fill-opacity="0" stroke-miterlimit="4" stroke="rgb(255,255,255)" stroke-opacity="1" stroke-width="5" d=" M-9,-6.313000202178955 C-9,-6.313000202178955 -1.25,1.812999963760376 -1.25,1.812999963760376 C-1.25,1.812999963760376 22.5939998626709,-20.395999908447266 22.5939998626709,-20.395999908447266"></path></g></g></g><g transform="matrix(2,0,0,2,-140,94.97099304199219)" opacity="1" style="display: block;"><g opacity="1" transform="matrix(1,0,0,1,0,7)"><path stroke-linecap="round" stroke-linejoin="miter" fill-opacity="0" stroke-miterlimit="4" stroke="rgb(193,193,193)" stroke-opacity="1" stroke-width="3" d=" M105.875,19 C105.875,19 128.625,19 128.625,19"></path></g><g opacity="1" transform="matrix(1,0,0,1,0,0)"><path stroke-linecap="round" stroke-linejoin="miter" fill-opacity="0" stroke-miterlimit="4" stroke="rgb(193,193,193)" stroke-opacity="1" stroke-width="3" d=" M96.5,19 C96.5,19 138,19 138,19"></path></g></g></g></svg>