<svg xmlns="http://www.w3.org/2000/svg" viewBox="0 0 14.29 14.29"><g fill="#725794" transform="matrix(.02569 0 0 .02569 -.25 -.08)"><circle cx="74.91" cy="180.35" r="55"/><circle cx="137.6" cy="317.44" r="42.5"/><circle cx="189.82" cy="434.27" r="31"/></g><g fill="#dd6418" transform="matrix(.02569 0 0 .02569 -.25 -.08)"><circle cx="515.92" cy="412.86" r="26"/><circle cx="499.71" cy="484.31" r="21"/></g><path fill="#dd6418" d="M12.24 3.93c-.15.05-.64-.02-.64-.02.14.09.23.33.22.5-.48-.06-.67-.22-1.11-.45 0 0 .3.36.6.57.54.41 1.03.9 1.33 1.37.15.23.19.26.2.16a3.3 3.3 0 00-.52-1.87c-.06-.09-.07-.19-.08-.26z"/><path d="M.68.2C.53.2.45.33.56.43 5.51 2.78 4.78 5 5.42 7.55c.17.69 1.32 6.06 7.37 6.58.23.02.3-.25.06-.31-4.94-1.32-6.13-9.95-2.68-10.27.48-.04.63.16 1 .28.36.12.93.16 1.1.13.32-.6-.25-1.28-.73-1.78.52-.34 2.2-.71 2.4-.8.13-.05.07-.25-.04-.27-.77.05-2.6.2-3.43.52-1.45-.88-3.34-.2-4.3 1.3C5.19 1.5 3.81 1.08.67.2zM8.8 1.54c.74 0 .72.31-.24.64a3.76 3.76 0 00-2.38 2.2c-.11-.17.43-2.56 2.62-2.84z"/></svg>