<svg width="128" height="128" viewBox="0 0 128 128" fill="none" xmlns="http://www.w3.org/2000/svg">
 
<path fill-rule="evenodd" clip-rule="evenodd" d="M64 110C89.4051 110 110 89.4051 110 64C110 38.5949 89.4051 18 64 18C38.5949 18 18 38.5949 18 64C18 89.4051 38.5949 110 64 110ZM64 115C92.1665 115 115 92.1665 115 64C115 35.8335 92.1665 13 64 13C35.8335 13 13 35.8335 13 64C13 92.1665 35.8335 115 64 115Z" fill="white"/>
<path d="M58 38.5H45L41 88.5H54.5L58 38.5Z" fill="white"/>
<path d="M74.5 39H92.5L69.5077 61.5325C68.3784 62.6392 68.3019 64.4324 69.3329 65.6313L89 88.5H72.5L56.7399 69.0747C53.487 65.0654 53.8211 59.2389 57.5109 55.6277L74.5 39Z" fill="white"/>
 
</svg>
