<svg width="128" height="128" viewBox="0 0 128 128" fill="none" xmlns="http://www.w3.org/2000/svg">

<path d="M26.2411 63.9925C26.3578 43.6326 43.7776 26.8118 64.0723 26.8118C84.0681 26.8118 101.889 43.4516 101.889 63.7104V86.7569C101.889 88.966 103.701 90.8138 105.868 90.3851C113.54 88.8674 117.445 82.8806 117.445 75.7265C117.445 67.7792 113.109 63.4125 107.105 61.4422C105.405 39.1615 86.7884 21.6118 64.0723 21.6118C41.3725 21.6118 22.7658 39.1364 21.0435 61.3944C14.9623 63.3197 10.5547 67.7856 10.5547 75.7265C10.5547 82.9283 14.3775 88.9072 22.5134 90.3643C24.7053 90.7568 26.5214 88.8853 26.4963 86.6587L26.2411 63.9925Z" fill="white"/>
<path fill-rule="evenodd" clip-rule="evenodd" d="M64.1742 106.772C83.8298 106.772 99.7638 90.8384 99.7638 71.1828C99.7638 51.5272 83.8298 35.5931 64.1742 35.5931C44.5186 35.5931 28.5846 51.5272 28.5846 71.1828C28.5846 90.8384 44.5186 106.772 64.1742 106.772ZM41.66 68.3374L38.5 64.7974H35.14V79.3774H38.5V68.6374L41.62 71.3974L44.78 68.6174V79.3774H47.76V64.8174H44.78L41.66 68.3374ZM50.0024 64.8974V74.6574C49.8424 77.4174 51.8224 79.3774 54.7224 79.3774H57.3824C59.8224 79.3774 61.9224 78.0974 61.9224 75.0574V64.8974H58.7024V74.3574C58.7024 75.2374 58.2624 76.2374 56.9224 76.2374H54.9224C53.5624 76.2374 53.2424 75.1974 53.2424 74.4774V64.8974H50.0024ZM69.1849 79.3774C67.4049 79.3774 65.3449 78.8174 63.8049 77.8574V74.6374C65.2449 75.5774 66.9849 76.3774 69.0649 76.3774C70.5049 76.3774 71.8849 76.0574 72.0449 75.0174C72.2049 73.7574 70.2449 73.1574 69.4649 72.9974C67.3849 72.4574 66.0649 72.0374 65.6849 71.8174C64.4449 71.1174 63.8249 70.1374 63.8249 68.8574C63.8249 66.1374 66.7249 64.7974 69.2249 64.7974C70.9849 64.7974 72.6649 65.2574 74.0849 66.2374V69.0374C72.9849 68.0974 71.3049 67.1774 69.7449 67.3374C68.4449 67.4774 67.6049 67.8374 67.6049 68.8574C67.6049 69.8374 69.7249 70.4974 70.4449 70.6974L70.4511 70.6992C73.1679 71.4982 75.1448 72.0797 75.0449 75.1374C74.9449 78.1574 71.6649 79.3774 69.1849 79.3774ZM79.5444 64.8174H76.6244V79.3774H79.5444V64.8174ZM88.2997 76.8574C89.5197 76.8574 90.0797 75.9774 90.1597 74.9174H93.0397C93.0397 77.6774 91.1197 79.3774 88.5597 79.3774H85.8597C84.1197 79.3774 81.6197 78.4174 81.6197 75.2774V69.3574C81.6197 66.8574 83.4397 64.8174 86.3997 64.8174H88.5997C90.7997 64.8174 92.2597 66.2174 92.8997 68.0774L90.1597 68.9374C89.8197 68.1974 89.1197 67.6774 88.3397 67.6774H86.8197C85.4397 67.6774 84.7997 68.7774 84.7997 69.8174V74.5974C84.7997 75.9174 85.0997 76.8574 86.5997 76.8574H88.2997Z" fill="white"/>

</svg>
