<?xml version="1.0" standalone="no"?><!DOCTYPE svg PUBLIC "-//W3C//DTD SVG 1.1//EN" "http://www.w3.org/Graphics/SVG/1.1/DTD/svg11.dtd"><svg t="1671706129247" class="icon" viewBox="0 0 1024 1024" version="1.1" xmlns="http://www.w3.org/2000/svg" p-id="15013" xmlns:xlink="http://www.w3.org/1999/xlink" width="20" height="20"><path d="M814.08 455.68C650.24 358.4 376.32 348.16 220.16 396.8c-25.6 7.68-51.2-7.68-58.88-30.72-7.68-25.6 7.68-51.2 30.72-58.88 181.76-53.76 481.28-43.52 670.72 69.12 23.04 12.8 30.72 43.52 17.92 66.56-12.8 17.92-43.52 25.6-66.56 12.8m-5.12 143.36c-12.8 17.92-35.84 25.6-53.76 12.8-138.24-84.48-348.16-110.08-509.44-58.88-20.48 5.12-43.52-5.12-48.64-25.6-5.12-20.48 5.12-43.52 25.6-48.64 186.88-56.32 417.28-28.16 576 69.12 15.36 7.68 23.04 33.28 10.24 51.2m-61.44 140.8c-10.24 15.36-28.16 20.48-43.52 10.24-120.32-74.24-271.36-89.6-450.56-48.64-17.92 5.12-33.28-7.68-38.4-23.04-5.12-17.92 7.68-33.28 23.04-38.4 194.56-43.52 363.52-25.6 496.64 56.32 17.92 7.68 20.48 28.16 12.8 43.52M512 0C230.4 0 0 230.4 0 512s230.4 512 512 512 512-230.4 512-512S796.16 0 512 0" fill="#1ed760" p-id="15014"></path></svg>