<?xml version="1.0" standalone="no"?><!DOCTYPE svg PUBLIC "-//W3C//DTD SVG 1.1//EN" "http://www.w3.org/Graphics/SVG/1.1/DTD/svg11.dtd"><svg t="1647868561836" class="icon" viewBox="0 0 1024 1024" version="1.1" xmlns="http://www.w3.org/2000/svg" p-id="1992" width="20" height="20" xmlns:xlink="http://www.w3.org/1999/xlink"><defs><style type="text/css">@font-face { font-family: element-icons; src: url("chrome-extension://moombeodfomdpjnpocobemoiaemednkg/fonts/element-icons.woff") format("woff"), url("chrome-extension://moombeodfomdpjnpocobemoiaemednkg/fonts/element-icons.ttf ") format("truetype"); }
</style></defs><path d="M512 65.311495c-246.699682 0-446.688505 199.989847-446.688505 446.688505s199.989847 446.688505 446.688505 446.688505S958.688505 758.699682 958.688505 512 758.698658 65.311495 512 65.311495zM309.953308 567.255465c-30.517037 0-55.255465-24.738427-55.255465-55.255465s24.738427-55.255465 55.255465-55.255465 55.255465 24.738427 55.255465 55.255465S340.470345 567.255465 309.953308 567.255465zM512 567.255465c-30.517037 0-55.255465-24.738427-55.255465-55.255465s24.738427-55.255465 55.255465-55.255465c30.517037 0 55.255465 24.738427 55.255465 55.255465S542.517037 567.255465 512 567.255465zM714.046692 567.255465c-30.517037 0-55.255465-24.738427-55.255465-55.255465s24.738427-55.255465 55.255465-55.255465 55.255465 24.738427 55.255465 55.255465S744.56373 567.255465 714.046692 567.255465z" p-id="1993" fill="#004d41"></path></svg>