<?xml version="1.0" standalone="no"?><!DOCTYPE svg PUBLIC "-//W3C//DTD SVG 1.1//EN" "http://www.w3.org/Graphics/SVG/1.1/DTD/svg11.dtd"><svg t="1647867564960" class="icon" viewBox="0 0 1147 1024" version="1.1" xmlns="http://www.w3.org/2000/svg" p-id="14851" width="20.162109375" height="18" xmlns:xlink="http://www.w3.org/1999/xlink"><defs><style type="text/css">@font-face { font-family: element-icons; src: url("chrome-extension://moombeodfomdpjnpocobemoiaemednkg/fonts/element-icons.woff") format("woff"), url("chrome-extension://moombeodfomdpjnpocobemoiaemednkg/fonts/element-icons.ttf ") format("truetype"); }
</style></defs><path d="M1130.377237 850.644688L673.355262 58.377752a115.329997 115.329997 0 0 0-200.573908 0L15.759378 850.644688a115.329997 115.329997 0 0 0 100.286954 173.353163h914.760287a115.329997 115.329997 0 0 0 100.286954-173.353163z" fill="#c00000" p-id="14852" data-spm-anchor-id="a313x.7781069.0.i34" class=""></path><path d="M527.939179 283.307063a45.129129 45.129129 0 0 1 90.258258 0v347.422662a45.129129 45.129129 0 1 1-90.258258 0z" fill="#FFFFFF" p-id="14853"></path><path d="M573.068308 790.472516m-68.051862 0a68.051862 68.051862 0 1 0 136.103723 0 68.051862 68.051862 0 1 0-136.103723 0Z" fill="#FFFFFF" p-id="14854"></path></svg>