<?xml version="1.0" standalone="no"?><!DOCTYPE svg PUBLIC "-//W3C//DTD SVG 1.1//EN" "http://www.w3.org/Graphics/SVG/1.1/DTD/svg11.dtd"><svg t="1647869024823" class="icon" viewBox="0 0 1024 1024" version="1.1" xmlns="http://www.w3.org/2000/svg" p-id="8894" width="19" height="19" xmlns:xlink="http://www.w3.org/1999/xlink"><defs><style type="text/css">@font-face { font-family: element-icons; src: url("chrome-extension://moombeodfomdpjnpocobemoiaemednkg/fonts/element-icons.woff") format("woff"), url("chrome-extension://moombeodfomdpjnpocobemoiaemednkg/fonts/element-icons.ttf ") format("truetype"); }
</style></defs><path d="M512 64C264.58 64 64 264.58 64 512s200.58 448 448 448 448-200.58 448-448S759.42 64 512 64z m0 752a36 36 0 1 1 36-36 36 36 0 0 1-36 36z m51.83-551.95L548 636a36 36 0 0 1-72 0l-15.83-371.95c-0.1-1.33-0.17-2.68-0.17-4.05a52 52 0 0 1 104 0c0 1.37-0.07 2.72-0.17 4.05z" p-id="8895" data-spm-anchor-id="a313x.7781069.0.i8" class="" fill="#c00000"></path></svg>