<svg width="40" height="40" viewBox="0 0 40 40" fill="none" xmlns="http://www.w3.org/2000/svg">
<path d="M14.4971 11.9564C19.2196 10.6447 24.2268 10.7508 28.8888 12.2613L27.8705 15.0788L34.4345 10.9807L26.6804 6.51669C25.5819 5.93282 24.739 4.96632 24.3133 3.8026C23.8876 2.63889 23.9092 1.3599 24.3738 0.210999L7.19697 10.0781L11.1231 11.7247C12.1872 12.1867 13.3792 12.2686 14.4971 11.9564Z" fill="#00D062"/>
<path d="M25.4785 28.0436C20.7675 29.3479 15.7742 29.2418 11.1236 27.7387L12.1419 24.9213L5.56567 29.0194L13.3198 33.4834C14.4182 34.0672 15.2612 35.0337 15.6868 36.1974C16.1125 37.3611 16.091 38.6401 15.6264 39.789L32.8032 29.9219L28.8648 28.2022C27.7885 27.7615 26.5917 27.7054 25.4785 28.0436Z" fill="#00D062"/>
<path d="M6.49776 11.4931L31.2692 22.2018C31.9184 22.4811 32.4699 22.9451 32.8542 23.5355C33.2384 24.1259 33.4383 24.8161 33.4286 25.5193L33.4286 28.5319L8.65713 17.8232C8.01567 17.5471 7.46946 17.0906 7.08577 16.5098C6.70208 15.929 6.49769 15.2493 6.49776 14.5545L6.49776 11.4931Z" fill="#00D062"/>
</svg>
