<?xml version="1.0" encoding="utf-8"?>
<!-- Generator: Adobe Illustrator 19.2.1, SVG Export Plug-In . SVG Version: 6.00 Build 0)  -->
<svg version="1.1" id="layer" xmlns="http://www.w3.org/2000/svg" xmlns:xlink="http://www.w3.org/1999/xlink" x="0px" y="0px"
	 viewBox="0 0 652 652" style="enable-background:new 0 0 652 652;" xml:space="preserve">
<style type="text/css">
	.st0{fill:#241F1F;}
</style>
<g>
	<path class="st0" d="M464.9,404.7l44.3-183.9h-95l-40.5,164.9c-5.9,32.2-40.4,47.2-64.9,47.6h-67.3l-22.9,66.3h141.5
		C395,499.6,446.5,481.8,464.9,404.7"/>
	<path class="st0" d="M265.5,339.9L310.1,153h97.8l-50.8,212.6c-9.8,41.1-40.3,50.9-68.5,50.9H63.2c-24.8,0-45.6-10.6-34.4-58
		l20.3-84.8c10.3-43,42.3-52.9,65.4-52.9h157.3l-12.7,53h-80.3c-11.8,0-18.3,2.6-21.6,16.3l-13,54.1c-4.6,19.4,2.2,20.8,16.4,20.8
		h73.6C247.8,365.2,259.6,364.3,265.5,339.9"/>
	<polygon class="st0" points="530.7,220.9 484.6,416.5 579.7,416.5 625.7,220.9 	"/>
</g>
</svg>
