<?xml version="1.0" standalone="no"?><!DOCTYPE svg PUBLIC "-//W3C//DTD SVG 1.1//EN" "http://www.w3.org/Graphics/SVG/1.1/DTD/svg11.dtd"><svg t="1671860207287" class="icon" viewBox="0 0 1024 1024" version="1.1" xmlns="http://www.w3.org/2000/svg" p-id="9667" xmlns:xlink="http://www.w3.org/1999/xlink" width="20" height="20"><path d="M512 1024h-17.066667l106.666667-285.866667h145.066667c25.6 0 51.2-21.333333 59.733333-42.666666L921.6 384c17.066667-51.2-12.8-93.866667-64-93.866667h-200.533333l-166.4 460.8-93.866667 260.266667C166.4 955.733333 0 755.2 0 512 0 277.333333 157.866667 81.066667 375.466667 17.066667L277.333333 290.133333 110.933333 738.133333h106.666667l136.533333-379.733333h81.066667L298.666667 738.133333h106.666666l128-354.133333c17.066667-51.2-8.533333-93.866667-64-93.866667H384L490.666667 0h21.333333c281.6 0 512 230.4 512 512s-230.4 512-512 512z m311.466667-669.866667h-81.066667l-115.2 311.466667h81.066667l115.2-311.466667z" p-id="9668" fill="#000000"></path></svg>