<?xml version="1.0" standalone="no"?><!DOCTYPE svg PUBLIC "-//W3C//DTD SVG 1.1//EN" "http://www.w3.org/Graphics/SVG/1.1/DTD/svg11.dtd"><svg t="1671861907189" class="icon" viewBox="0 0 2560 1024" version="1.1" xmlns="http://www.w3.org/2000/svg" p-id="12388" xmlns:xlink="http://www.w3.org/1999/xlink" width="50" height="50"><path d="M0 0v70.492754h497.15942V0H0z m567.652174 0v70.492754h708.637681S1202.086957 0 1109.333333 0H567.652174z m849.623188 0v70.492754h430.376812L1821.681159 0H1417.275362z m738.318841 0l-25.971015 70.492754h426.666667V0H2155.594203zM0 137.275362v70.492754h497.15942V137.275362H0z m567.652174 0v70.492754h793.971014s-7.42029-55.652174-25.971014-70.492754H567.652174z m849.623188 0v70.492754h478.608696l-22.26087-70.492754H1417.275362z m686.376812 0l-22.26087 70.492754h474.898551V137.275362H2103.652174zM144.695652 270.84058v70.492753h215.188406V270.84058H144.695652z m567.652174 0v70.492753H927.536232V270.84058h-215.188406z m426.666667 0v70.492753h215.188406s14.84058-37.101449 14.840579-70.492753h-230.028985z m422.956521 0v70.492753h382.144928l-25.971014-70.492753h-356.173914z m497.159421 0l-25.971015 70.492753h385.855073V270.84058h-359.884058zM144.695652 408.115942v70.492754h215.188406V408.115942H144.695652z m567.652174 0v70.492754h552.811594s44.521739-37.101449 59.362319-70.492754H712.347826z m849.623188 0v70.492754h215.188406v-40.811595l14.84058 40.811595H2188.985507l14.84058-40.811595v40.811595h215.188406V408.115942h-408.115942l-22.26087 59.362319-18.550724-59.362319h-408.115943zM144.695652 545.391304v70.492754h215.188406v-70.492754H144.695652z m567.652174 0v70.492754h612.173913c-14.84058-33.391304-59.362319-70.492754-59.362319-70.492754H712.347826z m849.623188 0v70.492754h215.188406v-70.492754h-215.188406z m256 0l25.971015 70.492754h296.811594l25.971015-70.492754H1817.971014z m382.144928 0v70.492754h215.188406v-70.492754h-215.188406zM144.695652 682.666667v70.492753h215.188406v-70.492753H144.695652z m567.652174 0v70.492753H927.536232v-70.492753h-215.188406z m426.666667 0v70.492753h230.028985c0-33.391304-14.84058-70.492754-14.840579-70.492753h-215.188406z m422.956521 0v70.492753h215.188406v-70.492753h-215.188406z m304.231885 0l25.971014 70.492753h200.347826l25.971015-70.492753h-252.289855z m333.913043 0v70.492753h215.188406v-70.492753h-215.188406zM3.710145 816.231884v70.492754h497.15942V816.231884H3.710145z m563.942029 0v70.492754H1335.652174c14.84058-14.84058 25.971014-70.492754 25.971014-70.492754H567.652174z m853.333333 0v70.492754h356.173913V816.231884h-356.173913z m493.449276 0l25.971014 70.492754H2040.57971l25.971015-70.492754h-152.115942z m285.681159 0v70.492754H2560V816.231884h-359.884058zM3.710145 953.507246v70.492754h497.15942v-70.492754H3.710145z m563.942029 0v70.492754h541.681159c96.463768 0 166.956522-70.492754 166.956522-70.492754H567.652174z m853.333333 0v70.492754h356.173913v-70.492754h-356.173913z m541.68116 0l25.971014 70.492754h3.710145l25.971015-70.492754h-55.652174z m237.449275 0v70.492754H2560v-70.492754h-359.884058z" fill="#1F70C1" p-id="12389"></path></svg>