<?xml version="1.0" standalone="no"?><!DOCTYPE svg PUBLIC "-//W3C//DTD SVG 1.1//EN" "http://www.w3.org/Graphics/SVG/1.1/DTD/svg11.dtd"><svg t="1671862334859" class="icon" viewBox="0 0 1024 1024" version="1.1" xmlns="http://www.w3.org/2000/svg" p-id="1289" xmlns:xlink="http://www.w3.org/1999/xlink" width="20" height="20"><path d="M512 0C265.813333 0 67.242667 191.402667 67.242667 446.890667c0 256.170667 198.528 446.890667 444.757333 446.890666 41.984 0 82.56-5.717333 120.96-16.384l48.384 124.544c4.992 13.525333 14.933333 22.058667 32.768 22.058667h76.8c18.56 0 32.042667-12.117333 23.509333-35.584l-62.592-162.986667c123.093333-77.525333 204.928-214.869333 204.928-379.264C956.757333 191.445333 758.186667 0 512 0m193.536 706.602667l-56.192-145.877334c-4.992-12.074667-14.933333-23.466667-36.266667-23.466666H539.733333c-18.474667 0-32.725333 12.117333-24.192 35.584l74.026667 191.402666A304.896 304.896 0 0 1 512 773.546667c-180.053333 0-308.138667-141.610667-308.138667-326.613334S331.946667 120.277333 512 120.277333s308.138667 141.610667 308.138667 326.613334c0 108.16-43.434667 200.661333-114.602667 259.712" p-id="1290" fill="#3253dc"></path></svg>