<?xml version="1.0" encoding="UTF-8"?>
<!DOCTYPE svg  PUBLIC '-//W3C//DTD SVG 1.1//EN'  'http://www.w3.org/Graphics/SVG/1.1/DTD/svg11.dtd'>
<svg width="273px" height="275px" enable-background="new -0.137 -0.137 273 215" version="1.1" viewBox="-.137 -.137 273 215" xml:space="preserve" xmlns="http://www.w3.org/2000/svg">
<g fill="#fff">
	<path d="m100.27 192.12 40.464 0.307h41.719c34.563-15.607 58.809-50.539 58.809-90.875 0-54.854-44.771-99.631-99.502-99.631-54.863 0-99.661 44.775-99.661 99.631-3e-3 40.116 23.864 74.88 58.171 90.568z" stroke="#221815"/>
	<path d="m62.357 55.127v-13.644c-3.242 4.294-6.138 8.854-8.692 13.646l8.692-2e-3z" stroke="#000"/>
	<path d="m210.95 30.15v9.799h8.854c-2.736-3.463-5.682-6.726-8.854-9.799z" stroke="#000"/>
	<path d="m161.46 3.902v5.593h9.678v-3.105c-3.164-1.01-6.397-1.853-9.678-2.488z" stroke="#000"/>
	<path d="M82.075,55.131H72.42V39.815h9.655V55.131z" stroke="#000"/>
	<path d="M82.075,70.414H72.42V55.127h9.655V70.414z" stroke="#000"/>
	<path d="m82.075 85.596h-9.655v-15.32h9.655v15.32z" stroke="#000"/>
	<path d="m82.075 100.88h-9.655v-15.288h9.655v15.288z" stroke="#000"/>
	<path d="m82.075 116.03h-9.655v-15.274h9.655v15.274z" stroke="#000"/>
	<path d="m82.075 131.35h-9.655v-15.318h9.655v15.318z" stroke="#000"/>
	<path d="m82.075 146.5h-9.655v-15.299h9.655v15.299z" stroke="#000"/>
	<path d="m82.075 161.69h-9.655v-15.332h9.655v15.332z" stroke="#000"/>
	<path d="M72.144,70.414h-9.627V55.127h9.627V70.414z" stroke="#000"/>
	<path d="m72.144 85.596h-9.627v-15.32h9.627v15.32z" stroke="#000"/>
	<path d="m72.144 100.88h-9.627v-15.288h9.627v15.288z" stroke="#000"/>
	<path d="m72.144 116.03h-9.627v-15.274h9.627v15.274z" stroke="#000"/>
	<path d="m72.144 131.35h-9.627v-15.318h9.627v15.318z" stroke="#000"/>
	<path d="m72.144 146.5h-9.627v-15.299h9.627v15.299z" stroke="#000"/>
	<path d="m72.144 161.69h-9.627v-15.332h9.627v15.332z" stroke="#000"/>
	<path d="m62.354 85.596h-9.664v-15.32h9.664v15.32z" stroke="#000"/>
	<path d="m62.354 100.88h-9.664v-15.288h9.664v15.288z" stroke="#000"/>
	<path d="m62.354 116.03h-9.664v-15.274h9.664v15.274z" stroke="#000"/>
	<path d="m62.354 131.35h-9.664v-15.318h9.664v15.318z" stroke="#000"/>
	<path d="M91.998,39.944h-9.643V24.658h9.643V39.944z" stroke="#000"/>
	<path d="M91.998,55.131h-9.643V39.815h9.643V55.131z" stroke="#000"/>
	<path d="M91.998,70.414h-9.643V55.127h9.643V70.414z" stroke="#000"/>
	<path d="m91.998 85.596h-9.643v-15.32h9.643v15.32z" stroke="#000"/>
	<path d="m91.998 100.88h-9.643v-15.288h9.643v15.288z" stroke="#000"/>
	<path d="m91.998 116.03h-9.643v-15.274h9.643v15.274z" stroke="#000"/>
	<path d="m91.998 131.35h-9.643v-15.318h9.643v15.318z" stroke="#000"/>
	<path d="m91.998 146.5h-9.643v-15.299h9.643v15.299z" stroke="#000"/>
	<path d="m91.998 161.69h-9.643v-15.332h9.643v15.332z" stroke="#000"/>
	<path d="m91.998 176.98h-9.643v-15.284h9.643v15.284z" stroke="#000"/>
	<path d="m101.93 55.131h-9.656v-15.316h9.656v15.316z" stroke="#000"/>
	<path d="m101.93 70.414h-9.656v-15.287h9.656v15.287z" stroke="#000"/>
	<path d="m101.93 85.596h-9.656v-15.32h9.656v15.32z" stroke="#000"/>
	<path d="m101.93 100.88h-9.656v-15.288h9.656v15.288z" stroke="#000"/>
	<path d="m101.93 116.03h-9.656v-15.274h9.656v15.274z" stroke="#000"/>
	<path d="m101.93 131.35h-9.656v-15.318h9.656v15.318z" stroke="#000"/>
	<path d="m101.93 146.5h-9.656v-15.299h9.656v15.299z" stroke="#000"/>
	<path d="m101.93 161.69h-9.656v-15.332h9.656v15.332z" stroke="#000"/>
	<path d="m111.7 39.944h-9.646v-15.286h9.646v15.286z" stroke="#000"/>
	<path d="m111.7 70.414h-9.646v-15.287h9.646v15.287z" stroke="#000"/>
	<path d="m111.7 85.596h-9.646v-15.32h9.646v15.32z" stroke="#000"/>
	<path d="m111.7 100.88h-9.646v-15.288h9.646v15.288z" stroke="#000"/>
	<path d="m111.7 116.03h-9.646v-15.274h9.646v15.274z" stroke="#000"/>
	<path d="m111.7 131.35h-9.646v-15.318h9.646v15.318z" stroke="#000"/>
	<path d="m111.7 146.5h-9.646v-15.299h9.646v15.299z" stroke="#000"/>
	<path d="m111.7 176.98h-9.646v-15.284h9.646v15.284z" stroke="#000"/>
	<path d="m121.64 39.944h-9.669v-15.286h9.669v15.286z" stroke="#000"/>
	<path d="M121.637,24.662h-9.669V9.361h9.669V24.662z" stroke="#000"/>
	<path d="m121.64 55.131h-9.669v-15.316h9.669v15.316z" stroke="#000"/>
	<path d="m121.64 70.414h-9.669v-15.287h9.669v15.287z" stroke="#000"/>
	<path d="m121.64 85.596h-9.669v-15.32h9.669v15.32z" stroke="#000"/>
	<path d="m121.64 100.88h-9.669v-15.288h9.669v15.288z" stroke="#000"/>
	<path d="m121.64 116.03h-9.669v-15.274h9.669v15.274z" stroke="#000"/>
	<path d="m121.64 131.35h-9.669v-15.318h9.669v15.318z" stroke="#000"/>
	<path d="m121.64 146.5h-9.669v-15.299h9.669v15.299z" stroke="#000"/>
	<path d="m121.64 161.69h-9.669v-15.332h9.669v15.332z" stroke="#000"/>
	<path d="m121.64 192.11h-9.669v-15.297h9.669v15.297z" stroke="#000"/>
	<path d="m131.55 39.944h-9.647v-15.286h9.647v15.286z" stroke="#000"/>
	<path d="M131.552,24.662h-9.647V9.361h9.647V24.662z" stroke="#000"/>
	<path d="m131.55 55.131h-9.647v-15.316h9.647v15.316z" stroke="#000"/>
	<path d="m131.55 70.414h-9.647v-15.287h9.647v15.287z" stroke="#000"/>
	<path d="m131.55 85.596h-9.647v-15.32h9.647v15.32z" stroke="#000"/>
	<path d="m131.55 100.88h-9.647v-15.288h9.647v15.288z" stroke="#000"/>
	<path d="m131.55 116.03h-9.647v-15.274h9.647v15.274z" stroke="#000"/>
	<path d="m131.55 131.35h-9.647v-15.318h9.647v15.318z" stroke="#000"/>
	<path d="m131.55 146.5h-9.647v-15.299h9.647v15.299z" stroke="#000"/>
	<path d="m131.55 161.69h-9.647v-15.332h9.647v15.332z" stroke="#000"/>
	<path d="m131.55 176.98h-9.647v-15.284h9.647v15.284z" stroke="#000"/>
	<path d="m131.55 192.11h-9.647v-15.297h9.647v15.297z" stroke="#000"/>
	<path d="m141.5 39.944h-9.66v-15.286h9.66v15.286z" stroke="#000"/>
	<path d="m141.5 55.131h-9.66v-15.316h9.66v15.316z" stroke="#000"/>
	<path d="m141.5 70.414h-9.66v-15.287h9.66v15.287z" stroke="#000"/>
	<path d="m141.5 85.596h-9.66v-15.32h9.66v15.32z" stroke="#000"/>
	<path d="m141.5 100.88h-9.66v-15.288h9.66v15.288z" stroke="#000"/>
	<path d="m141.5 116.03h-9.66v-15.274h9.66v15.274z" stroke="#000"/>
	<path d="m141.5 131.35h-9.66v-15.318h9.66v15.318z" stroke="#000"/>
	<path d="m141.5 146.5h-9.66v-15.299h9.66v15.299z" stroke="#000"/>
	<path d="m141.5 161.69h-9.66v-15.332h9.66v15.332z" stroke="#000"/>
	<path d="m141.5 176.98h-9.66v-15.284h9.66v15.284z" stroke="#000"/>
	<path d="m141.5 192.11h-9.66v-15.297h9.66v15.297z" stroke="#000"/>
	<path d="m151.4 39.944h-9.645v-15.286h9.645v15.286z" stroke="#000"/>
	<path d="m151.4 24.662h-9.645v-15.301h9.645v15.301z" stroke="#000"/>
	<path d="m151.4 55.131h-9.645v-15.316h9.645v15.316z" stroke="#000"/>
	<path d="m151.4 70.414h-9.645v-15.287h9.645v15.287z" stroke="#000"/>
	<path d="m151.4 85.596h-9.645v-15.32h9.645v15.32z" stroke="#000"/>
	<path d="m151.4 100.88h-9.645v-15.288h9.645v15.288z" stroke="#000"/>
	<path d="m151.4 116.03h-9.645v-15.274h9.645v15.274z" stroke="#000"/>
	<path d="m151.4 131.35h-9.645v-15.318h9.645v15.318z" stroke="#000"/>
	<path d="m151.4 146.5h-9.645v-15.299h9.645v15.299z" stroke="#000"/>
	<path d="m151.4 176.98h-9.645v-15.284h9.645v15.284z" stroke="#000"/>
	<path d="m151.4 192.11h-9.645v-15.297h9.645v15.297z" stroke="#000"/>
	<path d="m161.2 39.944h-9.639v-15.286h9.639v15.286z" stroke="#000"/>
	<path d="m161.2 24.662h-9.639v-15.301h9.639v15.301z" stroke="#000"/>
	<path d="m161.2 55.131h-9.639v-15.316h9.639v15.316z" stroke="#000"/>
	<path d="m161.2 70.414h-9.639v-15.287h9.639v15.287z" stroke="#000"/>
	<path d="m161.2 85.596h-9.639v-15.32h9.639v15.32z" stroke="#000"/>
	<path d="m161.2 100.88h-9.639v-15.288h9.639v15.288z" stroke="#000"/>
	<path d="m161.2 116.03h-9.639v-15.274h9.639v15.274z" stroke="#000"/>
	<path d="m161.2 131.35h-9.639v-15.318h9.639v15.318z" stroke="#000"/>
	<path d="m161.2 146.5h-9.639v-15.299h9.639v15.299z" stroke="#000"/>
	<path d="m161.2 161.69h-9.639v-15.332h9.639v15.332z" stroke="#000"/>
	<path d="m161.2 176.98h-9.639v-15.284h9.639v15.284z" stroke="#000"/>
	<path d="m161.2 192.11h-9.639v-15.297h9.639v15.297z" stroke="#000"/>
	<path d="M171.14,39.944h-9.678V24.658h9.678V39.944z" stroke="#000"/>
	<path d="M171.14,24.662h-9.678V9.361h9.678V24.662z" stroke="#000"/>
	<path d="M171.14,55.131h-9.678V39.815h9.678V55.131z" stroke="#000"/>
	<path d="M171.14,70.414h-9.678V55.127h9.678V70.414z" stroke="#000"/>
	<path d="m171.14 85.596h-9.678v-15.32h9.678v15.32z" stroke="#000"/>
	<path d="m171.14 100.88h-9.678v-15.288h9.678v15.288z" stroke="#000"/>
	<path d="m171.14 116.03h-9.678v-15.274h9.678v15.274z" stroke="#000"/>
	<path d="m171.14 131.35h-9.678v-15.318h9.678v15.318z" stroke="#000"/>
	<path d="m171.14 146.5h-9.678v-15.299h9.678v15.299z" stroke="#000"/>
	<path d="m171.14 161.69h-9.678v-15.332h9.678v15.332z" stroke="#000"/>
	<path d="m171.14 176.98h-9.678v-15.284h9.678v15.284z" stroke="#000"/>
	<path d="m171.14 192.11h-9.678v-15.297h9.678v15.297z" stroke="#000"/>
	<path d="m181 39.944h-9.613v-15.286h9.613v15.286z" stroke="#000"/>
	<path d="m181 55.131h-9.613v-15.316h9.613v15.316z" stroke="#000"/>
	<path d="m181 70.414h-9.613v-15.287h9.613v15.287z" stroke="#000"/>
	<path d="m181 85.596h-9.613v-15.32h9.613v15.32z" stroke="#000"/>
	<path d="m181 100.88h-9.613v-15.288h9.613v15.288z" stroke="#000"/>
	<path d="m181 116.03h-9.613v-15.274h9.613v15.274z" stroke="#000"/>
	<path d="m181 131.35h-9.613v-15.318h9.613v15.318z" stroke="#000"/>
	<path d="m181 146.5h-9.613v-15.299h9.613v15.299z" stroke="#000"/>
	<path d="m181 161.69h-9.613v-15.332h9.613v15.332z" stroke="#000"/>
	<path d="m181 176.98h-9.613v-15.284h9.613v15.284z" stroke="#000"/>
	<path d="m181 192.11h-9.613v-15.297h9.613v15.297z" stroke="#000"/>
	<path d="m190.98 39.944h-9.654v-15.286h9.654v15.286z" stroke="#000"/>
	<path d="m190.98 70.414h-9.654v-15.287h9.654v15.287z" stroke="#000"/>
	<path d="m190.98 85.596h-9.654v-15.32h9.654v15.32z" stroke="#000"/>
	<path d="m190.98 100.88h-9.654v-15.288h9.654v15.288z" stroke="#000"/>
	<path d="m190.98 116.03h-9.654v-15.274h9.654v15.274z" stroke="#000"/>
	<path d="m190.98 131.35h-9.654v-15.318h9.654v15.318z" stroke="#000"/>
	<path d="m190.98 146.5h-9.654v-15.299h9.654v15.299z" stroke="#000"/>
	<path d="m190.98 161.69h-9.654v-15.332h9.654v15.332z" stroke="#000"/>
	<path d="m200.76 39.944h-9.664v-15.286h9.664v15.286z" stroke="#000"/>
	<path d="m200.76 55.131h-9.664v-15.316h9.664v15.316z" stroke="#000"/>
	<path d="m200.76 70.414h-9.664v-15.287h9.664v15.287z" stroke="#000"/>
	<path d="m200.76 85.596h-9.664v-15.32h9.664v15.32z" stroke="#000"/>
	<path d="m200.76 100.88h-9.664v-15.288h9.664v15.288z" stroke="#000"/>
	<path d="m200.76 116.03h-9.664v-15.274h9.664v15.274z" stroke="#000"/>
	<path d="m200.76 131.35h-9.664v-15.318h9.664v15.318z" stroke="#000"/>
	<path d="m200.76 146.5h-9.664v-15.299h9.664v15.299z" stroke="#000"/>
	<path d="m200.76 176.98h-9.664v-15.284h9.664v15.284z" stroke="#000"/>
	<path d="m210.67 55.131h-9.646v-15.316h9.646v15.316z" stroke="#000"/>
	<path d="m210.67 70.414h-9.646v-15.287h9.646v15.287z" stroke="#000"/>
	<path d="m210.67 85.596h-9.646v-15.32h9.646v15.32z" stroke="#000"/>
	<path d="m210.67 100.88h-9.646v-15.288h9.646v15.288z" stroke="#000"/>
	<path d="m210.67 116.03h-9.646v-15.274h9.646v15.274z" stroke="#000"/>
	<path d="m210.67 131.35h-9.646v-15.318h9.646v15.318z" stroke="#000"/>
	<path d="m210.67 146.5h-9.646v-15.299h9.646v15.299z" stroke="#000"/>
	<path d="m210.67 161.69h-9.646v-15.332h9.646v15.332z" stroke="#000"/>
	<path d="m220.59 70.414h-9.648v-15.287h9.648v15.287z" stroke="#000"/>
	<path d="m220.59 85.596h-9.648v-15.32h9.648v15.32z" stroke="#000"/>
	<path d="m220.59 100.88h-9.648v-15.288h9.648v15.288z" stroke="#000"/>
	<path d="m220.59 116.03h-9.648v-15.274h9.648v15.274z" stroke="#000"/>
	<path d="m220.59 131.35h-9.648v-15.318h9.648v15.318z" stroke="#000"/>
	<path d="m220.59 146.5h-9.648v-15.299h9.648v15.299z" stroke="#000"/>
	<path d="m220.59 161.69h-9.648v-15.332h9.648v15.332z" stroke="#000"/>
	<path d="m230.53 85.596h-9.645v-15.32h9.645v15.32z" stroke="#000"/>
	<path d="m230.53 100.88h-9.645v-15.288h9.645v15.288z" stroke="#000"/>
	<path d="m230.53 116.03h-9.645v-15.274h9.645v15.274z" stroke="#000"/>
	<path d="m230.53 131.35h-9.645v-15.318h9.645v15.318z" stroke="#000"/>
	<path d="m240.15 116.02-9.5 0.014v-15.28l10.58-0.05-1.08 15.316z" stroke="#000" stroke-miterlimit="10"/>
	<path d="m240.15 116.02-9.5 0.014v-15.28l10.58-0.05-1.08 15.316z" stroke="#000"/>
	<path d="m62.518 41.321v13.802h9.628v-15.311h-8.448c-0.415 0.478-0.803 0.993-1.18 1.509" stroke="#000" stroke-miterlimit="10"/>
	<path d="m62.518 41.321v13.802h9.628v-15.311h-8.448c-0.415 0.478-0.803 0.993-1.18 1.509z" stroke="#000"/>
	<path d="m62.357 55.127h-8.695c-0.327 0.596-0.654 1.21-0.975 1.864v13.426h9.667l3e-3 -15.29z" stroke="#000" stroke-miterlimit="10"/>
	<path d="m62.357 55.127h-8.695c-0.327 0.596-0.654 1.21-0.975 1.864v13.426h9.667l3e-3 -15.29z" stroke="#000"/>
	<path d="m230.52 56.711c-0.268-0.545-0.547-1.071-0.793-1.576h-8.846v15.289h9.648v-13.713h-9e-3z" stroke="#000" stroke-miterlimit="10"/>
	<path d="m230.52 56.711c-0.268-0.545-0.547-1.071-0.793-1.576h-8.846v15.289h9.648v-13.713h-9e-3z" stroke="#000"/>
	<path d="m220.6 40.96c-0.287-0.396-0.584-0.773-0.893-1.15h-8.744v15.319h9.645v-14.169h-8e-3z" stroke="#000" stroke-miterlimit="10"/>
	<path d="m220.6 40.96c-0.287-0.396-0.584-0.773-0.893-1.15h-8.744v15.319h9.645v-14.169h-8e-3z" stroke="#000"/>
	<path d="m179.36 9.364h-7.963v15.3h9.609v-14.615c-0.527-0.248-1.082-0.447-1.646-0.685" stroke="#000" stroke-miterlimit="10"/>
	<path d="m179.36 9.364h-7.963v15.3h9.609v-14.615c-0.527-0.248-1.082-0.447-1.646-0.685z" stroke="#000"/>
	<path d="m111.7 6.566c-2.688 0.863-5.345 1.848-7.963 2.929h7.963v-2.929z" stroke="#000"/>
	<path d="m111.97 6.48v3.005h9.667v-5.522c-3.261 0.693-6.494 1.546-9.667 2.517z" stroke="#000"/>
	<path d="m121.91 3.912v5.582h9.646v-7.05c-3.251 0.308-6.453 0.803-9.646 1.468z" stroke="#000"/>
	<path d="m141.5 1.929c-3.273 0.01-6.479 0.169-9.659 0.506v7.05h9.659v-7.556z" stroke="#000"/>
	<path d="m151.4 9.488v-7.091c-3.162-0.307-6.385-0.482-9.645-0.482v7.575l9.645-2e-3z" stroke="#000"/>
	<path d="m151.56 2.413v7.08h9.641v-5.632c-3.176-0.654-6.389-1.141-9.641-1.448z" stroke="#000"/>
	<path d="m171.39 6.443v3.047h8.318c-2.746-1.123-5.482-2.164-8.318-3.047z" stroke="#000"/>
	<path d="m190.98 15.072c-3.125-1.798-6.346-3.424-9.658-4.881v14.479h9.658v-9.598z" stroke="#000"/>
	<path d="m191.1 15.139v9.521h9.656v-3.232c-3.084-2.263-6.305-4.366-9.656-6.289z" stroke="#000"/>
	<path d="m201.03 21.643v3.018h3.848c-1.26-1.034-2.529-2.035-3.848-3.018z" stroke="#000"/>
	<path d="m204.87 24.66h-3.838v15.289h9.639v-10.073c-1.853-1.795-3.787-3.571-5.801-5.216z" stroke="#000"/>
	<path d="m220.89 41.321v13.802h8.846c-2.598-4.849-5.553-9.468-8.846-13.802z" stroke="#000"/>
	<path d="m230.66 56.976v13.445h5.57c-1.515-4.66-3.39-9.131-5.57-13.445z" stroke="#000"/>
	<path d="m236.21 70.281h-5.553v15.316h9.301c-0.844-5.261-2.123-10.358-3.748-15.316z" stroke="#000"/>
	<path d="m236.72 131.21h-6.068v14.854c2.4-4.75 4.462-9.707 6.068-14.854z" stroke="#000"/>
	<path d="m220.89 146.36v15.326h0.09c3.619-4.799 6.791-9.941 9.549-15.326h-9.639z" stroke="#000"/>
	<path d="m210.95 172.95c3.459-3.361 6.689-6.941 9.645-10.771v-0.477h-9.645v11.248z" stroke="#000"/>
	<path d="m201.03 176.98h5.553c1.418-1.211 2.758-2.479 4.096-3.768v-11.512h-9.646l-3e-3 15.28z" stroke="#000"/>
	<path d="m201.03 176.82v4.611c1.951-1.457 3.865-2.982 5.713-4.611h-5.713z" stroke="#000"/>
	<path d="m191.1 187.91c3.33-1.943 6.563-3.986 9.656-6.27v-4.83h-9.656v11.1z" stroke="#000"/>
	<path d="m181.33 192.12h1.652c2.73-1.23 5.404-2.658 8.002-4.139v-11.162h-9.654v15.301z" stroke="#000"/>
	<path d="m101.93 176.82h-9.658v11.156c2.602 1.486 5.256 2.904 8.002 4.146h1.656v-15.302z" stroke="#000"/>
	<path d="m82.367 181.51c3.071 2.289 6.307 4.373 9.638 6.295v-10.982h-9.638v4.687z" stroke="#000"/>
	<path d="m82.082 181.28v-4.475h-5.556c1.788 1.561 3.642 3.067 5.556 4.475z" stroke="#000"/>
	<path d="m72.428 173.05c1.388 1.34 2.806 2.658 4.264 3.939h5.396v-15.291h-9.657l-3e-3 11.352z" stroke="#000"/>
	<path d="m62.518 161.92c2.925 3.828 6.178 7.477 9.628 10.867v-11.086h-9.628v0.219z" stroke="#000" stroke-miterlimit="10"/>
	<path d="m62.518 161.92c2.925 3.828 6.178 7.477 9.628 10.867v-11.086h-9.628v0.219z" stroke="#000"/>
	<path d="m62.357 146.36h-9.548c2.717 5.385 5.893 10.537 9.509 15.326h0.039v-15.326z" stroke="#000" stroke-miterlimit="10"/>
	<path d="m62.357 146.36h-9.548c2.717 5.385 5.893 10.537 9.509 15.326h0.039v-15.326z" stroke="#000"/>
	<path d="m52.45 116.03h-9.281c0.764 5.266 1.963 10.359 3.52 15.316h5.764l-3e-3 -15.316z" stroke="#000" stroke-miterlimit="10"/>
	<path d="m52.45 116.03h-9.281c0.764 5.266 1.963 10.359 3.52 15.316h5.764l-3e-3 -15.316z" stroke="#000"/>
	<path d="m52.45 145.63v-14.418h-5.791c1.556 4.988 3.499 9.778 5.791 14.418z" stroke="#000"/>
	<path d="m52.45 85.595h-9.017c-0.268 1.479-0.456 2.978-0.654 4.501l-0.522 10.848 10.184-0.06v-15.289h9e-3z" stroke="#000"/>
	<path d="m52.45 85.595v-15.319h-5.269c-1.636 4.97-2.905 10.057-3.758 15.319h9.027z" stroke="#000"/>
	<path d="m52.45 70.413v-12.931c-2.063 4.178-3.851 8.479-5.325 12.933l5.325-2e-3z" stroke="#000"/>
	<path d="m72.143 39.946v-9.538c-3.063 2.991-5.919 6.188-8.563 9.538h8.563z" stroke="#000"/>
	<path d="m72.428 39.946h9.657v-15.29h-3.54c-2.145 1.732-4.146 3.589-6.117 5.513v9.777z" stroke="#000"/>
	<path d="m82.082 21.882c-1.2 0.902-2.393 1.834-3.54 2.776h3.54v-2.776z" stroke="#000"/>
	<path d="m82.367 21.655v3.005h9.638v-9.344c-3.353 1.944-6.576 4.027-9.638 6.339" stroke="#000" stroke-miterlimit="10"/>
	<path d="m82.367 21.655v3.005h9.638v-9.344c-3.353 1.944-6.576 4.027-9.638 6.339z" stroke="#000"/>
	<path d="m101.93 10.274c-3.322 1.458-6.555 3.104-9.658 4.892v9.509h9.658v-14.401z" stroke="#000"/>
	<path d="m102.05 24.66h9.647v-15.301h-7.615c-0.664 0.277-1.352 0.565-2.032 0.854v14.447z" stroke="#000" stroke-miterlimit="10"/>
	<path d="m102.05 24.66h9.647v-15.301h-7.615c-0.664 0.277-1.352 0.565-2.032 0.854v14.447z" stroke="#000"/>
	<path d="m240.32 87.957c-0.115-0.813-0.234-1.587-0.354-2.36h-9.314v15.29l10.58 0.099-0.912-13.029z" stroke="#000" stroke-miterlimit="10"/>
	<path d="m240.32 87.957c-0.115-0.813-0.234-1.587-0.354-2.36h-9.314v15.29l10.58 0.099-0.912-13.029z" stroke="#000"/>
	<path d="m230.66 116.03v15.316h6.02c1.566-4.957 2.746-10.055 3.52-15.316h-9.54z" stroke="#000"/>
	<path d="m230.53 131.21h-9.648v15.301h9.549c0.029-0.061 0.068-0.148 0.102-0.199l-3e-3 -15.102z" stroke="#000"/>
	<path d="m52.885 146.5h9.459v-15.301h-9.668v14.953c0.089 0.1 0.139 0.208 0.209 0.348" stroke="#000" stroke-miterlimit="10"/>
	<path d="m52.885 146.5h9.459v-15.301h-9.668v14.953c0.089 0.1 0.139 0.208 0.209 0.348z" stroke="#000"/>
	<path d="m43.165 116.03h9.277v-15.28l-10.183 0.02 0.526 11.891c0.123 1.129 0.221 2.268 0.38 3.369" stroke="#000" stroke-miterlimit="10"/>
	<path d="m43.165 116.03h9.277v-15.28l-10.183 0.02 0.526 11.891c0.123 1.129 0.221 2.268 0.38 3.369z" stroke="#000"/>
</g>
<path d="m101.93 39.941v-15.29h-9.66v15.29h9.66zm0 137.04v-15.289h-9.66v15.289h9.66zm9.76-121.85v-15.32h-9.64v15.32h9.64zm0 106.56v-15.328h-9.64v15.328h9.64v0zm0 30.42v-15.303h-9.64v15.303h9.64zm9.95-15.131v-15.289h-9.669v15.289h9.669zm19.86-152.32v-15.301h-9.66v15.303l9.66-2e-3v0zm9.901 137.03v-15.328h-9.646v15.328h9.646v0zm39.58-106.56v-15.32h-9.646v15.32h9.646zm0 121.85v-15.289h-9.646v15.289h9.646zm9.779-15.289v-15.328h-9.658v15.328h9.658v0z" fill="#211714" stroke="#211714" stroke-linecap="round" stroke-linejoin="round" stroke-miterlimit="10"/>
<path d="m250.66 208.5v-4.1l-220 0.129v8.275l220-0.154v-4.15zm-203.46-124.44v-7.17l-15.021 0.141c-1.91 0-1.801-0.41-1.801-2.894l0.16-9.8-7.589-0.13c-2.33 5.229-5.224 8.68-6.87 9.36l-14.08 6.21v4.42l5.27 0.13c2.34 0 3.3-0.13 3.3 2.63v29.071c0 8.828 4.813 15.309 17.24 15.6 9.34 0.26 15.01-3.881 18.989-7.75l-1.09-3.721c-1.67 1.121-3.021 2.08-5.25 2.08-10.604 0-10.319-8.279-10.319-15.58v-19.696c0-2.9 0.239-2.9 2.19-2.9h14.871zm29.229 46.871c12.14-0.566 23.84-3.18 23.84-14.896 0-8.521-9.355-13.919-19.275-18.19-6.361-2.62-15.58-6.47-15.58-9.52 0-3.57 7.02-10.474 13.77-4.96l11.73 9.8 5.379-1.12-3.021-14.59c-2.77 0.13-4.699 0.276-14.775-1.4-12.41-1.779-27.15 4.433-27.15 15.99 0 7.75 11.18 13.11 20.01 16.689 4.813 2.063 13.37 5.107 13.37 9.787 0 4.521-8.011 5.791-12.55 5.791-7.721 0-16.28-10.35-16.28-10.35h-5.08l2.75 15.459c0.94-0.84 4.42-0.719 5.11-0.42 2.462 0.942 11.413 2.34 17.752 1.93zm31.01-14.76c0 8.551-2.195 13.09-9.1 13.49l0.17 1.396c11.539-0.131 23.3 0 34.57-0.26l0.129-0.721c-5.209 0-9.229-5.51-9.229-12.371v-23.029c0-5.67 6.894-9.25 11.58-8.83 7.281 0.684 11.3 5.36 11.3 9.514v22.606c0 6.895-2.066 11.16-7.438 11.564v1.27h31.688v-0.971c-4.688-0.57-7.986-4.854-7.986-11.313v-23.734c0-5.07 4.406-8.521 12.275-8.65 6.895-0.14 11.021 4.97 11.021 9.8v21.48c0 7.311-2.201 11.85-7.701 12.42v0.971c11.57 0.129 21.07 0.129 32.5 0v-0.721c-6.049 0-8.109-3.98-8.109-12.369v-23.733c0-7.85-4.275-17.229-16.27-17.229-8.121 0-14.09 3.97-17.49 5.13-2.35 0.92-4.01 2.04-4.57 2.04-1.076 0-2.311-0.69-3.85-2.34-2.9-3.063-8.121-4.83-13.65-4.83-7.035 0-14.068 3.97-17.39 5.13-0.39 0.11-2.86 1.35-3.16 1.35-0.54 0-2.75 0-2.75-0.26 0-6.63 0.42-3.33 0.149-8.01h-4.563c-1.356 0-3.729 2.49-6.479 3.56-3.313 1.41-9.93 1.264-12.66 1.96v4.682l7.14 1.37v9.106l-0.127 20.532zm136.14-39.979c-20.4 0-35.98 10.616-35.98 29.106 0 15.582 14.189 26.589 33.219 26.589 14.48 0 26.465-10.471 29.9-17.09 0-2.051-2.059-2.896-3.979-2.896-3.32 5.1-12.686 8.979-16.531 8.816-23.029-0.83-26.75-10.061-27.029-19.701-0.43-10.479 10.889-19.59 20.539-18.88 5.631 0.394 7.58 9.61 12.521 12.934 1.549 0.856 5.115 0.696 7.469 0.29 1.791-0.29 6.59-1.384 6.59-5.521 0-3.438-4.271-7.31-8.379-9.79-4.131-1.909-13.381-3.857-18.34-3.857z" fill="#E60012"/>
</svg>
