<svg version="1.2" baseProfile="tiny-ps" xmlns="http://www.w3.org/2000/svg" viewBox="0 0 1616 1593" width="500" height="500"><title>sdsdsd-svg</title><style>tspan { white-space:pre }.shp0 { fill: #df0615 } </style><g id="#df0615ff"><path id="Layer" fill-rule="evenodd" class="shp0" d="M625.28 21.2C982.69 -66.95 1386.71 128.34 1540.72 462.42C1677.76 742.31 1623.81 1102.73 1408.75 1328.66C1189.9 1569.29 819.56 1661.99 516.36 1537.88C265.59 1446.7 67.25 1221.78 14.56 959.12C-13.81 788.66 -1.9 606.04 78.9 450.52C183.77 233.2 394.01 80.21 625.28 21.2ZM225.82 400.37C92.33 583.24 59.4 830.96 141.47 1042.2C421.62 797.78 643.26 474.83 719 106.56C525.48 137.2 338.29 236.49 225.82 400.37ZM901.13 106.81C987.51 472.05 1186.86 809.93 1469.29 1057.39C1530.59 884.65 1536.92 687.34 1456.62 519.41C1358.6 297.28 1139.23 143.28 901.13 106.81ZM670.12 501.94C704.06 491.55 738 480.91 771.94 470.53C771.69 396.82 772.7 323.12 773.21 249.41C740.53 334.26 707.6 419.11 670.12 501.94ZM851.73 245.61C848.44 321.09 849.71 396.82 849.71 472.3C883.4 481.93 917.09 491.8 950.78 501.68C913.29 417.85 884.16 330.97 851.73 245.61ZM567.02 783.59C554.61 927.96 699.75 1052.58 840.59 1028.52C1002.7 1017.12 1098.2 829.94 1040.7 683.54C982.95 758.52 964.71 852.99 938.36 941.9C915.57 942.66 869.72 944.43 846.92 945.44C834 897.57 822.6 849.7 810.95 801.57C795.75 848.69 781.82 896.3 768.65 944.17C746.36 943.92 701.78 943.42 679.49 943.16C650.61 859.32 623.76 774.73 594.12 691.14C618.44 691.39 666.82 691.9 690.89 692.15C704.06 740.53 717.74 788.66 731.67 836.53C743.32 788.66 754.47 740.28 766.12 692.15C792.71 691.39 819.31 690.64 845.91 689.88C858.32 740.03 870.99 790.18 884.41 840.07C898.09 791.44 910.25 742.56 922.66 693.67C961.16 690.64 999.92 687.6 1038.67 685.06C995.1 636.94 950.78 581.47 885.17 563.49C744.08 508.02 561.7 630.35 567.02 783.59ZM173.89 1117.42C225.31 1200.25 286.87 1276.49 358.8 1342.59C439.86 1242.8 520.67 1136.17 556.38 1010.79C529.02 943.16 495.84 877.31 480.39 805.37C385.65 916.57 285.85 1023.45 173.89 1117.42ZM1137.97 815C1122.26 889.47 1091.87 959.63 1044.75 1019.91C1102.51 1132.62 1156.71 1249.89 1240.3 1346.39C1318.07 1289.4 1377.09 1212.66 1432.81 1135.15C1325.16 1037.64 1224.6 932.02 1137.97 815ZM628.57 1063.22C578.42 1181.76 506.99 1289.15 427.7 1389.96C534.34 1446.7 650.61 1483.17 771.18 1492.54C771.94 1365.64 771.44 1238.75 772.96 1111.85C724.32 1096.65 676.45 1080.19 628.57 1063.22ZM851.73 1110.84C850.72 1237.99 848.95 1365.39 850.47 1492.79C962.93 1482.66 1070.84 1447.96 1171.4 1397.81C1097.95 1293.46 1034.11 1183.02 979.15 1068.03C936.84 1082.72 894.29 1097.16 851.73 1110.84Z" /></g></svg>