<?xml version="1.0" standalone="no"?><!DOCTYPE svg PUBLIC "-//W3C//DTD SVG 1.1//EN" "http://www.w3.org/Graphics/SVG/1.1/DTD/svg11.dtd"><svg t="1671854100043" class="icon" viewBox="0 0 1024 1024" version="1.1" xmlns="http://www.w3.org/2000/svg" p-id="7477" xmlns:xlink="http://www.w3.org/1999/xlink" width="20" height="20"><path d="M200.333678 699.532117l147.091056-374.717333V213.666334H76.535117v107.823728h143.432737L64.888869 731.813335c-0.665149 1.9934-1.662873 3.990894-2.329045 5.988387l-0.334621 0.996701v0.335644c0 0.665149-0.331551 0.9967-0.331551 1.662873-0.331551 0.998747-0.665149 2.329045-0.665149 3.329838-0.665149 3.327792-1.332345 6.986111-1.332345 10.649548 0 1.332345 0.333598 2.994194 0.665149 4.326538 2.329045 27.287483 25.623587 48.586578 53.581336 48.586579h0.663103c0 0.330528 0.333598 0 0.333598 0h240.937444V699.533141H200.334701v-0.002047zM382.034996 321.490062h90.517573l0.331552 486.198357H581.037353l-0.665149-486.198357h89.853447V213.666334H382.365524l-0.331551 107.823728z m577.710584 379.038755l-144.757918 0.333598V555.437302h135.440716V448.613344l-135.440716 0.330528v-127.452787h144.093793V212.666564H706.167235v550.426171c0 24.62484 20.6319 44.925189 46.257533 44.925189h207.324906v-107.488083h-0.005117z" fill="#0086d1" p-id="7478"></path></svg>