<?xml version="1.0" standalone="no"?><!DOCTYPE svg PUBLIC "-//W3C//DTD SVG 1.1//EN" "http://www.w3.org/Graphics/SVG/1.1/DTD/svg11.dtd"><svg t="1651066661108" class="icon" viewBox="0 0 1024 1024" version="1.1" xmlns="http://www.w3.org/2000/svg" p-id="18614" width="24" height="24" xmlns:xlink="http://www.w3.org/1999/xlink"><defs><style type="text/css">@font-face { font-family: element-icons; src: url("chrome-extension://moombeodfomdpjnpocobemoiaemednkg/fonts/element-icons.woff") format("woff"), url("chrome-extension://moombeodfomdpjnpocobemoiaemednkg/fonts/element-icons.ttf ") format("truetype"); }
</style></defs><path d="M512 938.667c235.648 0 426.667-191.019 426.667-426.667S747.648 85.333 512 85.333 85.333 276.352 85.333 512 276.352 938.667 512 938.667z m290.73-597.078c3.969-0.896 6.145 0.854 7.169 2.688 1.664 2.987 0.085 7.168 0.085 7.168-42.155 120.192-158.293 202.07-297.941 201.515h-0.086a339.883 339.883 0 0 1-81.365-9.43l35.541 119.723s1.963 16.342 20.95 16.342h57.002s24.875 1.92 30.464-19.328c5.334-20.182 25.6-67.414 25.6-67.414s6.315-19.2 25.088-32.512c18.774-13.312 28.032-13.013 29.227-12.288 0.981 0.64 0.64 2.176 0.64 2.176l-19.499 113.536c-2.176 37.078-28.8 61.568-64.341 61.568H464.939c-35.499 0-62.848-22.4-64.299-61.568l-21.376-137.301c-77.568-33.28-137.472-95.83-165.248-175.019 0 0-1.579-4.224 0.085-7.168 1.024-1.877 3.2-3.584 7.168-2.688 1.152 0.256 4.182 3.755 9.174 9.472 18.773 21.632 65.066 75.094 142.848 106.966l-7.979-56.747s-0.17-1.28 0.81-2.432c1.067-1.28 6.273-2.688 15.19 1.792a32.213 32.213 0 0 1 15.957 19.328l15.702 51.499a351.147 351.147 0 0 0 98.986 11.733h0.086c164.01 3.37 253.525-99.84 281.514-132.139 4.992-5.717 8.022-9.216 9.174-9.472z" fill="#07beff" p-id="18615"></path></svg>