<?xml version="1.0" encoding="UTF-8"?>
<svg width="128px" height="128px" viewBox="0 0 128 128" version="1.1" xmlns="http://www.w3.org/2000/svg" xmlns:xlink="http://www.w3.org/1999/xlink">
    <title>斗鱼</title>
    <defs>
        <linearGradient x1="50%" y1="0%" x2="50%" y2="100%" id="linearGradient-1">
            <stop stop-color="#FF7C18" offset="0%"></stop>
            <stop stop-color="#FF692F" offset="100%"></stop>
        </linearGradient>
    </defs>
    <g id="斗鱼" stroke="none" stroke-width="1" fill="none" fill-rule="evenodd">
        <rect id="矩形" fill="url(#linearGradient-1)" x="0" y="0" width="128" height="128"></rect>
        <path d="M62.5,17 C68.3918966,17 74.0037659,18.198939 79.1049456,20.3661545 C81.9250931,21.5642827 92.1210584,14.2953491 102.884956,19.3963317 C109.361279,22.4654439 114.240864,26.7402822 117.52371,32.2208466 C110.276426,33.9271627 105.024826,37.2652846 101.768912,42.2352125 C99.5996355,45.5464634 105,56.2391665 105,59.5 C105,81.0497579 88.8917415,99.0609963 67.780582,101.675142 L67.223,101.739 L67.2136188,101.788943 C65.583918,109.176736 60.6165682,113.831818 52.4606273,115.655587 L52.0284238,115.74896 L49.8897906,116.19501 L50.949867,114.284788 C53.7729689,109.197651 51.9091653,98.5993401 46.9999318,96.0383575 L47.6052462,94.1063259 C53.0709837,96.6876336 55.8520474,60.8789722 43.8528858,61.9560968 C38.7579258,62.4134543 29.9778653,60.1772973 17.5127043,55.2476258 C17.2799811,53.895438 27.2904761,35.0475845 28.4470286,33.7256201 C37.5376,23.3349015 49.1909046,17 62.5,17 Z" id="1" fill="#FFFFFF" fill-rule="nonzero"></path>
        <g id="编组" transform="translate(10.175784, 17.000000)">
            <path d="M52.3242158,0 C75.7963177,0 94.8242158,19.0278981 94.8242158,42.5 C94.8242158,64.0497579 78.7159573,82.0609963 57.6047978,84.675142 L57.0472158,84.739 L57.0378346,84.788943 C55.4081338,92.1767358 50.440784,96.831818 42.2848431,98.6555868 L41.8526396,98.7489597 L39.7140064,99.1950104 L40.7740828,97.2847876 C43.5971847,92.197651 41.7333811,81.5993401 36.8241477,79.0383575 L37.429462,77.1063259 C43.0251488,79.7490049 45.5343989,90.0437444 43.5316189,95.9617004 L43.4102158,96.305 L43.4533853,96.2935345 C50.0186806,94.3900849 53.8786523,90.324008 55.1578295,84.0129269 L55.2300995,83.6390969 L55.3671713,82.8945041 L56.1210264,82.824436 C76.8405491,80.898633 92.8242158,63.4543669 92.8242158,42.5 C92.8242158,20.1324676 74.6917482,2 52.3242158,2 C39.6516456,2 28.5153015,8.05387446 19.7764916,18.0425221 C18.6054253,19.3810761 17.4981685,20.7851965 16.4730887,22.2054994 L15.9222144,22.9815182 C14.2947033,25.312608 12.8961787,27.6629867 11.8071206,29.8162699 L11.4556734,30.5264343 C10.0966146,33.335518 9.30361585,35.751467 9.26744512,37.2613702 L9.26621581,37.429 L9.47928799,37.5356875 C32.5480282,48.8316748 50.5315649,42.9320249 63.8203852,19.6822185 L64.2257197,18.9650699 L65.6000502,16.5062321 L66.0837671,19.281243 C68.4857701,33.0611719 63.6926,44.9620392 53.8242158,53.5775749 L52.1293321,52.3982551 C60.9548969,44.8806759 65.7900215,34.640549 64.5636035,22.8461364 L64.5182158,22.437 L64.2678446,22.8521919 C50.5707436,45.1929888 31.8996697,50.7348653 8.61033538,39.3370629 L7.87334798,38.9715012 L7.42250542,38.7449005 L7.33692016,38.2476258 C7.10419694,36.895438 7.5495381,34.7835439 8.52500288,32.2727995 L8.79140017,31.6090123 C9.25511389,30.4884118 9.81660817,29.298346 10.4637238,28.0684734 L10.8621705,27.3260103 C10.9302583,27.2015495 10.999178,27.0767498 11.0689174,26.9516411 L11.4970935,26.1975169 L11.9443596,25.437398 C12.0965651,25.1831842 12.251855,24.9282085 12.4101321,24.6727083 L12.8938273,23.9048711 C13.3862894,23.1359348 13.9047601,22.3644129 14.4466131,21.5967116 L14.9961629,20.8305211 C16.0176035,19.4290433 17.1146919,18.0475845 18.2712444,16.7256201 C27.3618158,6.33490153 39.0151204,0 52.3242158,0 Z" id="1" fill="#000000" fill-rule="nonzero"></path>
            <path d="M42.3242158,2 C49.124737,2 54.6568667,7.4306294 54.82049,14.1917732 C54.82049,8.39278334 48.1232057,4 42.3242158,4 C36.5252259,4 31.8242158,8.70101013 31.8242158,14.5 C31.8242158,20.2039245 36.6566529,26.8493477 42.3242158,27 C35.4206564,27 29.8242158,21.4035594 29.8242158,14.5 C29.8242158,7.59644063 35.4206564,2 42.3242158,2 Z" id="1" fill="#000000" fill-rule="nonzero"></path>
            <path d="M66.5784257,2.81558479 C86.6729048,-3.35963629 100.970009,0.687995776 109.152156,14.9919257 L109.398228,15.4285175 L110.414719,17.2589206 L108.021879,16.8444359 L107.81348,16.8162701 C104.477745,16.3946711 100.673112,17.1737606 96.9793208,20.2002482 C95.0347261,21.7935413 93.2650108,23.9392615 91.713563,26.703955 L91.4420527,27.1982809 L89.6804898,26.251235 C91.4168343,23.0215288 93.4453097,20.5102259 95.711768,18.6532156 C99.2853581,15.7252138 102.989301,14.6529969 106.390749,14.7117732 L106.656216,14.719 L106.461141,14.410761 C98.7417913,2.41085685 85.9280176,-0.885310504 67.7479652,4.55088794 L67.1659285,4.72734848 L66.5784257,2.81558479 Z" id="1" fill="#000000" fill-rule="nonzero"></path>
            <path d="M42.3242158,7 C45.2030443,7 47.7030385,8.62198228 48.9601973,11.0019457 C48.9144934,11.0006 48.8694247,11 48.8242158,11 C46.0627921,11 43.8242158,13.2385763 43.8242158,16 C43.8242158,18.0225563 45.0251163,19.7646273 46.7527754,20.552071 C45.5126059,21.4626838 43.9811593,22 42.3242158,22 C38.5927229,22 35.4977073,19.2749169 34.9207148,15.7062964 C35.3501093,15.8954647 35.8249548,16 36.3242158,16 C38.2572124,16 39.8242158,14.4329966 39.8242158,12.5 C39.8242158,10.8434543 38.6733768,9.45570144 37.1275975,9.09264025 C38.4749807,7.79672922 40.3065552,7 42.3242158,7 Z" id="1" fill="#000000"></path>
            <polygon id="1" fill="#000000" points="46.8337383 49.5975052 48.198016 44.4557416 56.163796 47.9347307 56.163796 39.6922644 61.5871954 41.3147127 62.1907609 33.2444707 65.003291 33.2444707 63.416716 40.3420528 57.4508812 47.9347307 53.82049 53.5775749"></polygon>
            <ellipse id="1" stroke="#000000" stroke-width="2" fill="#FCBD01" transform="translate(38.801311, 62.252382) rotate(27.000000) translate(-38.801311, -62.252382) " cx="38.8013108" cy="62.2523819" rx="20" ry="15.5"></ellipse>
            <path d="M42.1143074,45.8376182 L42.5104481,46.755808 C34.7062663,50.1228186 27.9117963,58.1124298 25.3633797,71.439344 L25.2552643,72.0221404 L24.2710549,71.8451327 C26.7572132,58.0214323 33.7019884,49.617864 41.7726335,45.9881473 L42.1143074,45.8376182 Z" id="1" fill="#000000" fill-rule="nonzero"></path>
            <path d="M31.6884121,54.0911484 C15.3467728,45.186434 -17.5621106,43.5079447 11.6812536,65.7943989" id="1" stroke="#000000" stroke-linecap="round"></path>
            <path d="M42.9432395,61.9347438 L42.5602158,61.962 L42.7801794,62.152651 C48.2731605,66.8104445 55.0575576,67.787621 61.8485724,65.5805996 L62.2403599,65.4497422 C68.6037797,63.2670287 73.7877537,58.4830017 74.3753575,54.6848415 C73.855448,59.4184499 70.0310059,64.8918612 62.8892665,67.3415457 C54.6127568,70.1804672 46.1933396,68.6769006 39.7829909,62.0846288 L39.4743897,61.7616734 L37.9522344,60.1407666 L40.174912,60.0775254 C48.6170654,59.8373232 56.2116423,58.9134589 59.5601103,55.2338911 C56.2033508,59.118944 50.651848,61.3348757 42.9432395,61.9347438 Z" id="1" fill="#000000" fill-rule="nonzero"></path>
        </g>
    </g>
</svg>