<?xml version="1.0" encoding="UTF-8"?>
<svg width="128px" height="128px" viewBox="0 0 128 128" version="1.1" xmlns="http://www.w3.org/2000/svg" xmlns:xlink="http://www.w3.org/1999/xlink">
    <title>虎牙</title>
    <defs>
        <linearGradient x1="95.5793364%" y1="31.6387697%" x2="6.34307802%" y2="77.989446%" id="linearGradient-1">
            <stop stop-color="#FFB835" offset="0%"></stop>
            <stop stop-color="#FFA805" offset="100%"></stop>
        </linearGradient>
        <path d="M7.38021237,70.4719733 C30.1604681,98.4441771 92.5916059,92.366826 99.0367584,59.2374328 C102.674862,40.5368416 94.8931395,24.8699452 82.7488695,14.7704052 C78.0004783,10.8215004 69.9760998,2.29876274 64.3156719,0.203582382 C61.0626806,-1.00049684 60.3377851,3.55151654 57.0029708,3.03842986 C54.6897369,2.68252114 52.3760809,2.49976957 50.0887273,2.49976957 C45.930865,2.54624978 43.937842,3.13164665 39.8055205,4.4632151 C35.4436056,5.86876602 25.441595,-1.96694138 21.4401617,0.59078688 C17.3715685,3.19144396 16.1452838,17.1870846 10.8802564,23.0845487 C-0.569576334,36.9599679 -4.88656786,55.4094174 7.38021237,70.4719733 Z" id="path-2"></path>
    </defs>
    <g id="虎牙" stroke="none" stroke-width="1" fill="none" fill-rule="evenodd">
        <g transform="translate(13.911273, 20.079918)">
            <path d="M80.0795946,14.4733832 C75.3312033,10.5244784 69.932075,2.50854306 64.2716472,0.413362706 C61.0186558,-0.790716516 57.9009498,6.55209995 54.5661355,6.03901327 C52.2529016,5.68310455 43.9483299,5.41274885 39.8160084,6.7443173 C35.4540934,8.14986823 26.6280331,-2.15612155 21.1263713,0.413362706 C15.6247095,2.98284696 16.862218,17.4999241 11.5971906,23.3973882 C0.147357848,37.2728074 92.2238646,24.5729231 80.0795946,14.4733832 Z" id="1" fill="#BD5020"></path>
            <g id="形状结合" transform="translate(0.000000, 1.420312)">
                <mask id="mask-3" fill="white">
                    <use xlink:href="#path-2"></use>
                </mask>
                <use id="1" fill="url(#linearGradient-1)" xlink:href="#path-2"></use>
                <path d="M26.6280331,63.4673187 C23.5070602,69.1923482 21.633885,79.5074042 23.2406772,82.8514738 C24.8474694,86.1955434 11.5971906,79.9918985 11.5971906,75.7909953 C11.5971906,71.590092 25.1309903,61.6363742 26.6280331,63.4673187 Z M95.7257351,69.6378179 C95.7257351,75.835586 88.3417667,78.6882841 88.3417667,76.1065293 C88.3417667,73.5247745 84.6812847,63.5715353 83.5024194,61.9292325 C82.3235541,60.2869296 95.7257351,63.4400498 95.7257351,69.6378179 Z M0.170402979,57.3042413 C1.08644223,54.2249249 16.4883311,50.7744408 15.0596095,52.305225 C13.630888,53.8360092 5.06386839,63.9520598 5.7254792,68.0695944 C6.38709,72.187129 -0.74563627,60.3835577 0.170402979,57.3042413 Z M101.086594,49.6503869 C101.41684,54.3155398 101.03226,57.4619613 99.9328514,59.0896514 C97.7283831,54.8145656 94.2792997,51.5248691 91.2363496,49.2425762 C95.5723755,48.6905945 98.8557904,48.8265314 101.086594,49.6503869 Z" id="1" fill="#BD5020" mask="url(#mask-3)"></path>
            </g>
            <path d="M54.2473153,12.7808185 C64.0704954,12.7808185 72.5251832,16.1704183 78.566729,21.6865694 C84.7490227,27.3312286 88.4001107,35.2010214 88.4001107,43.9200816 C88.4001107,45.8844666 87.5982738,47.5917487 86.1215984,49.0595083 C84.5158505,50.6555609 82.1281279,51.9679959 79.0991337,53.0259695 C72.5372764,55.3179091 62.9999222,56.3965076 51.748186,56.3965077 L51.748186,56.3965077 L50.6893146,56.3969805 L49.6328285,56.3980294 L49.6328285,56.3980294 L48.8309044,56.3988725 L48.8309044,56.3988725 L48.5798551,56.3991011 L46.4851872,56.3991019 C37.684816,56.3884064 29.4385975,56.2129936 23.8184977,54.3329117 C21.6578675,53.6101199 19.8919213,52.6367392 18.6588598,51.3025056 C17.5475758,50.1000413 16.8790526,48.6038055 16.7427044,46.7461885 C15.9824805,36.3888512 19.7381887,28.3091566 25.9841686,22.6386282 C33.1628889,16.1212941 43.6093122,12.7808185 54.2473153,12.7808185 Z" id="1" stroke="#BE5027" fill="#F9FFFF"></path>
            <path d="M48.1213217,22.5341197 C52.1319631,20.9264206 66.742365,30.5094932 66.742365,33.4946621 C66.742365,36.479831 52.0786212,48.5851857 47.1380216,45.1901443 C42.1974221,41.7951029 44.1106803,24.1418188 48.1213217,22.5341197 Z" id="1" fill="#BA5227"></path>
            <path d="M36.3867835,65.9300459 C36.3867835,69.5778507 38.4766273,74.9450865 40.3059844,74.9450865 C41.5255558,74.9450865 43.186834,72.9864874 45.2898189,69.0692892 C41.1584624,68.1196049 38.1907839,67.0731905 36.3867835,65.9300459 Z" id="1" fill="#FFEFBE"></path>
            <path d="M66.5291633,67.9456558 C66.5291633,68.7729455 70.2560143,72.2356482 71.4242895,72.0286181 C72.5925647,71.821588 74.196544,65.7357748 72.842489,64.4293769 C71.4884339,63.122979 66.5291633,67.1183661 66.5291633,67.9456558 Z" id="2" fill="#FFEFBE"></path>
            <path d="M35.502673,64.66525 C41.4691534,71.8599911 69.3617351,71.2237515 73.629598,62.2822411" id="1" stroke="#BD5020" stroke-width="2" stroke-linecap="round" stroke-linejoin="round"></path>
        </g>
    </g>
</svg>