<svg viewBox="27 27 146 146" xmlns="http://www.w3.org/2000/svg" width="2500" height="2500"><linearGradient id="a" gradientUnits="userSpaceOnUse" x1="100" x2="100" y1="173" y2="27"><stop offset="0" stop-color="#2689cc"/><stop offset="1" stop-color="#1bd0f9"/></linearGradient><path d="M27 27h146v146H27z" fill="url(#a)"/><g fill="#fc0203"><path d="M121.1 134.4c-2.4-3.2-4.7-6.2-7-9.3 11.2-6.9 16.8-16.7 15.9-29.7-.6-7.9-4-14.6-10-20-12.3-11.1-31.4-10.1-42.2 2.2-6.4 7.4-8.9 16-7.4 25.6 1.6 9.6 6.9 16.7 15.4 21.7-2.4 3.1-4.8 6.1-7.2 9.2-1-.6-1.9-1.1-2.7-1.7-6-4.3-10.6-9.8-13.6-16.5-3.7-8-4.7-16.4-3.2-25.1 1.7-10.3 6.8-18.8 14.8-25.5 4.5-3.7 9.5-6.3 15.2-7.9 1-.3 1.4-.8 1.4-1.7 0-.4 0-.7.1-1.1.3-1.6 1.3-2.7 3-2.7 4.4-.1 8.7-.1 13.1 0 1.7 0 2.9 1.3 3.1 3.2.1.6.1 1.2.1 1.9 12.4 3.2 21.7 10.5 27.4 21.9 4.1 8.2 5.4 17 3.9 26-1.3 8-4.6 15-9.9 21.1-3 3.5-6.2 6.3-10.2 8.4z"/><path d="M128.7 141.5v6.5H69v-6.7c.4-.1.7-.2 1-.3 2.3-.3 4.7-.6 7-1 4.7-.8 9.4-1.4 13.7-3.6.8-.4 1.6-1 2.3-1.6.9-.7 1.3-1.7 1.3-2.8 0-6.5.1-12.9.2-19.4 0-2.8-1.4-4.7-3.6-6-1.9-1.1-4-1.8-6-2.7-.3-.1-.6-.2-1-.4 0-.4-.1-.9-.1-1.3v-7.4c0-2.5 1.2-4.3 3.5-5.3 1.7-.8 3.5-1.3 5.5-1.2 5 .1 10.1 0 15.1 0 2.1 0 4 .5 5.7 1.8 1.4 1.2 2.3 2.6 2.3 4.5v8.8c0 .3-.1.6-.1 1-1.6.4-3.2.8-4.7 1.3-2.1.7-4.3 1.5-5.9 3.1-1.2 1.1-1.8 2.4-1.7 4.1.1 5.6.3 11.2 0 16.8-.2 3.7 1.6 5.8 4.5 7.2 2.8 1.3 5.7 2.2 8.8 2.7 3.8.6 7.7 1.2 11.5 1.8 0-.1.2 0 .4.1z"/></g></svg>