<svg width="128" height="128" viewBox="0 0 128 128" fill="none" xmlns="http://www.w3.org/2000/svg">
<g clip-path="url(#clip0_313_555)">

<path d="M42 124C42 121.791 43.7909 120 46 120H64V128H46C43.7909 128 42 126.209 42 124Z" fill="#EE1E3D"/>
<path d="M86 124C86 121.791 84.2091 120 82 120H64V128H82C84.2091 128 86 126.209 86 124Z" fill="#297EF5"/>
<path d="M70 102.5C70 103.881 67.3137 105 64 105C60.6863 105 58 103.881 58 102.5C58 101.119 60.6863 100 64 100C67.3137 100 70 101.119 70 102.5Z" fill="#9ED7F4"/>
<path d="M67.5 92H60L42.5 122H85.5L67.5 92Z" fill="#DDF5FD"/>
<path d="M113.5 105.5H83L103.5 128H157.5L113.5 105.5Z" fill="#E1F4C3"/>
<path d="M15 105.5H45.5L25 128H-29L15 105.5Z" fill="#DDF5FD"/>
<path d="M106.5 102.5H80.5L71.5 92H87L106.5 102.5Z" fill="#EFEFEF"/>
<path d="M22 102.5H48L57 92H41.5L22 102.5Z" fill="#EFEFEF"/>
<path d="M35 92H0V107.5L35 92Z" fill="#EFEFEF"/>
<path d="M93 92H128V107.5L93 92Z" fill="#EFEFEF"/>
<path d="M57 45H54C51.2386 45 49 47.2386 49 50C49 52.7614 51.2386 55 54 55H57V45Z" fill="#F82D31"/>
<path fill-rule="evenodd" clip-rule="evenodd" d="M82.2244 73.2276C89.1695 65.8269 95.5 59.0811 95.5 47C95.5 29.3269 81.6731 15 64 15C46.3269 15 32 29.3269 32 47C32 57.7102 38.9638 66.9638 46 74C50.5 78.5 61 91.5 61 101C61 102.005 61.4209 103.5 63.75 103.5C66.0791 103.5 66.5 102 66.5 101C66.5 91.5 76.8169 79 81.5 74C81.742 73.7416 81.9836 73.4842 82.2244 73.2276ZM61 34H57V41H54C49.0294 41 45 45.0294 45 50C45 54.9706 49.0294 59 54 59H61V34ZM69 41H65V53C65 56.3137 67.6863 59 71 59H81V41H77V55H72C70.3431 55 69 53.6569 69 52V41Z" fill="#F82D31"/>
</g>
<defs>
<clipPath id="clip0_313_555">
<rect width="128" height="128" fill="white"/>
</clipPath>
</defs>
</svg>
