<?xml version="1.0" standalone="no"?><!DOCTYPE svg PUBLIC "-//W3C//DTD SVG 1.1//EN" "http://www.w3.org/Graphics/SVG/1.1/DTD/svg11.dtd"><svg t="1672475146083" class="icon" viewBox="0 0 1024 1024" version="1.1" xmlns="http://www.w3.org/2000/svg" p-id="5633" xmlns:xlink="http://www.w3.org/1999/xlink" width="20" height="20"><path d="M871.68 512h-228.900571v65.389714h156.964571c-22.893714 98.084571-94.829714 179.858286-189.659429 212.553143L234.057143 413.915429c39.241143-114.468571 150.418286-196.205714 277.942857-196.205715 98.084571 0 186.368 49.078857 241.956571 124.269715l49.042286-42.496C737.645714 211.2 632.978286 152.32 512 152.32c-170.057143 0-313.892571 120.978286-349.842286 281.234286l431.579429 431.579428c156.964571-39.241143 277.942857-183.113143 277.942857-353.133714zM152.32 515.291429c0 91.538286 35.986286 179.821714 104.630857 248.466285s160.219429 104.630857 248.502857 104.630857z" fill="#FFFFFF" p-id="5634"></path><path d="M512 54.235429C260.242286 54.235429 54.235429 260.242286 54.235429 512S260.242286 969.764571 512 969.764571 969.764571 763.757714 969.764571 512 763.757714 54.235429 512 54.235429z m-255.049143 712.777142c-68.644571-68.644571-104.594286-160.182857-104.594286-248.466285l356.388572 353.133714c-91.574857-3.291429-183.113143-35.986286-251.794286-104.630857z m333.531429 94.866286L162.157714 433.517714C198.107429 273.334857 341.942857 152.32 512 152.32c120.978286 0 225.645714 58.88 290.998857 147.163429l-49.005714 42.496C698.368 266.788571 610.048 217.709714 512 217.709714c-127.524571 0-235.410286 81.773714-277.942857 196.205715L610.084571 789.942857c94.829714-32.694857 166.765714-114.468571 189.659429-212.553143h-156.964571V512h228.900571c0 170.057143-120.978286 313.892571-281.234286 349.878857z" fill="#653298" p-id="5635" data-spm-anchor-id="a313x.7781069.0.i14" class=""></path></svg>