<?xml version="1.0" standalone="no"?><!DOCTYPE svg PUBLIC "-//W3C//DTD SVG 1.1//EN" "http://www.w3.org/Graphics/SVG/1.1/DTD/svg11.dtd"><svg t="1672645077579" class="icon" viewBox="0 0 1024 1024" version="1.1" xmlns="http://www.w3.org/2000/svg" p-id="1632" xmlns:xlink="http://www.w3.org/1999/xlink" width="20" height="20"><path d="M608 128H308.8C289.6 128 272 144 272 163.2V320l336 262.4L944 512V320L608 128z" fill="#21A366" p-id="1633"></path><path d="M907.2 128H608v192h336v-155.2C944 145.6 928 128 907.2 128z" fill="#33C481" p-id="1634"></path><path d="M272 320v539.2c0 19.2 16 36.8 35.2 36.8h600c19.2 0 36.8-16 36.8-35.2V704L272 320z" fill="#185C37" p-id="1635"></path><path d="M272 320h336v192H272z" fill="#107C41" p-id="1636"></path><path d="M528 324.8V752c-3.2 17.6-19.2 30.4-36.8 30.4H272V288h219.2c19.2 0 36.8 16 36.8 36.8z" p-id="1637"></path><path d="M544 324.8v388.8c0 28.8-24 52.8-52.8 52.8H272V272h219.2c28.8 0 52.8 24 52.8 52.8z" p-id="1638"></path><path d="M528 324.8v388.8c0 19.2-16 36.8-35.2 36.8H272V288h219.2c19.2 0 36.8 16 36.8 36.8z" p-id="1639"></path><path d="M512 324.8v388.8c0 19.2-16 36.8-35.2 36.8H272V288h203.2c19.2 0 36.8 16 36.8 36.8z" p-id="1640"></path><path d="M100.8 288h372.8c19.2 0 36.8 16 36.8 35.2v374.4c0 19.2-16 36.8-35.2 36.8H100.8C81.6 736 65.6 721.6 64 704V324.8C64 305.6 80 288 100.8 288z" fill="#107C41" p-id="1641"></path><path d="M179.2 633.6l78.4-121.6-72-121.6h57.6l40 76.8c1.6 4.8 4.8 11.2 8 16 3.2-6.4 4.8-11.2 8-17.6l41.6-76.8h52.8L320 510.4l75.2 121.6h-56l-44.8-84.8c-1.6-3.2-3.2-8-4.8-11.2-1.6 3.2-3.2 8-4.8 11.2l-46.4 84.8-59.2 1.6z" fill="#FFFFFF" p-id="1642"></path><path d="M608 512h336v192H608z" fill="#107C41" p-id="1643"></path></svg>