<?xml version="1.0" standalone="no"?><!DOCTYPE svg PUBLIC "-//W3C//DTD SVG 1.1//EN" "http://www.w3.org/Graphics/SVG/1.1/DTD/svg11.dtd"><svg t="1672645092998" class="icon" viewBox="0 0 1024 1024" version="1.1" xmlns="http://www.w3.org/2000/svg" p-id="1978" xmlns:xlink="http://www.w3.org/1999/xlink" width="20" height="20"><path d="M896 896H309.312A37.312 37.312 0 0 1 272 858.688V165.312A37.312 37.312 0 0 1 309.312 128h597.376a37.184 37.184 0 0 1 37.152 37.312L944 848a58.16 58.16 0 0 1-48 48z" fill="#CA64EA" p-id="1979"></path><path d="M752 320h192v192H752z" fill="#AE4BD5" p-id="1980"></path><path d="M752 512h192v192H752z" fill="#9332BF" p-id="1981"></path><path d="M752 704h192v154.72A37.28 37.28 0 0 1 906.72 896H752V704z" fill="#7719AA" p-id="1982"></path><path d="M528 325.28v421.44a27.744 27.744 0 0 1-0.64 6.4A37.024 37.024 0 0 1 490.72 784H272V288h218.72A37.216 37.216 0 0 1 528 325.28z" p-id="1983"></path><path d="M544 325.28v389.44A53.792 53.792 0 0 1 490.72 768H272V272h218.72A53.472 53.472 0 0 1 544 325.28z" p-id="1984"></path><path d="M528 325.28v389.44A37.216 37.216 0 0 1 490.72 752H272V288h218.72A37.216 37.216 0 0 1 528 325.28z" p-id="1985"></path><path d="M512 325.28v389.44A37.216 37.216 0 0 1 474.72 752H272V288h202.72A37.216 37.216 0 0 1 512 325.28z" p-id="1986"></path><path d="M64 288m37.328 0l373.344 0q37.328 0 37.328 37.328l0 373.344q0 37.328-37.328 37.328l-373.344 0q-37.328 0-37.328-37.328l0-373.344q0-37.328 37.328-37.328Z" fill="#7719AA" p-id="1987"></path><path d="M186.704 390.672h50.608l99.44 160.928q6.8 10.832 10.192 17.44h0.64a246.992 246.992 0 0 1-1.44-33.008v-145.36h43.152v242.656h-47.36L238.752 468a129.792 129.792 0 0 1-9.216-17.088h-0.8a354.336 354.336 0 0 1 1.28 36.208v146.208H186.72z" fill="#FFFFFF" p-id="1988"></path></svg>