<?xml version="1.0" standalone="no"?><!DOCTYPE svg PUBLIC "-//W3C//DTD SVG 1.1//EN" "http://www.w3.org/Graphics/SVG/1.1/DTD/svg11.dtd"><svg t="1672645081387" class="icon" viewBox="0 0 1024 1024" version="1.1" xmlns="http://www.w3.org/2000/svg" p-id="1806" xmlns:xlink="http://www.w3.org/1999/xlink" width="20" height="20"><path d="M944 508v8A381.168 381.168 0 0 1 564 896h-8a378.4 378.4 0 0 1-268.64-112c-5.12-5.12-10.24-10.56-15.04-16-4.64-5.12-9.12-10.56-13.44-16A376.96 376.96 0 0 1 176 516v-8A376 376 0 0 1 246.88 288a189.328 189.328 0 0 1 12-16 379.264 379.264 0 0 1 297.12-144h8A381.168 381.168 0 0 1 944 508z" fill="#D35230" p-id="1807"></path><path d="M944 512v-3.648A381.472 381.472 0 0 0 563.648 128H560v384z" fill="#FF8F6B" p-id="1808"></path><path d="M176 508.352V512h384V128h-3.632A381.472 381.472 0 0 0 176 508.352z" fill="#ED6C47" p-id="1809"></path><path d="M528 325.28v421.44a27.744 27.744 0 0 1-0.64 6.4A37.024 37.024 0 0 1 490.72 784H287.36c-5.12-5.12-10.24-10.56-15.04-16-4.64-5.12-9.12-10.56-13.44-16A376.96 376.96 0 0 1 176 516v-8A376 376 0 0 1 246.88 288h243.84A37.216 37.216 0 0 1 528 325.28z" p-id="1810"></path><path d="M544 325.28v389.44A53.792 53.792 0 0 1 490.72 768H272.32c-4.64-5.12-9.12-10.56-13.44-16A376.96 376.96 0 0 1 176 516v-8A376 376 0 0 1 246.88 288a189.328 189.328 0 0 1 12-16h231.84A53.472 53.472 0 0 1 544 325.28z" p-id="1811"></path><path d="M528 325.28v389.44A37.216 37.216 0 0 1 490.72 752H258.88A376.96 376.96 0 0 1 176 516v-8A376 376 0 0 1 246.88 288h243.84A37.216 37.216 0 0 1 528 325.28z" p-id="1812"></path><path d="M512 325.28v389.44A37.216 37.216 0 0 1 474.72 752H258.88A376.96 376.96 0 0 1 176 516v-8A376 376 0 0 1 246.88 288h227.84A37.216 37.216 0 0 1 512 325.28z" p-id="1813"></path><path d="M64 288m37.344 0l373.312 0q37.344 0 37.344 37.344l0 373.312q0 37.344-37.344 37.344l-373.312 0q-37.344 0-37.344-37.344l0-373.312q0-37.344 37.344-37.344Z" fill="#C43E1C" p-id="1814"></path><path d="M295.408 386.512a98.624 98.624 0 0 1 66.432 19.968 72.304 72.304 0 0 1 23.056 57.792 82.08 82.08 0 0 1-11.392 43.216 77.008 77.008 0 0 1-32.432 29.424 107.648 107.648 0 0 1-48.704 10.496h-46.096v88h-47.28V386.512z m-49.136 122.88h40.688a51.92 51.92 0 0 0 35.968-11.008 41.248 41.248 0 0 0 12.16-32.208q0-41.12-46.608-41.12h-42.208z" fill="#FFFFFF" p-id="1815"></path></svg>