<?xml version="1.0" standalone="no"?><!DOCTYPE svg PUBLIC "-//W3C//DTD SVG 1.1//EN" "http://www.w3.org/Graphics/SVG/1.1/DTD/svg11.dtd"><svg t="1672645073001" class="icon" viewBox="0 0 1024 1024" version="1.1" xmlns="http://www.w3.org/2000/svg" p-id="1459" xmlns:xlink="http://www.w3.org/1999/xlink" width="20" height="20"><path d="M906.672 128H309.328A37.328 37.328 0 0 0 272 165.328V320l352 80 320-80v-154.672A37.328 37.328 0 0 0 906.672 128z" fill="#41A5EE" p-id="1460"></path><path d="M944 320H272v192l352 96 320-96V320z" fill="#2B7CD3" p-id="1461"></path><path d="M272 512v192l352 112 320-112V512H272z" fill="#185ABD" p-id="1462"></path><path d="M309.328 896h597.344A37.328 37.328 0 0 0 944 858.672V704H272v154.672A37.328 37.328 0 0 0 309.328 896z" fill="#103F91" p-id="1463"></path><path d="M528 325.28v421.44a27.744 27.744 0 0 1-0.64 6.4A37.024 37.024 0 0 1 490.72 784H272V288h218.72A37.216 37.216 0 0 1 528 325.28z" p-id="1464"></path><path d="M544 325.28v389.44A53.792 53.792 0 0 1 490.72 768H272V272h218.72A53.472 53.472 0 0 1 544 325.28z" p-id="1465"></path><path d="M528 325.28v389.44A37.216 37.216 0 0 1 490.72 752H272V288h218.72A37.216 37.216 0 0 1 528 325.28z" p-id="1466"></path><path d="M512 325.28v389.44A37.216 37.216 0 0 1 474.72 752H272V288h202.72A37.216 37.216 0 0 1 512 325.28z" p-id="1467"></path><path d="M64 288m37.328 0l373.344 0q37.328 0 37.328 37.328l0 373.344q0 37.328-37.328 37.328l-373.344 0q-37.328 0-37.328-37.328l0-373.344q0-37.328 37.328-37.328Z" fill="#185ABD" p-id="1468"></path><path d="M217.184 574.272q1.104 8.64 1.44 15.056h0.848q0.496-6.08 1.936-14.72t2.8-14.56l39.264-169.376h50.768l40.608 166.848a242.08 242.08 0 0 1 5.072 31.472h0.688a240.288 240.288 0 0 1 4.224-30.448l32.48-167.872h46.208l-56.864 242.656h-53.984L293.92 472.576q-1.68-6.944-3.808-18.112-2.112-11.168-2.624-16.24h-0.672q-0.672 5.92-2.624 17.6t-3.12 17.248l-36.384 160.256h-54.832L132.48 390.672h47.04l35.376 169.728q1.184 5.248 2.288 13.872z" fill="#FFFFFF" p-id="1469"></path></svg>