<?xml version="1.0" standalone="no"?><!DOCTYPE svg PUBLIC "-//W3C//DTD SVG 1.1//EN" "http://www.w3.org/Graphics/SVG/1.1/DTD/svg11.dtd"><svg t="1671691666596" class="icon" viewBox="0 0 1024 1024" version="1.1" xmlns="http://www.w3.org/2000/svg" p-id="10657" xmlns:xlink="http://www.w3.org/1999/xlink" width="20" height="20"><path d="M1020.905099 713.721483V395.78379A67.580959 67.580959 0 0 0 972.779265 331.274693l-102.395392-29.182687-153.593089 312.305946-157.688904-397.294122-162.296696-45.565949a82.428291 82.428291 0 0 0-22.526987-2.559885 79.868406 79.868406 0 0 0-80.892359 80.89236v471.018804a76.284567 76.284567 0 0 0 76.796544 76.796544h7.679654l66.045028-6.143723h-4.607792V298.508167l193.015314 474.090666 143.353549-13.823378 186.871591-362.479688v264.180112a190.967406 190.967406 0 0 1-166.392513 186.359613l-465.387057 43.006065h-11.263493a139.76971 139.76971 0 0 1-141.817619-137.209825V225.295462a153.593088 153.593088 0 0 1 153.593089-153.593089 161.78472 161.78472 0 0 1 47.10188 7.167678l536.551855 148.473319a24.062917 24.062917 0 0 0 8.703609 0 28.158733 28.158733 0 0 0 28.670709-28.158733 28.67071 28.67071 0 0 0-19.455124-26.622802L353.287142 15.896885A260.084296 260.084296 0 0 0 262.66722 0.025599 255.988481 255.988481 0 0 0 3.094901 252.430241v539.623717A235.509402 235.509402 0 0 0 241.676165 1023.979521h20.479078l519.656615-51.197696a261.620227 261.620227 0 0 0 238.069287-260.084296z m0 0" fill="#ff5f00" p-id="10658"></path></svg>