<?xml version="1.0" encoding="UTF-8"?>
<svg width="128px" height="128px" viewBox="0 0 128 128" version="1.1" xmlns="http://www.w3.org/2000/svg" xmlns:xlink="http://www.w3.org/1999/xlink">
    <title>网易云</title>
    <g id="网易云" stroke="none" stroke-width="1" fill="none" fill-rule="evenodd">
 
        <path d="M81,19 C86.3762222,19 90.8959095,22.7673443 93.3903201,26.4762742 C93.4617914,26.5825445 93.5326729,26.6891098 93.6029646,26.7959701 L93.6029577,26.7959746 C94.8596461,28.7064425 94.3296532,31.2739299 92.4191853,32.5306183 C90.5087175,33.7873067 87.9412301,33.2573138 86.6845417,31.346846 C86.6654361,31.317801 86.6466971,31.2885165 86.6283292,31.2589995 C86.6283292,31.2589995 86.6283292,31.2589995 86.6283292,31.2589995 C84.8057962,28.3302184 83.158233,28 81,28 C78.3962544,28 75.3171455,29.5968972 76.0215768,32.5323992 C76.4911978,34.4894006 77.0765739,36.6731891 77.7777053,39.0837648 C93.3903201,39.773 106,50.2633464 106,69.5 C106,72.5802083 105.018484,76.9066918 103.055453,82.4794502 C96.8929071,98.0147221 81.7293281,109 64,109 C40.8040405,109 22,90.1959595 22,67 C22,48.1152643 34.4637382,32.1415906 51.6140082,26.8561853 C51.6140082,26.8561853 51.6140082,26.8561853 51.6140082,26.8561853 C53.989691,26.1240426 56.5090814,27.456395 57.2412242,29.8320777 C57.9726006,32.2052739 56.6438094,34.7224373 54.2716985,35.4573264 C54.2602986,35.4608396 54.2488924,35.4643702 54.2374745,35.4679012 C40.778078,39.6303019 31,52.1732547 31,67 C31,85.2253967 45.7746033,100 64,100 C77.8116871,100 89.6415804,91.5149324 94.5613273,79.47315 L94.7716819,79.0423954 C96.1980958,76.1671547 97,72.9272248 97,69.5 C97,59.2800782 90.1478023,50.1363996 80.3117545,48.5405003 L83.4637072,59.999022 C83.8142217,61.441929 84,62.9492691 84,64.5 C84,74.9934102 75.4934102,83.5 65,83.5 C54.5065898,83.5 46,74.9934102 46,64.5 C46,62.7240494 46.6152969,60.0967363 47.8458906,56.6180605 C51.4653652,48.6493002 58.3980683,43.03428 68.644,39.773 C68.0869452,37.8851024 67.5389452,35.6274357 67,33 C65.4509668,25.4482398 73.2680135,19 81,19 Z M55.3785259,65.0411902 C55.3785259,70.5639923 59.4771525,74.5 65,74.5 C70.5228475,74.5 75,70.0228475 75,64.5 C75,61.7739987 73.6591957,56.4328177 70.9775871,48.476457 C64,48.476457 55.3785259,55.8550078 55.3785259,65.0411902 Z" id="形状" fill="#FFFFFF" fill-rule="nonzero"></path>
    </g>
</svg>