<?xml version="1.0" encoding="UTF-8"?>
<svg width="128px" height="128px" viewBox="0 0 128 128" version="1.1" xmlns="http://www.w3.org/2000/svg" xmlns:xlink="http://www.w3.org/1999/xlink">
    <title>V</title>
    <defs>
        <linearGradient x1="21.5676364%" y1="2.33817077%" x2="21.5676364%" y2="100%" id="linearGradient-1">
            <stop stop-color="#AFFA23" offset="0%"></stop>
            <stop stop-color="#64BB02" offset="100%"></stop>
        </linearGradient>
        <linearGradient x1="28.7753962%" y1="0%" x2="30.9317003%" y2="100%" id="linearGradient-2">
            <stop stop-color="#52C7FF" offset="0%"></stop>
            <stop stop-color="#0081F5" offset="100%"></stop>
        </linearGradient>
        <path d="M115.192004,63.9311595 C115.192004,77.5246479 52.744676,115.117814 39.8938474,108.053481 C27.0430188,100.989147 28.2855672,25.4783121 39.8938474,19.5702456 C51.5021276,13.6621791 115.192004,50.3376711 115.192004,63.9311595 Z" id="path-3"></path>
        <linearGradient x1="33.7189604%" y1="7.72784034%" x2="33.7189604%" y2="93.4027449%" id="linearGradient-5">
            <stop stop-color="#FFBB09" offset="0%"></stop>
            <stop stop-color="#FF7203" offset="100%"></stop>
        </linearGradient>
    </defs>
    <g id="V" stroke="none" stroke-width="1" fill="none" fill-rule="evenodd">
        <rect id="矩形" x="0" y="0" width="128" height="128"></rect>
        <path d="M94.5,63.5006288 C94.5,74.0736318 36.1008651,103.313563 24.0831006,97.8189304 C12.0653361,92.3242982 13.2273355,33.592039 24.0831006,28.9967502 C34.9388657,24.4014614 94.5,52.9276259 94.5,63.5006288 Z" id="4" fill="url(#linearGradient-1)"></path>
        <mask id="mask-4" fill="white">
            <use xlink:href="#path-3"></use>
        </mask>
        <use id="3" fill="url(#linearGradient-2)" xlink:href="#path-3"></use>
        <path d="M94.5,63.5006288 C94.5,74.0736318 36.1008651,103.313563 24.0831006,97.8189304 C12.0653361,92.3242982 13.2273355,33.592039 24.0831006,28.9967502 C34.9388657,24.4014614 94.5,52.9276259 94.5,63.5006288 Z" id="2" fill="url(#linearGradient-5)" mask="url(#mask-4)"></path>
        <path d="M77.1948883,63.8902319 C77.1948883,65.2012843 75.0249403,67.140194 71.8389874,69.2194892 L71.1411527,69.6670236 C71.0223952,69.7419116 70.902447,69.8169342 70.7813605,69.8920693 L70.0416034,70.3440514 L70.0416034,70.3440514 L69.2770522,70.7976662 L69.2770522,70.7976662 L68.49023,71.2518479 L68.49023,71.2518479 L67.68366,71.7055306 L67.68366,71.7055306 L66.8598654,72.1576484 L66.8598654,72.1576484 L66.0213694,72.6071353 L66.0213694,72.6071353 L64.7415797,73.2741012 L64.7415797,73.2741012 L63.8773693,73.7123478 L63.8773693,73.7123478 L63.0072886,74.1442328 L63.0072886,74.1442328 L62.1338609,74.5686905 L62.1338609,74.5686905 L61.2596094,74.9846548 L61.2596094,74.9846548 L60.3870573,75.39106 L60.3870573,75.39106 L59.5187278,75.7868401 L59.5187278,75.7868401 L58.6571441,76.1709292 L58.6571441,76.1709292 L57.8048294,76.5422615 L57.8048294,76.5422615 L56.9643069,76.8997709 C56.8253426,76.9581447 56.6869749,77.0158981 56.5492562,77.073009 L55.731153,77.4077857 L55.731153,77.4077857 L54.93115,77.7260748 L54.93115,77.7260748 L54.1517703,78.0268106 C54.0237325,78.0754112 53.8966592,78.123236 53.7706028,78.1702628 L53.0268893,78.4426698 C52.9051112,78.4864157 52.7844553,78.5293192 52.6649741,78.5713581 L51.9626038,78.8130381 L51.9626038,78.8130381 L51.2909497,79.0329011 C51.1817073,79.0676676 51.0738497,79.1014807 50.9674298,79.1343181 L50.346581,79.319457 L50.346581,79.319457 L49.7627564,79.480114 L49.7627564,79.480114 L49.2184792,79.6152234 C47.9966002,79.899844 47.1182976,79.9671202 46.7278143,79.7561181 C46.2338995,79.4892257 45.8274488,78.3791021 45.5084621,76.7228532 L45.3995103,76.1161021 C45.3468503,75.801872 45.2969141,75.4717232 45.2497016,75.1272882 L45.1589085,74.419854 L45.1589085,74.419854 L45.0753788,73.6772264 L45.0753788,73.6772264 L44.9991125,72.9023081 C44.9870067,72.7706254 44.9752036,72.6377182 44.9637032,72.503647 L44.8983321,71.6857351 L44.8983321,71.6857351 L44.8402245,70.8427893 C44.8311451,70.7003735 44.8223685,70.5570355 44.8138944,70.4128358 L44.766682,69.5377818 L44.766682,69.5377818 L44.726733,68.6449506 L44.726733,68.6449506 L44.6940475,67.737245 L44.6940475,67.737245 L44.6686254,66.8175678 L44.6686254,66.8175678 L44.6504667,65.8888216 L44.6504667,65.8888216 L44.6395716,64.9539092 L44.6395716,64.9539092 L44.6359398,64.0157332 L44.6359398,64.0157332 L44.6395716,63.0771965 L44.6395716,63.0771965 L44.6504667,62.1412017 L44.6504667,62.1412017 L44.6686254,61.2106515 L44.6686254,61.2106515 L44.7094823,59.8313847 L44.7094823,59.8313847 L44.7457996,58.9271456 L44.7457996,58.9271456 L44.7893803,58.0385107 C44.797249,57.8918664 44.8054204,57.7459934 44.8138944,57.6009519 L44.8683703,56.7411658 L44.8683703,56.7411658 L44.9301097,55.9042407 C44.9410049,55.7668195 44.9522027,55.6304719 44.9637032,55.4952581 L45.0363377,54.6980671 L45.0363377,54.6980671 L45.1162357,53.9309939 C45.1301573,53.8058194 45.1443816,53.6820208 45.1589085,53.5596586 L45.2497016,52.8432046 C45.2969141,52.4940794 45.3468503,52.1589697 45.3995103,51.8395082 L45.5084621,51.2219333 C45.8274488,49.533995 46.2338995,48.383493 46.7278143,48.067533 C47.1740809,47.7820539 48.2574993,47.8731215 49.7627564,48.246728 L50.346581,48.3998909 L50.346581,48.3998909 L50.9674298,48.5784401 C51.0738497,48.6102526 51.1817073,48.643077 51.2909497,48.6768903 L51.9626038,48.8914535 L51.9626038,48.8914535 L52.6649741,49.1286489 L52.6649741,49.1286489 L53.3955373,49.3873749 L53.3955373,49.3873749 L54.1517703,49.6665298 L54.1517703,49.6665298 L54.93115,49.9650119 L54.93115,49.9650119 L55.731153,50.2817197 L55.731153,50.2817197 L56.5492562,50.6155514 L56.5492562,50.6155514 L57.3829364,50.9654054 C57.523041,51.0249884 57.6636895,51.0851931 57.8048294,51.1459965 L58.6571441,51.5178184 L58.6571441,51.5178184 L59.5187278,51.9029084 L59.5187278,51.9029084 L60.3870573,52.3001649 L60.3870573,52.3001649 L61.2596094,52.7084863 L61.2596094,52.7084863 L62.1338609,53.1267709 L62.1338609,53.1267709 L63.0072886,53.5539171 L63.0072886,53.5539171 L63.8773693,53.9888231 L63.8773693,53.9888231 L64.7415797,54.4303873 L64.7415797,54.4303873 L65.5973968,54.8775082 C65.7391934,54.9524302 65.8805351,55.0275378 66.0213694,55.102808 L66.8598654,55.5561982 L66.8598654,55.5561982 L67.68366,56.0123907 L67.68366,56.0123907 L68.49023,56.470284 L68.49023,56.470284 L69.2770522,56.9287765 C69.5357546,57.0815848 69.7907452,57.2343093 70.0416034,57.3867665 L70.7813605,57.8431522 C71.0235334,57.994891 71.2611535,58.1461789 71.4938001,58.2968322 L72.1763992,58.7467046 C75.1771688,60.7609113 77.1948883,62.6260029 77.1948883,63.8902319 Z" id="1" fill="#FFFFFF" mask="url(#mask-4)"></path>
    </g>
</svg>