<?xml version="1.0" standalone="no"?><!DOCTYPE svg PUBLIC "-//W3C//DTD SVG 1.1//EN" "http://www.w3.org/Graphics/SVG/1.1/DTD/svg11.dtd"><svg t="1632479015575" class="icon" viewBox="0 0 1024 1024" version="1.1" xmlns="http://www.w3.org/2000/svg" p-id="7892" xmlns:xlink="http://www.w3.org/1999/xlink" width="200" height="200"><defs><style type="text/css"></style></defs><path d="M160.7 2.4H867c86.2 0 156.3 69.5 157 155.7v707.8c-0.7 86.2-70.8 155.7-157 155.7H160.7c-86.2 0-156.3-69.5-157-155.7V158.1C4.4 71.9 74.5 2.4 160.7 2.4z m0 0" fill="#42BD56" p-id="7893"></path><path d="M524.6 872.7c-120.4 2.8-240.8-6.3-359.4-27.2-57.9-10.8-91.9-49.8-90.2-104.2 0-15.3 5.7-23.2 21.5-23.2h36.8c13.6-2.1 26.6 6.5 30 19.8 6 20.2 24.3 34.3 45.4 35.1 54.5 8.5 109.4 15.3 164.4 18.7 87 5.7 174.3 5.7 261.3 0 63-4.5 125.8-10.2 188.2-19.8 15.8-0.6 29.4-11.4 33.4-26.6 5.7-24.9 22.1-27.7 43.7-27.7 55.5 0.6 57.3 2.3 43.1 54.9-6.4 32.1-30.3 57.9-61.8 66.8-54.2 14-109.6 22.8-165.5 26.1-63.3 7.2-127.2 9.7-190.9 7.3z m1.1-720.8c106-3.8 212 4 316.3 23.2 64.1 10.2 94.7 26 108.3 101.9 3.4 19.8-4.5 28.3-23.8 27.7-11.9-0.6-25-2.3-37.4-2.3-13.7 1.5-26.4-7.1-30-20.4-7.3-18.7-24.7-31.5-44.8-32.8-127.8-18.9-257-25.9-386-21-74.3 4-149.1 14.2-223.3 21.5-17.6 0.7-33 11.8-39.1 28.3-2.1 8.7-7.5 16.3-15.2 21-7.7 4.7-16.9 6.1-25.6 3.9-8.9-0.9-17.8-1.3-26.7-1.1-17 0.6-23.2-7.4-23.2-24.4-1.2-45.4 29.9-85.3 74.3-95.1 123.7-25.6 250.2-35.9 376.4-30.6l-0.2 0.2z m-97.5 361.8v106.5c-0.5 12.4-2.3 24.7-5.1 36.8-3.4 15.3-27.2 31.7 6.2 43 7.9 2.8 5.7 19.2 2.8 30-3 8.9-12.4 14.1-21.5 11.9-24.9-1.7-52.8 1.7-68.6-26-4.6-6.8-12.8-10.4-21-9.1-8.9 0-17.8-0.6-26.6-1.7-82.2-11.9-91.9-23.2-91.9-105.3V392c0-36.8 14.2-54.9 49.4-66.3 42.7-13.7 88.7-12.9 130.9 2.3 30 10.2 43.1 29.4 44.3 65.1 1.7 40.8 1.1 81 1.1 120.6z m-90.2-0.5V398.8c0-15.9-2.8-28.3-22.7-28.3-18.7 0-24.9 9.1-24.9 26.6v228.8c0 17 5.1 31.1 24.4 31.1 19.3 0 22.7-15.9 22.7-31.7 0.5-37.5 0-74.8 0.5-112.1z m372.5-64.6c11.3-35.7 21-63.4 28.3-91.2 1.2-9.2 6-17.5 13.3-23.2 7.4-5.6 16.7-8.1 25.8-6.8 68.6 0 59.6 4 40.8 55.5-16.4 45.3-30 91.2-49.4 134.8-19.3 43.6-13 90.6-15.3 135.9-0.6 15.3 6.2 35.1-13 41.9-21.5 5.5-44.1 4.7-65.2-2.3-5.1-1.1-6.8-7.9-7.4-13v-5.1c16.4-112.7-40.3-208.4-72-309.7-10.8-33.4-9.1-36.8 25.5-37.4 7.9 0 15.9 0.6 23.8 0 7.9-1.7 16.2 0 22.8 4.8 6.6 4.7 10.9 12.1 11.7 20.2 8.2 29.3 18.4 58.2 30.3 95.6z m242.6 66.3v151.8c0 20.4-5.7 30.6-28.9 31.1-58.4 1.1-58.4 1.7-58.4-57.2 0-92.9 0.6-186.3 0-279.7 0-25.5 9.1-34 34-33.4 52.8 1.1 52.8 0 52.8 51.5l0.5 135.9z m-394.5 0.5c0 52.1-0.6 104.8 0 156.9 0 17.5-5.7 23.8-22.7 24.9-65.2 4.5-65.2 5.1-65.2-60V366c0-35.7 2.3-37.9 37.4-38.5 5.3 0.6 10.6 0.6 15.9 0 25.5-2.8 34.6 7.9 34 33.4-1.7 51.5-0.6 103.1-0.6 154l1.2 0.5z m-400.8 51V670c0 19.2-7.9 26.6-26.7 27.2-55.5 2.3-55.5 2.8-55.5-53.8 0-58.3 0.6-116.7 0-175.5 0-21.5 7.4-30 29.5-30 63.5 0 53.3-4 53.3 51l-0.6 77.5z m0-195.9c0 43.6 0 43.6-39.1 43.6-43.7 0-43.7 0-43.1-44.3 0-41.9 0-41.9 43.1-41.9 38.5 0 38.5 0 39.1 42.6z m0 0" fill="#FFFFFF" p-id="7894"></path></svg>