<?xml version="1.0" standalone="no"?><!DOCTYPE svg PUBLIC "-//W3C//DTD SVG 1.1//EN" "http://www.w3.org/Graphics/SVG/1.1/DTD/svg11.dtd"><svg t="1632462061431" class="icon" viewBox="0 0 1024 1024" version="1.1" xmlns="http://www.w3.org/2000/svg" p-id="2930" xmlns:xlink="http://www.w3.org/1999/xlink" width="200" height="200"><defs><style type="text/css"></style></defs><path d="M473.48 68.39c37.82 36.55 69.63 80.35 88.43 129.71 10.77 28.85 15.85 60.14 12.17 90.86-3.6 44.72-12.74 89.02-12.41 134.02 0.28 22.64 18.81 43.24 41.27 46 21.49 3.35 43.92-10.34 51.35-30.66 6.23-15.39 2.64-32.85-6.23-46.4 38.9 41.82 68.8 91.93 88.52 145.49 17.8 41.83 23.41 88.6 16.6 133.51-4.2 38.44-16.9 75.75-35.94 109.36-30.37 53.74-75.13 97.95-124.1 134.9-17.61 12.96-35.37 25.93-54.35 36.8 1.88-2.51 4.39-4.38 6.76-6.39 24.01-20.82 44.04-46.28 58.36-74.67 32.77-63.76 35.38-142.07 6.92-207.87-20.4 17.18-46.12 28.2-72.82 29.93-31.26 2.37-63.22-7.66-87.56-27.41-25.33-20.14-42.3-50.37-46.31-82.49-2.95-21.42 0.24-43.41 8.07-63.5-56.71 51.27-86.02 130.49-77.5 206.37 4.93 48.11 24.63 94.53 55.69 131.59 5.15 6.73 12.03 12.1 16.06 19.66-48.26-39.72-89.66-89.26-114.85-146.83-17.43-39.92-25.85-83.91-23.08-127.45 1.88-32.77 9.8-65.03 21.91-95.5 26.07-63.01 60.26-122.5 100.38-177.6 17.97-24.85 35.97-49.69 52.35-75.63 35.58-54.12 46.25-123.17 30.31-185.8z" fill="#DE4A3F" p-id="2931"></path></svg>