<?xml version="1.0" standalone="no"?><!DOCTYPE svg PUBLIC "-//W3C//DTD SVG 1.1//EN" "http://www.w3.org/Graphics/SVG/1.1/DTD/svg11.dtd"><svg t="1632556998146" class="icon" viewBox="0 0 1024 1024" version="1.1" xmlns="http://www.w3.org/2000/svg" p-id="3300" width="128" height="128" xmlns:xlink="http://www.w3.org/1999/xlink"><defs><style type="text/css"></style></defs><path d="M853.333333 0H170.666667C77.301961 0 0 77.301961 0 170.666667v682.666666c0 94.368627 77.301961 170.666667 170.666667 170.666667h682.666666c94.368627 0 170.666667-77.301961 170.666667-170.666667V170.666667c0-94.368627-77.301961-170.666667-170.666667-170.666667zM392.533333 588.298039c0 98.384314-81.317647 178.698039-178.698039 178.698039h-30.117647v-59.231372h30.117647c68.266667 0 119.466667-55.215686 119.466667-119.466667V256h59.231372v332.298039z m225.882353 179.701961H469.835294v-512h149.584314C742.901961 256 845.301961 371.45098 845.301961 512S742.901961 768 618.415686 768z" fill="#c81522" p-id="3301" data-spm-anchor-id="a313x.7781069.0.i8" class=""></path><path d="M392.533333 588.298039c0 98.384314-81.317647 178.698039-178.698039 178.698039h-30.117647v-59.231372h30.117647c68.266667 0 119.466667-55.215686 119.466667-119.466667V256h59.231372v332.298039zM618.415686 768H469.835294v-512h149.584314C742.901961 256 845.301961 371.45098 845.301961 512S742.901961 768 618.415686 768z" fill="#FFFFFF" p-id="3302"></path><path d="M618.415686 315.231373h-89.349019v392.533333h89.349019c89.34902 0 166.65098-89.34902 166.650981-195.764706s-77.301961-196.768627-166.650981-196.768627z" fill="#D81E06" p-id="3303"></path></svg>