<?xml version="1.0" ?><!DOCTYPE svg  PUBLIC '-//W3C//DTD SVG 1.1//EN'  'http://www.w3.org/Graphics/SVG/1.1/DTD/svg11.dtd'><svg height="256px" style="enable-background:new 0 0 256 256;" version="1.1" viewBox="0 0 256 256" width="256px" xml:space="preserve" xmlns="http://www.w3.org/2000/svg" xmlns:xlink="http://www.w3.org/1999/xlink"><g id="Background_1_" style="enable-background:new    ;"><g id="Background"><g><path d="M249.422,30.679c-2.721-4.985-5.816-9.536-9.794-13.521     c-3.991-3.998-8.708-7.587-13.702-10.314c-8.381-4.577-18.788-6.856-29.002-6.856H59.075c-10.444,0-20.542,2.345-29.265,6.948     c-5.022,2.65-9.588,6.146-13.502,10.127c-3.932,3.998-7.491,8.488-10.046,13.572c-4.289,8.533-6.274,18.477-6.274,28.65v137.429     c0,10.327,1.671,20.679,6.296,29.135c2.68,4.9,6.191,9.86,10.087,13.794c3.934,3.971,8.583,7.226,13.502,9.956     c8.466,4.7,18.842,6.413,29.202,6.413h137.849c10.568,0,20.399-1.523,28.982-6.401c4.739-2.692,9.879-6.113,13.687-9.966     c3.923-3.969,7.2-8.851,9.886-13.799c4.566-8.415,6.533-18.874,6.533-29.132V59.285     C256.012,48.978,254.031,39.124,249.422,30.679z" style="fill-rule:evenodd;clip-rule:evenodd;fill:#FFFFFF;"/></g></g></g><g id="Shape_1_1_" style="enable-background:new    ;"><g id="Shape_1"><g><path d="M116.809,182.315c-3.436-1.568-5.855-3.295-7.488-4.528     c-7.074-6.069-10.795-12.746-11.969-21.911c0-15.581,0.001-75.384,0.001-75.384c0-1.249-1.013-2.263-2.263-2.263H76.695     c-1.25,0-2.263,1.014-2.263,2.263c0,0,0.001,59.803,0.001,75.384c-1.173,9.165-4.896,15.842-11.969,21.911     c-1.633,1.233-4.052,2.96-7.488,4.528c-3.131,1.43-6.205,1.36-7.954,4.589c-0.076,2.601-0.092,14.438-0.092,17.864     c2.062,5.896,9.104,3.406,13.497,1.875c8.291-2.89,20.34-10.358,25.373-17.918c0.032,0.013,0.061,0.03,0.093,0.043     c0.031-0.013,0.061-0.03,0.092-0.043c5.032,7.56,17.082,15.028,25.373,17.918c4.393,1.531,11.435,4.021,13.497-1.875     c0-3.427-0.016-15.264-0.092-17.864C123.013,183.676,119.94,183.745,116.809,182.315z M203.7,79.674     c2.813,0,5.093-2.279,5.093-5.093v-13.25c0-2.813-2.279-5.093-5.093-5.093h-36.841v-4.506c0-2.813-2.281-5.094-5.094-5.094     h-13.25c-2.813,0-5.094,2.28-5.094,5.094v62.135h-6.111c-2.813,0-5.093,2.28-5.093,5.093v84.644c0,2.813,2.28,5.094,5.093,5.094     h66.219c2.813,0,5.093-2.281,5.093-5.094V118.96c0-2.813-2.28-5.093-5.093-5.093h-36.67V79.674H203.7z M182.422,137.309     c1.453,0,2.631,1.177,2.631,2.63v42.688c0,1.452-1.178,2.63-2.631,2.63h-24.007c-1.452,0-2.63-1.178-2.63-2.63v-42.688     c0-1.453,1.178-2.63,2.63-2.63H182.422z M120.003,46.639H51.748c-1.934,0-3.616,1.078-4.479,2.666     c-0.392,0.722-0.615,1.548-0.615,2.428v108.58c0,2.813,2.28,5.094,5.093,5.094h11.213c2.813,0,5.093-2.28,5.093-5.094V72.186     c0.135-1.325,1.255-2.36,2.616-2.36h30.444c1.284,0,2.351,0.92,2.582,2.136v88.352c0,2.813,2.28,5.094,5.093,5.094h11.213     c2.813,0,5.093-2.28,5.093-5.094V51.732c0-0.88-0.223-1.706-0.615-2.428C123.619,47.717,121.937,46.639,120.003,46.639z" style="fill-rule:evenodd;clip-rule:evenodd;fill:#1373CA;"/></g></g></g></svg>