<?xml version="1.0" standalone="no"?><!DOCTYPE svg PUBLIC "-//W3C//DTD SVG 1.1//EN" "http://www.w3.org/Graphics/SVG/1.1/DTD/svg11.dtd"><svg t="1632478516259" class="icon" viewBox="0 0 1172 1024" version="1.1" xmlns="http://www.w3.org/2000/svg" p-id="5878" xmlns:xlink="http://www.w3.org/1999/xlink" width="228.90625" height="200"><defs><style type="text/css"></style></defs><path d="M285.184 439.296c-2.56-11.776-5.12-14.848-7.168-16.384-4.096-4.096-9.216-5.12-12.288-5.12-1.024-12.288-11.776-20.992-22.528-19.456-9.728 1.024-17.408 9.216-18.432 19.456-2.56 0.512-6.656 1.536-10.24 4.608-4.096 3.072-5.632 6.656-6.656 8.192-6.656 12.8-6.144 36.352-6.144 38.4 0.512 1.536 1.024 5.632 4.608 9.216 4.096 4.096 8.704 5.12 10.24 5.12h58.368c1.536 0 5.632-1.024 9.216-4.096 3.584-3.072 4.608-7.168 5.12-8.192-1.536-13.312-2.048-21.504-4.096-31.744z m-53.248-22.016s2.56-11.776 13.312-11.776 13.312 11.776 13.312 11.776h-26.624zM498.688 258.56c-12.288-6.144-19.968-11.776-34.816-13.824-0.512 6.656-6.656 12.288-14.336 12.288-7.68 0-13.824-5.632-14.336-12.288-16.384 2.56-22.016 7.68-34.816 14.336-1.536 1.024-2.048 3.072-0.512 4.096l10.24 14.848 5.12-5.632v54.272c0 3.072 2.56 5.632 5.632 5.632h57.344c3.072 0 6.144-2.56 6.144-6.144V272.896l5.12 5.632 9.728-12.288c1.024-2.048 1.536-6.656-0.512-7.68zM281.6 286.72c-6.144 10.752-12.288 22.016-18.432 32.768-1.024 4.608 1.024 9.216 5.12 11.264 3.584 2.048 8.192 2.048 11.776-0.512 0 0.512 4.096 6.656 11.264 6.656 6.144 0 9.728-3.584 10.24-4.096 0.512 0.512 5.632 4.608 12.288 3.584 6.144-1.024 9.728-5.12 10.24-6.144 0.512 0.512 6.144 4.096 11.264 1.536 5.12-2.56 6.144-9.728 5.12-13.824-0.512-2.56-1.536-3.072-4.608-7.168-0.512-1.024-3.584-5.632-8.704-15.36-2.048-3.584-5.12-8.704-8.192-13.824 1.024-6.144 2.56-10.752 3.072-13.824 1.536-5.12 2.048-7.168 1.024-10.24-0.512-1.024-0.512-1.536-3.584-6.144 2.048-4.608 2.048-8.192 0-9.728-1.024-0.512-2.56-0.512-3.072 0-2.56 0.512-4.608 4.096-4.608 8.192-1.536 0-4.096 0.512-6.656 2.048-1.536 1.024-2.56 2.56-3.584 3.584-1.024-1.024-3.072-3.584-6.144-4.608-1.536-0.512-3.072-1.024-4.608-1.024 0-3.584-1.536-6.656-4.096-7.68-0.512 0-2.048-0.512-3.072 0-2.048 1.024-2.56 5.12-0.512 9.728-1.024 1.536-2.048 4.096-2.56 7.168-1.024 4.608 0 8.704 1.024 11.776 1.536 5.12 3.072 6.656 2.56 9.728 0 2.56-1.536 4.608-2.56 6.144zM495.616 564.736c-2.048-2.048-4.608-2.048-5.632-2.048h-13.312c-1.024-2.048-2.56-3.072-6.144-8.192-1.536-2.048-3.584-2.56-5.12-3.072h-31.744c-1.024 0.512-3.072 1.024-3.584 2.56-2.56 5.12-5.12 6.656-6.144 8.704-5.632 0-11.776 0.512-17.408 0.512-0.512 0-2.048 0.512-3.072 1.536-1.536 1.536-2.048 3.584-2.048 4.096v56.832c0 0.512 0.512 2.56 2.048 3.584 1.024 1.024 2.56 1.536 3.072 1.536h85.504c0.512 0 2.048-0.512 3.072-1.536 2.048-1.536 2.56-3.584 2.56-4.096v-57.344c0-0.512-1.024-2.048-2.048-3.072zM254.976 624.128c2.048 4.096 13.312 9.728 29.696 9.728 19.456 0 26.112-1.024 29.696-15.872 3.584-14.336 3.584-20.992 10.24-27.648 0.512-0.512 4.096-4.096 6.144-3.072 0 0 0.512 0 2.56 3.072v43.008h6.144s-0.512-28.672 0-33.28c1.536-9.728 10.752-26.624 9.728-32.768-2.048-12.8-14.336-20.992-16.384-20.48-1.536 0.512-16.384 16.896-20.48 29.184-4.608 11.776-12.288 28.672-13.824 29.184-1.024 0-14.336 2.048-26.112 6.144-10.752 5.12-19.456 9.216-17.408 12.8zM550.912 711.168c-1.024-1.024-8.192-7.68-17.408-11.264-14.336-5.632-34.816-4.608-51.2 7.168-18.432 13.312-21.504 33.792-22.016 37.376 2.048-1.024 6.656-3.584 13.312-3.584s11.264 2.56 13.312 3.584c2.048-1.024 5.12-3.072 10.24-4.096 5.12-1.024 9.216 0 11.264 0.512l-1.024 37.888c1.024-1.536-1.536 2.56-3.072 3.584-2.56 1.536-7.68 0.512-9.216-2.56-1.024-1.536 0-2.56-0.512-5.12-0.512-2.048-2.56-4.608-5.12-5.12-3.072 0-5.12 3.584-5.12 3.584s-1.024 1.536-1.024 3.584c0 4.096 3.584 14.336 12.8 16.896 7.168 2.048 14.336-0.512 18.944-5.12 2.048-2.56 3.584-5.12 4.096-6.656v-41.472c2.048-0.512 5.632-1.536 9.728-1.024 6.144 0.512 10.24 3.072 12.288 4.096 2.048-1.024 6.656-3.584 12.288-3.584 6.656 0 11.264 2.048 13.824 3.072-1.024-1.536 0-8.192-5.632-19.968-3.072-4.608-6.656-8.192-10.752-11.776zM631.296 715.264H686.08c1.536 0 3.072-1.024 3.072-2.56s-0.512-3.584-4.608-3.584h-1.536s-2.048-10.752-18.944-13.312v-4.096c0-1.536-1.024-2.56-2.56-2.56h-4.096c-1.536 0-2.56 1.024-2.56 2.56v3.072c-13.312 0.512-19.968 14.336-19.968 14.336h-2.56c-1.536 0-3.072 1.536-3.072 3.072-1.024 1.536 0.512 3.072 2.048 3.072zM514.048 686.592l-5.12 6.656h10.752zM634.368 785.408h48.128c3.584 0 6.656-3.072 6.656-6.656v-50.176c0-3.072-2.56-5.12-5.12-5.12h-52.736c-2.56 0-5.12 2.048-5.12 5.12v49.152c0.512 3.584 4.096 7.68 8.192 7.68zM567.808 743.936s-0.512 0-0.512-0.512c0 0.512 0.512 0.512 0.512 0.512zM750.592 562.176l-4.096-14.848c-0.512-2.048-2.56-3.584-5.12-3.584h-20.992c-2.048 0-4.096 1.536-4.096 3.584l-4.096 15.36c2.56-2.048 8.704-5.632 17.408-6.144 10.752-1.024 18.432 3.584 20.992 5.632zM711.68 627.712l4.096 14.848c0.512 2.048 2.56 3.584 5.12 3.584h20.992c2.048 0 4.096-1.536 4.096-3.584l4.096-15.36c-2.56 2.048-8.704 5.632-17.408 6.144-10.24 0.512-18.432-4.096-20.992-5.632zM731.136 563.712c-16.896 0-30.72 13.824-30.72 30.72s13.824 30.72 30.72 30.72 30.72-13.824 30.72-30.72-13.824-30.72-30.72-30.72zM843.776 555.52h3.072c1.536 0 2.56-1.024 2.56-2.56v-11.264c0-1.536-1.024-2.56-2.56-2.56h-3.072c-1.536 0-2.56 1.024-2.56 2.56v11.264c0 1.536 1.024 2.56 2.56 2.56zM841.728 639.488h61.952c4.608 0 8.192-3.584 8.192-8.192v-10.24s7.68 0 14.336-5.12c6.144-4.608 8.704-15.36 3.584-24.064-4.096-6.656-13.824-8.704-17.408-9.216v-15.872c0-1.536-1.536-3.072-3.072-3.072h-72.192c-1.536 0-3.072 1.536-3.072 3.072v65.024c0 4.096 3.072 7.68 7.68 7.68z m82.432-39.424c1.024 9.216-12.288 13.312-12.288 13.312v-24.064c3.584 1.024 11.264 3.584 12.288 10.752zM898.048 555.52h3.584c1.536 0 2.56-1.024 2.56-2.56v-10.752c0-1.536-1.024-2.56-2.56-2.56h-3.584c-1.536 0-2.56 1.024-2.56 2.56v10.752c0 1.536 1.024 2.56 2.56 2.56zM870.912 555.52h3.584c1.536 0 2.56-1.024 2.56-2.56v-13.824c0-1.536-1.024-2.56-2.56-2.56h-3.584c-1.536 0-2.56 1.024-2.56 2.56v13.824c0 1.536 1.024 2.56 2.56 2.56zM873.984 450.048c3.072 5.632 10.752 13.824 18.944 18.944 11.264 7.168 20.48 6.144 20.48 6.144s13.824 12.8 18.432 13.824c4.096 1.024 5.632-1.024 5.632-4.608v-13.824s9.728-3.584 14.848-8.704 8.192-8.704 11.264-7.68c3.072 1.024 10.24 11.264 15.872 12.288 5.632 1.024 9.728-2.56 7.68-8.192-2.048-6.144-5.632-11.264-5.632-11.264s6.144-8.192 6.144-13.312c0-5.632-5.632-10.24-10.752-7.168-5.12 2.56-10.752 11.776-14.336 11.776-3.584 0-10.752-9.728-17.408-12.8-6.656-3.072-8.192-4.096-8.192-4.096s1.536-14.848 0-16.896c-1.536-2.048-8.192 0-12.288 3.072-4.096 3.072-10.752 10.24-10.752 10.24s-12.288 0-26.624 9.728c-6.144 4.096-10.752 11.776-13.312 15.872-1.024 1.024-1.024 4.096 0 6.656zM873.472 337.92c23.04 0 41.984-18.944 41.984-41.984 0-23.04-18.944-41.984-41.984-41.984-23.04 0-41.984 18.944-41.984 41.984 0 23.552 18.432 41.984 41.984 41.984zM699.392 274.432c3.584 12.288 14.848 21.504 20.48 26.624s8.192 7.168 8.192 7.168v14.848l-17.92 8.192c-0.512 0-0.512 1.024 0 1.024h43.008c0.512 0 0.512-0.512 0-0.512-2.048-1.024-6.144-3.072-10.752-5.12-6.656-2.56-8.704-4.096-8.704-4.096v-14.848s8.704-7.68 14.848-11.776c6.144-4.608 15.36-16.896 15.36-27.648 0-10.752-4.096-27.136-4.096-27.136H701.44s-4.096 23.552-2.048 33.28zM888.832 249.344c7.68-5.632 7.68-12.8 7.68-12.8s-8.192-2.048-13.824 0.512c-7.68 3.072-8.192 13.824-8.192 13.824s6.656 4.096 14.336-1.536zM851.456 248.32c9.728 7.168 18.944 2.048 18.944 2.048s-1.024-13.824-11.264-18.432c-7.68-3.072-18.432-0.512-18.432-0.512s1.024 9.216 10.752 16.896zM561.664 424.96l-7.68-15.36-7.68 10.24-3.584 28.16 23.552-1.536-7.168 15.872 23.552-8.704-5.12-24.064z" fill="#f40009" p-id="5879"></path><path d="M956.928 9.216H216.064C143.36 9.216 83.968 68.608 83.968 141.312v740.864c0 72.704 59.392 132.096 132.096 132.096h740.864c72.704 0 132.096-59.392 132.096-132.096V141.312c0-72.704-59.392-132.096-132.096-132.096zM380.416 155.648l197.12 138.752-197.12 136.192V155.648z m247.296 240.64l19.968-48.64 33.28 25.6-32.768 25.088h32.768l8.192 25.088h-20.992l-7.168 30.72 26.624 5.632 8.704 24.064-31.744 3.584-7.168 51.2-17.408 11.264-11.264-65.024-20.992-1.536-13.312 55.296-18.432 11.264-2.56-62.464-15.872-1.536-6.144-18.944-7.168 9.216-9.728 75.776-38.912-27.648 25.088-7.168-4.608-36.352-13.824 10.752-11.776-39.424 27.136-4.608-3.072-27.648-8.192-1.536-12.8-23.552 19.456-6.656 18.944-40.96 14.848 39.936 15.872 2.048v13.824l24.064-5.12-17.408-49.664 46.592 19.456-10.752 33.28 22.528-4.608zM174.08 310.272l187.904 136.704L174.08 583.168V310.272z m190.976 423.936L174.08 594.432 365.056 460.8v273.408z m0-303.616L174.08 290.304l190.976-134.656v274.944z m15.36 30.208l187.392 136.704-187.392 136.704V460.8z m6.656 285.184l192.512-135.68 1.024 274.944-193.536-139.264z m205.824 139.264v-274.944l193.024 135.168-193.024 139.776z m11.776-286.72l188.416-138.752 1.024 274.432-189.44-135.68z m189.44-167.936l-199.68-135.68 199.68-139.264v274.944z m12.288 303.616V459.776l193.024 136.192-193.024 138.24z m193.024-151.04L811.008 445.44l188.416-136.192v273.92z m-193.024-152.576V155.648l193.024 135.68-193.024 139.264z" fill="#f40009" p-id="5880"></path><path d="M633.344 424.448l-19.968 4.608-4.608 28.672 27.136-5.12z" fill="#f40009" p-id="5881"></path></svg>