<?xml version="1.0" standalone="no"?><!DOCTYPE svg PUBLIC "-//W3C//DTD SVG 1.1//EN" "http://www.w3.org/Graphics/SVG/1.1/DTD/svg11.dtd"><svg t="1632572852733" class="icon" viewBox="0 0 1039 1024" version="1.1" xmlns="http://www.w3.org/2000/svg" p-id="2147" data-spm-anchor-id="a313x.7781069.0.i5" xmlns:xlink="http://www.w3.org/1999/xlink" width="129.875" height="128"><defs><style type="text/css"></style></defs><path d="M996.039355 950.163496H477.220662c-32.280243 34.957768-56.43152 61.047573-59.526739 64.260603-10.388798 10.710101-21.420201 14.672838-21.420201 0v-64.260603H74.970704a42.840402 42.840402 0 0 1-9.285657-1.071011l-1.424443 1.071011-1.477994-1.970659A42.701171 42.701171 0 0 1 32.130302 907.323093l-32.130302-42.840402V183.630886a47.467166 47.467166 0 0 1 38.556362-45.100233L867.77519 0.713078a31.873259 31.873259 0 0 1 38.556362 32.280244v124.62273H996.039355a42.840402 42.840402 0 0 1 42.840402 42.840402v706.866639a42.840402 42.840402 0 0 1-42.840402 42.840403z m-931.778751-96.390906l16.911248 22.544762a58.305788 58.305788 0 0 0 20.574104 9.58554H396.273722v-91.121536L62.182844 850.313228z m905.003499-610.475733a21.420201 21.420201 0 0 0-21.420201-21.420201h-41.49093v449.438661a47.467166 47.467166 0 0 1-38.556362 45.100233l-206.704941 34.358003-124.56918 135.129339h411.267862a21.420201 21.420201 0 0 0 21.420202-21.420201v-621.185834z" fill="#f8232b" p-id="2148" data-spm-anchor-id="a313x.7781069.0.i2" class=""></path></svg>