<?xml version="1.0" standalone="no"?><!DOCTYPE svg PUBLIC "-//W3C//DTD SVG 1.1//EN" "http://www.w3.org/Graphics/SVG/1.1/DTD/svg11.dtd"><svg t="1632553433231" class="icon" viewBox="0 0 1121 1024" version="1.1" xmlns="http://www.w3.org/2000/svg" p-id="3725" xmlns:xlink="http://www.w3.org/1999/xlink" width="35.03125" height="32"><defs><style type="text/css"></style></defs><path d="M1118.415339 145.958083l-91.292562-4.976133s-34.528264-123.607802-192.99438-134.698314c-158.466116-11.086281-262.152463-4.12562-262.152463-4.125619s117.54843 76.355702 70.440198 212.606942c-35.002182 73.48681-90.378579 133.530446-149.419372 202.536198L102.586182 871.931769c363.426909-5.437355 577.688331-8.158149 642.788496-8.158149 182.563967 0 336.853686-161.546579 330.540429-341.288199-4.341421-123.531636-42.885289-151.441983-56.133818-205.544727-13.244298-54.102744 13.269686-140.381091 98.63405-170.982611z" fill="#31CC79" p-id="3726"></path><path d="M491.401521 418.769455C300.311273 638.976 0 989.336331 0 989.336331c540.265785 144.688661 789.186645-206.471405 828.166347-328.03967 52.257851-162.993719-21.580165-242.527207-63.369521-268.465719-141.692826-87.945521-246.822083-4.684165-273.395305 25.938513z" fill="#93E65C" p-id="3727"></path><path d="M494.054612 413.687537c30.313785-32.70876 133.365421-108.793653 270.822611-23.137322 41.793587 26.040066 115.635835 105.89514 63.373752 269.55319-15.139967 47.417124-61.964694 129.616397-145.242975 203.902942-86.354512 0.592397-280.169785 3.143934-581.454281 7.663074l372.40595-434.637223c6.478281-7.582678 12.905785-15.055339 19.265587-22.447603z" fill="#60DB69" opacity=".86" p-id="3728"></path></svg>