<?xml version="1.0" standalone="no"?><!DOCTYPE svg PUBLIC "-//W3C//DTD SVG 1.1//EN" "http://www.w3.org/Graphics/SVG/1.1/DTD/svg11.dtd"><svg t="1632462332440" class="icon" viewBox="0 0 1024 1024" version="1.1" xmlns="http://www.w3.org/2000/svg" p-id="4467" xmlns:xlink="http://www.w3.org/1999/xlink" width="200" height="200"><defs><style type="text/css"></style></defs><path d="M654.791 38.495h-286.53c-95.005 0-142.412 0-193.612 16.118-55.94 20.48-99.935 64.474-120.225 120.226-16.308 51.2-16.308 98.607-16.308 193.611v286.53c0 95.005 0 142.602 16.118 193.613 20.29 55.75 64.285 99.745 120.036 120.035 51.2 16.119 98.607 16.119 193.611 16.119h286.53c95.005 0 142.413 0 193.613-16.119 55.75-20.29 99.745-64.284 120.225-120.035 16.118-51.2 16.118-98.608 16.118-193.612V368.45c0-95.005 0-142.412-16.118-193.612-20.29-55.752-64.285-99.746-120.225-120.226-50.821-16.118-98.228-16.118-193.233-16.118z m0 0" fill="#EA6F5A" p-id="4468"></path><path d="M235.52 456.818h70.732v370.346H235.52V456.818z m40.012-112.45c17.825 32.995 29.203 65.8 34.512 98.796h77.18c-10.62-42.097-23.894-74.903-39.823-98.797h-71.87z m0 0" fill="#FFFFFF" p-id="4469"></path><path d="M427.804 278.566h85.144v-46.649H358.59c1.706-3.603 4.361-10.05 7.964-19.153 1.707-7.395 3.603-12.705 5.31-16.497H292.03c-12.326 49.303-40.77 85.902-85.144 109.795v46.65c58.595-14.602 100.124-39.254 124.966-73.956H358.4c8.913 23.703 14.222 46.648 15.929 68.645h74.524c-5.12-25.79-12.326-48.734-21.049-68.835z m-34.702 148.1h320.664v301.701c1.707 27.497-10.62 40.202-37.167 38.306h-43.995v54.803h63.906c62.009 1.896 92.16-26.549 90.453-85.144V371.864h-393.86v54.803z m0 0" fill="#FFFFFF" p-id="4470"></path><path d="M643.224 476.16H382.483v277.049H563.39c56.699 1.896 83.437-25.6 79.834-82.3V476.16z m-188.871 49.304h117.001v63.146H454.353v-63.146z m82.488 178.252h-82.488v-68.457h117.001v32.996c1.707 25.41-9.671 37.357-34.513 35.46zM645.88 229.262c0-1.896 0.948-4.55 2.654-8.154l7.965-24.652h-79.834c-12.516 51.2-39.823 89.695-82.49 115.295v43.805c54.993-14.602 96.712-40.202 124.967-76.8h37.167c8.913 23.703 14.222 46.648 15.929 68.645h71.87c-1.707-18.204-8.913-41.15-21.239-68.645h93.108v-49.304H645.88z m0 0" fill="#FFFFFF" p-id="4471"></path></svg>