<?xml version="1.0" encoding="UTF-8"?>
<svg width="1024px" height="1024px" viewBox="0 0 1024 1024" version="1.1" xmlns="http://www.w3.org/2000/svg" xmlns:xlink="http://www.w3.org/1999/xlink">
    <title>黑 1024备份</title>
    <g id="黑-1024备份" stroke="none" stroke-width="1" fill="none" fill-rule="evenodd">
        <path d="M722.082578,112 C788.121003,112 812.068132,118.875971 836.210793,131.787608 C860.353454,144.699244 879.300756,163.646546 892.212392,187.789207 L894.493267,192.186041 C905.932224,214.989156 912,239.881326 912,301.917422 L912,722.082578 L911.924419,733.635162 C911.144379,791.024403 904.341505,813.531323 892.212392,836.210793 C879.300756,860.353454 860.353454,879.300756 836.210793,892.212392 L831.813959,894.493267 C809.010844,905.932224 784.118674,912 722.082578,912 L301.917422,912 L290.364838,911.924419 C232.975597,911.144379 210.468677,904.341505 187.789207,892.212392 C163.646546,879.300756 144.699244,860.353454 131.787608,836.210793 L129.506733,831.813959 C118.436775,809.746428 112.397059,785.722447 112.018919,727.971294 L112,301.917422 C112,235.878997 118.875971,211.931868 131.787608,187.789207 C144.699244,163.646546 163.646546,144.699244 187.789207,131.787608 L192.186041,129.506733 C214.253572,118.436775 238.277553,112.397059 296.028706,112.018919 L722.082578,112 Z" id="路径" fill="#FFFFFF" fill-rule="nonzero"></path>
        <path d="M722.082578,112 C788.121003,112 812.068132,118.875971 836.210793,131.787608 C860.353454,144.699244 879.300756,163.646546 892.212392,187.789207 L894.493267,192.186041 C905.932224,214.989156 912,239.881326 912,301.917422 L912,722.082578 L911.924419,733.635162 C911.144379,791.024403 904.341505,813.531323 892.212392,836.210793 C879.300756,860.353454 860.353454,879.300756 836.210793,892.212392 L831.813959,894.493267 C809.010844,905.932224 784.118674,912 722.082578,912 L301.917422,912 L290.364838,911.924419 C232.975597,911.144379 210.468677,904.341505 187.789207,892.212392 C163.646546,879.300756 144.699244,860.353454 131.787608,836.210793 L129.506733,831.813959 C118.436775,809.746428 112.397059,785.722447 112.018919,727.971294 L112,301.917422 C112,235.878997 118.875971,211.931868 131.787608,187.789207 C144.699244,163.646546 163.646546,144.699244 187.789207,131.787608 L192.186041,129.506733 C214.253572,118.436775 238.277553,112.397059 296.028706,112.018919 L722.082578,112 Z M726.802393,200.897663 L297.197607,200.897663 L284.41635,201.033148 C251.643246,201.645007 240.743093,204.269962 229.709106,210.171003 C221.056975,214.798213 214.798213,221.056975 210.171003,229.709106 C203.561837,242.067172 201.062193,254.257355 200.897663,297.197607 L200.897663,726.802393 L201.033148,739.58365 C201.645007,772.356754 204.269962,783.256907 210.171003,794.290894 C214.798213,802.943025 221.056975,809.201787 229.709106,813.828997 C242.067172,820.438163 254.257355,822.937807 297.197607,823.102337 L722.082578,823.111111 C768.872131,823.111111 781.491469,820.674205 794.290894,813.828997 C802.943025,809.201787 809.201787,802.943025 813.828997,794.290894 C820.438163,781.932828 822.937807,769.742645 823.102337,726.802393 L823.111111,301.917422 C823.111111,255.127869 820.674205,242.508531 813.828997,229.709106 C809.201787,221.056975 802.943025,214.798213 794.290894,210.171003 C781.932828,203.561837 769.742645,201.062193 726.802393,200.897663 Z M345.333333,605.333333 C385.834215,605.333333 418.666667,638.165785 418.666667,678.666667 C418.666667,719.167548 385.834215,752 345.333333,752 C304.832452,752 272,719.167548 272,678.666667 C272,638.165785 304.832452,605.333333 345.333333,605.333333 Z" id="wolai-logo-黑" fill="#000000" fill-rule="nonzero"></path>
    </g>
</svg>