<?xml version="1.0" standalone="no"?><!DOCTYPE svg PUBLIC "-//W3C//DTD SVG 1.1//EN" "http://www.w3.org/Graphics/SVG/1.1/DTD/svg11.dtd"><svg t="1632570849855" class="icon" viewBox="0 0 1024 1024" version="1.1" xmlns="http://www.w3.org/2000/svg" p-id="3610" xmlns:xlink="http://www.w3.org/1999/xlink" width="128" height="128"><defs><style type="text/css"></style></defs><path d="M716.8 0c169.664 0 307.2 137.536 307.2 307.2v409.6c0 169.664-137.536 307.2-307.2 307.2H307.2C137.536 1024 0 886.464 0 716.8V307.2C0 137.536 137.536 0 307.2 0h409.6zM529.6128 320.5248H228.608a4.2368 4.2368 0 0 0-4.1984 4.2752v372.608a4.224 4.224 0 0 0 4.1984 4.2496h80.4096c2.3168 0 4.1984-1.92 4.1984-4.288V404.928c0-2.368 1.8816-4.3008 4.1984-4.3008h172.9024c32.4736 0 58.8032 27.008 58.8032 60.3008v236.4416c0 2.368 1.8816 4.288 4.1856 4.288h79.232a4.224 4.224 0 0 0 4.1728-4.2752V430.3872c0-60.672-47.936-109.8624-107.0848-109.8624zM470.144 468.992h-80.384a4.2496 4.2496 0 0 0-4.1984 4.3008v224.0896c0 2.3808 1.8688 4.288 4.1984 4.288h80.384c1.1136 0 2.176-0.448 2.9568-1.2416a4.3392 4.3392 0 0 0 1.2288-3.0464V473.28a4.352 4.352 0 0 0-1.2288-3.0464 4.1344 4.1344 0 0 0-2.9568-1.2544z m321.4336-148.4416h-80.3584c-2.3296 0-4.224 1.92-4.224 4.3008v372.5312c0 2.3808 1.8944 4.288 4.224 4.288h80.3584c2.3296 0 4.2112-1.92 4.2112-4.288V324.8384a4.352 4.352 0 0 0-1.2288-3.0464 4.1472 4.1472 0 0 0-2.9824-1.2544z" fill="#ff6a00" p-id="3611" data-spm-anchor-id="a313x.7781069.0.i9" class=""></path></svg>