<?xml version="1.0" standalone="no"?><!DOCTYPE svg PUBLIC "-//W3C//DTD SVG 1.1//EN" "http://www.w3.org/Graphics/SVG/1.1/DTD/svg11.dtd"><svg t="1632477082379" class="icon" viewBox="0 0 1024 1024" version="1.1" xmlns="http://www.w3.org/2000/svg" p-id="4287" xmlns:xlink="http://www.w3.org/1999/xlink" width="200" height="200"><defs><style type="text/css"></style></defs><path d="M456.059259 632.983704s2.275556 0 0 0c0-2.275556-2.275556 0-2.275555 0h2.275555z m0 0" fill="#FDFDFD" p-id="4288"></path><path d="M46.08 895.431111c-9.291852-14.032593-4.740741-28.065185-4.740741-42.097778V113.019259c0-60.871111 7.016296-67.887407 67.887408-67.887407h815.217777c58.595556 0 60.871111 2.275556 60.871112 58.595555 0 208.402963-2.275556 416.995556-2.275556 625.398519" fill="#FDFDFD" p-id="4289"></path><path d="M378.69037 466.678519c11.757037 11.757037 23.514074 23.514074 35.081482 32.805925 21.048889 14.032593 46.838519 21.048889 70.352592 21.048889 39.822222 2.275556 79.644444 0 117.191112-11.757037 11.757037-4.740741 25.78963-9.291852 32.805925-18.773333 9.291852-9.291852 14.032593-23.514074 7.016297-35.081482" fill="#FDD000" p-id="4290"></path><path d="M720.782222 567.371852c-84.385185 39.822222-168.580741 30.53037-266.998518 35.081481 0 0 2.275556 30.53037 2.275555 32.805926 21.048889 9.291852 35.081481 16.308148 46.838519 21.048889 2.275556 0 2.275556 0 4.740741 2.275556 16.308148 9.291852 30.53037 16.308148 46.838518 23.514074 44.562963 14.032593 39.822222 11.757037 56.13037 21.048889 60.871111 32.805926 124.207407 63.336296 194.370371 70.352592h86.660741c30.53037-14.032593 58.595556-30.53037 88.936296-44.562963 0-208.402963 2.275556-416.995556 2.275555-625.398518 0-56.13037-2.275556-58.595556-60.871111-58.595556H81.351111c-11.757037 0-25.78963 0-32.805926 9.291852-4.740741 7.016296-7.016296 16.308148-7.016296 25.78963-4.740741 269.463704-4.740741 541.202963 0 810.477037C76.61037 815.597037 97.659259 754.725926 151.703704 707.697778c53.854815-46.838519 152.272593-70.352593 224.90074-74.903704-11.757037-21.048889-44.562963-51.579259-65.611851-65.611852" fill="#fdd000" p-id="4291"></path><path d="M847.265185 780.515556c0 2.465185 0 2.465185 0 0 2.275556 0-2.275556-4.551111 0 0z m0 0" fill="#FDD000" p-id="4292"></path><path d="M430.26963 719.644444c23.514074 30.53037 53.854815 37.546667 74.903703 70.352593-37.546667 11.757037-67.887407 30.53037-103.158518 42.097778 28.065185 32.805926 51.579259 63.336296 77.368889 91.401481 39.822222 14.032593 79.644444 32.805926 119.466666 42.097778 35.081481 9.291852 72.628148 14.032593 110.174815 11.757037 39.822222-2.275556 72.628148-16.308148 107.70963-30.53037 14.032593-4.740741 25.78963-9.291852 39.822222-16.308148 44.562963-23.514074 84.385185-63.336296 107.70963-107.70963 9.291852-18.773333 14.032593-37.546667 14.032592-60.871111-2.275556-2.275556-4.740741-39.822222-2.275555-39.822222-30.53037 14.032593-63.336296 37.546667-95.952593 44.562963-9.291852 2.275556-18.773333 2.275556-28.065185 2.275555-44.562963 0-84.385185-2.275556-126.482963-16.308148-42.097778-14.032593-138.24-63.336296-178.062222-77.368889" fill="#c9141d" p-id="4293"></path><path d="M481.848889 208.971852h2.275555c44.562963-16.308148 95.952593-25.78963 138.24-4.740741 16.308148 7.016296 28.065185 21.048889 44.562963 28.065185 23.514074 11.757037 51.579259 11.757037 77.368889 9.291852 23.514074-2.275556 46.838519-7.016296 60.871111-25.789629 14.032593-18.773333 11.757037-46.838519-2.275555-67.887408-14.032593-18.773333-35.081481-32.805926-58.595556-39.822222-46.838519-18.773333-98.417778-21.048889-147.531852-23.514074-77.368889-2.275556-154.548148-2.275556-227.176296 23.514074-39.822222 14.032593-79.644444 37.546667-105.434074 70.352592-25.78963 32.805926-35.081481 84.385185-14.032593 121.742223 21.048889 39.822222 65.611852 60.871111 107.70963 74.903703 72.628148 25.78963 149.997037 42.097778 227.176296 49.114074 25.78963 2.275556 56.13037 7.016296 60.871112 32.805926 4.740741 14.032593-4.740741 28.065185-14.032593 37.546667-11.757037 9.291852-25.78963 14.032593-39.822222 16.308148-39.822222 9.291852-81.92 11.757037-124.207408 4.740741-21.048889-2.275556-44.562963-7.016296-60.871111-21.048889-14.032593-9.291852-23.514074-23.514074-35.081481-35.081481-18.773333-16.308148-42.097778-23.514074-65.611852-23.514074-18.773333 0-46.838519 4.740741-60.871111 21.048888-11.757037 11.757037-16.308148 30.53037-14.032593 44.562963 4.740741 21.048889 23.514074 35.081481 39.822222 49.114074 28.065185 23.514074 56.13037 46.838519 86.660741 70.352593-84.385185 2.275556-166.305185 39.822222-224.900741 100.693333-58.595556 60.871111-91.401481 145.256296-88.936296 229.641482 0 9.291852 2.275556 18.773333 9.291852 23.514074 9.291852 4.740741 21.048889-2.275556 28.065185-7.016296 114.725926-79.644444 271.739259-98.417778 402.962963-44.562963-25.78963-30.53037-49.114074-60.871111-74.903704-93.677037 35.081481-11.757037 70.352593-25.78963 105.434074-37.546667l-72.628148-72.628148c39.822222-11.757037 74.903704-30.53037 112.450371-42.097778-30.53037-21.048889-65.611852-39.822222-100.693334-53.854815 84.385185 2.275556 173.321481 2.275556 252.965926-23.514074 37.546667-11.757037 74.903704-32.805926 93.677037-67.887407 23.514074-44.562963 9.291852-103.158519-23.514074-140.515556-32.805926-37.546667-81.92-58.595556-131.223703-67.887407-49.114074-9.291852-100.693333-11.757037-149.997038-18.773334-28.065185-4.740741-60.871111-16.308148-63.336296-44.562963-4.551111-20.859259 23.514074-39.632593 49.303704-51.389629z m0 0" fill="#2c2c2c" p-id="4294"></path></svg>