<?xml version="1.0" standalone="no"?><!DOCTYPE svg PUBLIC "-//W3C//DTD SVG 1.1//EN" "http://www.w3.org/Graphics/SVG/1.1/DTD/svg11.dtd"><svg t="1632478051500" class="icon" viewBox="0 0 1024 1024" version="1.1" xmlns="http://www.w3.org/2000/svg" p-id="4938" xmlns:xlink="http://www.w3.org/1999/xlink" width="200" height="200"><defs><style type="text/css"></style></defs><path d="M512 512m-474.074074 0a474.074074 474.074074 0 1 0 948.148148 0 474.074074 474.074074 0 1 0-948.148148 0Z" fill="#d7191a" p-id="4939"></path><path d="M714.334815 274.583704c-135.395556 22.186667-270.601481 45.321481-405.807408 67.697777-43.425185 7.205926-48.734815 13.084444-50.062222 57.268149-0.758519 21.428148 8.722963 31.857778 30.340741 28.823703 26.358519-3.792593 52.527407-8.154074 82.868148-13.084444v300.373333c0 18.962963 1.706667 38.115556 27.685926 35.081482 27.496296-3.223704 54.234074-35.84 54.423704-64.094815 0.18963-53.285926 0-106.571852 0-160.047408v-125.724444c40.201481-6.637037 77.558519-12.894815 119.656296-19.721481 0 46.648889 3.034074 88.936296-0.568889 130.844444-6.637037 75.851852 10.808889 143.54963 51.768889 207.834074 15.17037 23.703704 28.823704 35.84 57.647407 34.133333 40.96-2.654815 45.89037-9.102222 27.685926-45.89037-18.204444-37.167407-46.459259-73.576296-50.82074-112.260741-8.154074-74.903704-2.275556-151.324444-2.275556-228.124444 24.272593-4.361481 46.459259-8.533333 68.835556-12.325926 31.668148-5.499259 45.131852-25.78963 38.494814-63.146667-5.878519-32.805926-30.90963-20.859259-49.872592-17.635555z" fill="#FFFFFF" p-id="4940"></path></svg>