<svg class="mx-auto" width="106" height="106" viewBox="0 0 406 406" fill="none" xmlns="http://www.w3.org/2000/svg">
              <g filter="url(#filter0_d_719_155)">
                <path d="M37.9846 160.295C37.9846 117.031 37.9846 95.3995 46.5378 78.934C53.7454 65.0587 65.0588 53.7454 78.934 46.5377C95.3995 37.9846 117.031 37.9846 160.295 37.9846H244.874C288.138 37.9846 309.77 37.9846 326.235 46.5377C340.111 53.7454 351.424 65.0587 358.632 78.934C367.185 95.3995 367.185 117.031 367.185 160.295V244.874C367.185 288.138 367.185 309.77 358.632 326.235C351.424 340.111 340.111 351.424 326.235 358.632C309.77 367.185 288.138 367.185 244.874 367.185H160.295C117.031 367.185 95.3995 367.185 78.934 358.632C65.0588 351.424 53.7454 340.111 46.5378 326.235C37.9846 309.77 37.9846 288.138 37.9846 244.874V160.295Z" fill="url(#paint0_linear_719_155)"></path>
              </g>
              <mask id="mask0_719_155" style="mask-type: alpha" maskUnits="userSpaceOnUse" x="37" y="37" width="331" height="331">
                <rect x="37.9846" y="37.9846" width="329.2" height="329.2" rx="75.9693" fill="white"></rect>
              </mask>
              <g mask="url(#mask0_719_155)">
                <mask id="mask1_719_155" style="mask-type: alpha" maskUnits="userSpaceOnUse" x="-45" y="29" width="161" height="161">
                  <rect x="-45" y="29" width="160.755" height="160.755" fill="#DE6F8E"></rect>
                </mask>
                <g mask="url(#mask1_719_155)"></g>
                <rect x="-40.6338" y="30.9846" width="491.634" height="344.36" rx="10.8289" fill="#3A3E45"></rect>
                <g filter="url(#filter1_ddddd_719_155)">
                  <g clip-path="url(#clip0_719_155)">
                    <path d="M70 112.05C70 100.977 78.9767 92 90.05 92H204V287H70V112.05Z" fill="#1A07F2"></path>
                    <path d="M70 287H338V410.948C338 416.499 333.499 421 327.948 421H80.0523C74.5006 421 70 416.499 70 410.948V287Z" fill="#686C73"></path>
                    <path d="M204 92H317.95C329.023 92 338 100.977 338 112.05V287H204V92Z" fill="#4065F9"></path>
                    <path d="M100.334 344.014V333.66H97.4391V332.776C98.5114 332.722 99.282 332.521 99.7511 332.173C100.234 331.811 100.535 331.141 100.656 330.162H101.641V344.014H100.334ZM104.519 344.014L109.947 329.639H111.475L116.944 344.014H115.496L113.827 339.491H107.575L105.886 344.014H104.519ZM107.977 338.385H113.425L111.455 333.017L110.731 330.926H110.691C110.436 331.744 110.202 332.441 109.987 333.017L107.977 338.385ZM123.976 343.17C125.209 343.17 126.14 342.64 126.77 341.582C127.4 340.523 127.715 339.035 127.715 337.118C127.715 335.242 127.387 333.761 126.73 332.675C126.087 331.59 125.169 331.047 123.976 331.047C122.77 331.047 121.838 331.583 121.181 332.655C120.538 333.714 120.216 335.202 120.216 337.118C120.216 338.995 120.538 340.476 121.181 341.561C121.838 342.634 122.77 343.17 123.976 343.17ZM123.956 344.296C122.347 344.296 121.094 343.652 120.196 342.366C119.312 341.079 118.869 339.33 118.869 337.118C118.869 334.893 119.325 333.144 120.236 331.871C121.161 330.584 122.408 329.941 123.976 329.941C125.544 329.941 126.784 330.578 127.695 331.851C128.607 333.124 129.062 334.88 129.062 337.118C129.062 339.343 128.613 341.099 127.715 342.386C126.831 343.659 125.578 344.296 123.956 344.296ZM132.796 344.014C132.984 341.642 133.587 339.31 134.606 337.018C135.638 334.713 136.884 332.856 138.345 331.449V331.409H130.685V330.243H139.692V331.368C138.245 332.776 137.018 334.592 136.013 336.817C135.008 339.028 134.405 341.427 134.204 344.014H132.796ZM142.351 344.014V329.639H151.72V330.826H143.698V335.932H150.534V337.098H143.698V344.014H142.351ZM153.885 344.014C153.898 343.518 153.958 343.049 154.065 342.607C154.173 342.165 154.293 341.789 154.427 341.481C154.561 341.159 154.776 340.831 155.071 340.496C155.366 340.147 155.6 339.886 155.774 339.712C155.949 339.524 156.243 339.283 156.659 338.988C157.088 338.693 157.383 338.499 157.544 338.405C157.718 338.298 158.039 338.104 158.509 337.822C159.675 337.125 160.425 336.609 160.76 336.274C161.363 335.671 161.665 334.914 161.665 334.002C161.665 333.091 161.397 332.374 160.861 331.851C160.325 331.328 159.601 331.067 158.69 331.067C157.711 331.067 156.947 331.362 156.398 331.952C155.835 332.568 155.547 333.473 155.533 334.666H154.206C154.206 333.178 154.615 332.025 155.433 331.208C156.264 330.377 157.376 329.961 158.77 329.961C160.043 329.961 161.062 330.343 161.826 331.107C162.603 331.858 162.992 332.809 162.992 333.962C162.992 334.579 162.905 335.121 162.731 335.59C162.57 336.06 162.275 336.495 161.846 336.897C161.43 337.286 161.075 337.581 160.78 337.782C160.499 337.983 160.037 338.271 159.393 338.646C159.326 338.687 159.279 338.72 159.252 338.747C159.226 338.76 159.185 338.78 159.132 338.807C159.078 338.834 159.031 338.861 158.991 338.888C158.468 339.196 158.06 339.451 157.765 339.652C157.47 339.853 157.121 340.121 156.719 340.456C156.331 340.791 156.022 341.153 155.794 341.541C155.58 341.93 155.439 342.352 155.372 342.808H162.811V344.014H153.885Z" fill="white"></path>
                    <path d="M244.424 344.014V340.496H237.99V339.29L244.605 330.102H245.69V339.41H247.821V340.496H245.69V344.014H244.424ZM239.297 339.41H244.424V332.293H244.383L239.297 339.35V339.41ZM255.182 343.17C256.415 343.17 257.346 342.64 257.976 341.582C258.606 340.523 258.921 339.035 258.921 337.118C258.921 335.242 258.593 333.761 257.936 332.675C257.293 331.59 256.375 331.047 255.182 331.047C253.975 331.047 253.044 331.583 252.387 332.655C251.744 333.714 251.422 335.202 251.422 337.118C251.422 338.995 251.744 340.476 252.387 341.561C253.044 342.634 253.975 343.17 255.182 343.17ZM255.162 344.296C253.553 344.296 252.3 343.652 251.402 342.366C250.517 341.079 250.075 339.33 250.075 337.118C250.075 334.893 250.531 333.144 251.442 331.871C252.367 330.584 253.614 329.941 255.182 329.941C256.75 329.941 257.99 330.578 258.901 331.851C259.812 333.124 260.268 334.88 260.268 337.118C260.268 339.343 259.819 341.099 258.921 342.386C258.037 343.659 256.783 344.296 255.162 344.296ZM267.848 344.296C266.574 344.296 265.509 343.907 264.651 343.13C263.418 342.017 262.801 339.987 262.801 337.038C262.801 334.92 263.244 333.211 264.128 331.911C265.026 330.598 266.293 329.941 267.928 329.941C269.081 329.941 269.999 330.276 270.682 330.946C271.366 331.616 271.768 332.474 271.889 333.52H270.582C270.515 332.796 270.247 332.206 269.778 331.75C269.309 331.295 268.699 331.067 267.948 331.067C266.648 331.067 265.676 331.63 265.033 332.756C264.39 333.868 264.075 335.409 264.088 337.38H264.128C264.986 335.892 266.239 335.148 267.888 335.148C269.148 335.148 270.187 335.577 271.004 336.435C271.835 337.279 272.251 338.345 272.251 339.631C272.264 340.945 271.855 342.051 271.024 342.949C270.193 343.847 269.134 344.296 267.848 344.296ZM267.808 343.21C268.746 343.21 269.51 342.882 270.099 342.225C270.689 341.555 270.984 340.704 270.984 339.672C270.984 338.653 270.689 337.829 270.099 337.199C269.51 336.555 268.746 336.234 267.808 336.234C266.829 336.234 266.018 336.562 265.375 337.219C264.745 337.862 264.43 338.693 264.43 339.712C264.43 340.757 264.738 341.602 265.355 342.245C265.985 342.888 266.802 343.21 267.808 343.21ZM279.045 344.296C277.745 344.296 276.666 343.927 275.808 343.19C274.964 342.439 274.528 341.474 274.501 340.295H275.788C276.029 342.171 277.108 343.11 279.025 343.11C280.03 343.11 280.821 342.788 281.397 342.145C281.987 341.488 282.282 340.63 282.282 339.571C282.282 338.526 281.987 337.695 281.397 337.078C280.807 336.462 280.043 336.153 279.105 336.153C277.738 336.153 276.733 336.622 276.09 337.561H274.843L276.069 330.243H282.925V331.409H277.014L276.25 336.113H276.291C277.095 335.376 278.107 335.007 279.326 335.007C280.519 335.007 281.531 335.416 282.362 336.234C283.193 337.051 283.609 338.177 283.609 339.611C283.609 341.005 283.186 342.138 282.342 343.009C281.511 343.867 280.412 344.296 279.045 344.296ZM286.558 344.014V329.639H295.927V330.826H287.905V335.932H294.741V337.098H287.905V344.014H286.558ZM302.595 344.296C301.389 344.296 300.404 343.967 299.64 343.311C298.876 342.64 298.46 341.749 298.393 340.637H299.72C299.787 341.414 300.069 342.031 300.564 342.486C301.074 342.942 301.737 343.17 302.555 343.17C303.573 343.17 304.364 342.868 304.927 342.265C305.852 341.314 306.328 339.538 306.355 336.937H306.314C305.497 338.372 304.244 339.089 302.555 339.089C301.295 339.089 300.249 338.666 299.418 337.822C298.588 336.964 298.172 335.892 298.172 334.605C298.159 333.292 298.581 332.186 299.439 331.288C300.296 330.39 301.375 329.941 302.675 329.941C303.868 329.941 304.894 330.303 305.751 331.027C306.435 331.59 306.917 332.374 307.199 333.379C307.48 334.371 307.621 335.644 307.621 337.199C307.621 339.933 307.018 341.897 305.812 343.089C304.981 343.894 303.909 344.296 302.595 344.296ZM302.655 338.003C303.647 338.003 304.458 337.681 305.088 337.038C305.718 336.395 306.033 335.564 306.033 334.545C306.033 333.5 305.718 332.655 305.088 332.012C304.471 331.355 303.674 331.027 302.696 331.027C301.731 331.027 300.946 331.362 300.343 332.032C299.74 332.689 299.439 333.533 299.439 334.565C299.439 335.584 299.733 336.415 300.323 337.058C300.926 337.688 301.704 338.003 302.655 338.003Z" fill="white"></path>
                    <path d="M97.6402 317.208V302.833H104.777C106.345 302.833 107.639 303.202 108.657 303.939C109.689 304.663 110.206 305.722 110.206 307.116C110.206 308.737 109.421 309.904 107.853 310.614V310.674C108.939 311.09 109.609 311.88 109.864 313.047C109.971 313.502 110.038 314.072 110.065 314.755C110.092 315.426 110.125 315.955 110.165 316.344C110.206 316.732 110.299 316.947 110.447 316.987V317.208H106.305C106.185 317.128 106.104 316.913 106.064 316.565C106.024 316.203 105.984 315.747 105.943 315.198C105.903 314.648 105.843 314.206 105.762 313.871C105.628 313.294 105.414 312.872 105.119 312.604C104.824 312.336 104.382 312.202 103.792 312.202H101.842V317.208H97.6402ZM101.842 306.131V309.207H104.094C105.34 309.207 105.963 308.697 105.963 307.679C105.963 307.196 105.809 306.821 105.501 306.553C105.193 306.271 104.744 306.131 104.154 306.131H101.842ZM120.53 316.002C119.511 317.021 118.157 317.53 116.469 317.53C114.78 317.53 113.419 317.021 112.387 316.002C111.355 314.983 110.839 313.683 110.839 312.102C110.839 310.52 111.355 309.22 112.387 308.201C113.419 307.169 114.78 306.653 116.469 306.653C118.157 306.653 119.511 307.169 120.53 308.201C121.548 309.22 122.058 310.52 122.058 312.102C122.058 313.683 121.548 314.983 120.53 316.002ZM116.428 314.997C117.005 314.997 117.44 314.735 117.735 314.213C118.043 313.69 118.198 312.986 118.198 312.102C118.198 311.217 118.043 310.513 117.735 309.991C117.44 309.468 117.005 309.207 116.428 309.207C115.865 309.207 115.437 309.468 115.142 309.991C114.847 310.5 114.699 311.204 114.699 312.102C114.699 313 114.847 313.71 115.142 314.233C115.437 314.742 115.865 314.997 116.428 314.997ZM123.072 320.606V317.671H124.339C124.754 317.671 125.056 317.61 125.243 317.49C125.431 317.369 125.525 317.175 125.525 316.907C125.525 316.692 125.371 316.203 125.062 315.439L121.785 306.955H125.786L127.053 311.076C127.146 311.385 127.24 311.746 127.334 312.162C127.441 312.577 127.522 312.919 127.575 313.187L127.656 313.569H127.696C127.897 312.604 128.105 311.773 128.319 311.076L129.566 306.955H133.345L129.847 317.208C129.418 318.455 128.882 319.333 128.239 319.842C127.609 320.351 126.764 320.606 125.706 320.606H123.072ZM139.92 317.208C139.759 316.94 139.645 316.565 139.578 316.082H139.538C138.868 317.007 137.836 317.47 136.442 317.47C135.423 317.47 134.599 317.201 133.969 316.665C133.339 316.129 133.024 315.372 133.024 314.394C133.024 313.348 133.359 312.598 134.029 312.142C134.699 311.673 135.604 311.371 136.743 311.237C137.816 311.116 138.539 310.976 138.915 310.815C139.303 310.654 139.498 310.413 139.498 310.091C139.498 309.434 139.136 309.106 138.412 309.106C137.621 309.106 137.172 309.515 137.065 310.332H133.466C133.507 309.26 133.942 308.376 134.773 307.679C135.604 306.982 136.79 306.633 138.332 306.633C139.833 306.633 140.952 306.861 141.689 307.317C142.748 307.973 143.277 308.999 143.277 310.393V315.519C143.277 316.377 143.405 316.887 143.659 317.047V317.208H139.92ZM137.869 315.218C138.352 315.218 138.761 315.077 139.096 314.796C139.431 314.501 139.598 314.065 139.598 313.489V312.584C139.21 312.772 138.72 312.933 138.131 313.067C137.594 313.187 137.219 313.335 137.005 313.509C136.79 313.683 136.683 313.924 136.683 314.233C136.683 314.554 136.797 314.802 137.025 314.977C137.253 315.137 137.534 315.218 137.869 315.218ZM144.717 317.208V302.833H148.617V317.208H144.717ZM153.163 317.208V302.833H160.602C161.942 302.833 163.015 303.142 163.819 303.758C164.73 304.455 165.186 305.4 165.186 306.593C165.186 307.906 164.589 308.825 163.397 309.347V309.408C164.174 309.662 164.777 310.098 165.206 310.714C165.648 311.331 165.869 312.048 165.869 312.866C165.869 314.38 165.32 315.526 164.221 316.303C163.35 316.907 162.19 317.208 160.743 317.208H153.163ZM157.285 313.911H160.28C160.736 313.911 161.105 313.784 161.386 313.529C161.668 313.274 161.808 312.933 161.808 312.504C161.808 312.061 161.661 311.72 161.366 311.478C161.085 311.237 160.716 311.116 160.26 311.116H157.285V313.911ZM157.285 308.422H159.898C160.314 308.422 160.642 308.329 160.883 308.141C161.125 307.94 161.245 307.652 161.245 307.277C161.245 306.915 161.118 306.626 160.863 306.412C160.609 306.198 160.28 306.09 159.878 306.09H157.285V308.422ZM166.745 317.208V302.833H170.646V317.208H166.745ZM182.461 317.208H178.843V315.881H178.782C177.978 316.98 176.913 317.53 175.586 317.53C174.393 317.53 173.481 317.175 172.851 316.464C172.235 315.754 171.927 314.789 171.927 313.569V306.955H175.726V312.665C175.726 313.75 176.182 314.293 177.094 314.293C177.589 314.293 177.971 314.132 178.24 313.811C178.521 313.489 178.662 313.047 178.662 312.484V306.955H182.461V317.208ZM189.013 317.49C187.351 317.49 185.998 316.98 184.952 315.962C183.92 314.943 183.404 313.643 183.404 312.061C183.404 310.493 183.913 309.193 184.932 308.161C185.951 307.129 187.264 306.613 188.873 306.613C190.387 306.613 191.647 307.075 192.652 308C193.885 309.14 194.482 310.808 194.442 313.006H187.124C187.365 314.28 188.035 314.916 189.134 314.916C189.804 314.916 190.28 314.662 190.561 314.152H194.241C194.013 315.117 193.363 315.942 192.29 316.625C191.392 317.201 190.3 317.49 189.013 317.49ZM188.953 309.166C187.948 309.166 187.338 309.776 187.124 310.996H190.662C190.582 310.42 190.387 309.971 190.079 309.649C189.784 309.327 189.409 309.166 188.953 309.166Z" fill="#F1F1F1"></path>
                  </g>
                </g>
              </g>
              <defs>
                <filter id="filter0_d_719_155" x="22.1577" y="28.4885" width="360.854" height="360.854" filterUnits="userSpaceOnUse" color-interpolation-filters="sRGB">
                  <feFlood flood-opacity="0" result="BackgroundImageFix"></feFlood>
                  <feColorMatrix in="SourceAlpha" type="matrix" values="0 0 0 0 0 0 0 0 0 0 0 0 0 0 0 0 0 0 127 0" result="hardAlpha"></feColorMatrix>
                  <feOffset dy="6.33077"></feOffset>
                  <feGaussianBlur stdDeviation="7.91347"></feGaussianBlur>
                  <feColorMatrix type="matrix" values="0 0 0 0 0 0 0 0 0 0 0 0 0 0 0 0 0 0 0.2 0"></feColorMatrix>
                  <feBlend mode="normal" in2="BackgroundImageFix" result="effect1_dropShadow_719_155"></feBlend>
                  <feBlend mode="normal" in="SourceGraphic" in2="effect1_dropShadow_719_155" result="shape"></feBlend>
                </filter>
                <filter id="filter1_ddddd_719_155" x="-7.98133" y="92" width="423.963" height="480.963" filterUnits="userSpaceOnUse" color-interpolation-filters="sRGB">
                  <feFlood flood-opacity="0" result="BackgroundImageFix"></feFlood>
                  <feColorMatrix in="SourceAlpha" type="matrix" values="0 0 0 0 0 0 0 0 0 0 0 0 0 0 0 0 0 0 127 0" result="hardAlpha"></feColorMatrix>
                  <feOffset dy="4.87383"></feOffset>
                  <feGaussianBlur stdDeviation="2.43692"></feGaussianBlur>
                  <feColorMatrix type="matrix" values="0 0 0 0 0 0 0 0 0 0 0 0 0 0 0 0 0 0 0.25 0"></feColorMatrix>
                  <feBlend mode="normal" in2="BackgroundImageFix" result="effect1_dropShadow_719_155"></feBlend>
                  <feColorMatrix in="SourceAlpha" type="matrix" values="0 0 0 0 0 0 0 0 0 0 0 0 0 0 0 0 0 0 127 0" result="hardAlpha"></feColorMatrix>
                  <feOffset dy="9.74767"></feOffset>
                  <feGaussianBlur stdDeviation="4.87383"></feGaussianBlur>
                  <feColorMatrix type="matrix" values="0 0 0 0 0 0 0 0 0 0 0 0 0 0 0 0 0 0 0.25 0"></feColorMatrix>
                  <feBlend mode="normal" in2="effect1_dropShadow_719_155" result="effect2_dropShadow_719_155"></feBlend>
                  <feColorMatrix in="SourceAlpha" type="matrix" values="0 0 0 0 0 0 0 0 0 0 0 0 0 0 0 0 0 0 127 0" result="hardAlpha"></feColorMatrix>
                  <feOffset dy="19.4953"></feOffset>
                  <feGaussianBlur stdDeviation="9.74767"></feGaussianBlur>
                  <feColorMatrix type="matrix" values="0 0 0 0 0 0 0 0 0 0 0 0 0 0 0 0 0 0 0.25 0"></feColorMatrix>
                  <feBlend mode="normal" in2="effect2_dropShadow_719_155" result="effect3_dropShadow_719_155"></feBlend>
                  <feColorMatrix in="SourceAlpha" type="matrix" values="0 0 0 0 0 0 0 0 0 0 0 0 0 0 0 0 0 0 127 0" result="hardAlpha"></feColorMatrix>
                  <feOffset dy="38.9907"></feOffset>
                  <feGaussianBlur stdDeviation="19.4953"></feGaussianBlur>
                  <feColorMatrix type="matrix" values="0 0 0 0 0 0 0 0 0 0 0 0 0 0 0 0 0 0 0.25 0"></feColorMatrix>
                  <feBlend mode="normal" in2="effect3_dropShadow_719_155" result="effect4_dropShadow_719_155"></feBlend>
                  <feColorMatrix in="SourceAlpha" type="matrix" values="0 0 0 0 0 0 0 0 0 0 0 0 0 0 0 0 0 0 127 0" result="hardAlpha"></feColorMatrix>
                  <feOffset dy="77.9813"></feOffset>
                  <feGaussianBlur stdDeviation="38.9907"></feGaussianBlur>
                  <feColorMatrix type="matrix" values="0 0 0 0 0 0 0 0 0 0 0 0 0 0 0 0 0 0 0.25 0"></feColorMatrix>
                  <feBlend mode="normal" in2="effect4_dropShadow_719_155" result="effect5_dropShadow_719_155"></feBlend>
                  <feBlend mode="normal" in="SourceGraphic" in2="effect5_dropShadow_719_155" result="shape"></feBlend>
                </filter>
                <linearGradient id="paint0_linear_719_155" x1="202.585" y1="37.9846" x2="202.585" y2="367.185" gradientUnits="userSpaceOnUse">
                  <stop stop-color="#202428" stop-opacity="0.28"></stop>
                  <stop offset="1" stop-color="#1B1D20"></stop>
                </linearGradient>
                <clipPath id="clip0_719_155">
                  <rect x="70" y="92" width="268" height="325" rx="24.3692" fill="white"></rect>
                </clipPath>
              </defs>
            </svg>