<?xml version="1.0" encoding="UTF-8"?>
<svg width="32px" height="32px" viewBox="0 0 32 32" version="1.1" xmlns="http://www.w3.org/2000/svg" xmlns:xlink="http://www.w3.org/1999/xlink">
    <title>favicon</title>
    <g id="favicon" stroke="none" stroke-width="1" fill="none" fill-rule="evenodd">
        <polygon id="Rectangle" fill="#FFFFFF" points="7 9 17 10 17 25 19 30 11 29 7 25"></polygon>
        <g id="Group-14" transform="translate(-0.000025, 0.000000)">
            <path d="M17.2117346,28.9810726 C21.7481636,28.9810726 25.4388639,25.2903722 25.4388639,20.7539432 L25.4388639,20.5154069 L8.98460524,20.5154069 L8.98460524,20.7539432 C8.98460524,25.2903722 12.6753056,28.9810726 17.2117346,28.9810726" id="Fill-1" fill="#924992"></path>
            <path d="M25.4388639,16.0737363 L8.98460524,16.0737363 L8.98460524,20.7539129 C8.98460524,22.5483356 9.56373458,24.2090044 10.5425106,25.5626953 L23.8809586,25.5626953 C24.8598355,24.2090044 25.4388639,22.5483356 25.4388639,20.7539129 L25.4388639,16.0737363 Z" id="Fill-3" fill="#FF6868"></path>
            <path d="M8.98460524,9.10439874 L8.98460524,19.6068593 L25.4388639,19.6068593 L25.4388639,8.11613375 C22.7664097,8.66608959 20.0338923,8.94318738 17.2622078,8.94318738 C14.4554948,8.94318738 11.6891604,9.66818423 8.98460524,9.10439874" id="Fill-5" fill="#FEED30"></path>
            <g id="Group-9" transform="translate(0.000000, 5.492376)" fill="#111111">
                <path d="M24.1265611,15.261567 C24.1265611,19.797996 20.4358608,23.4886963 15.8994317,23.4886963 C11.3630027,23.4886963 7.6723024,19.797996 7.6723024,15.261567 L7.6723024,4.61205276 C10.3768576,5.17583825 13.143192,5.46030513 15.9499049,5.46030513 C18.7215895,5.46030513 21.4541068,5.18320734 24.1265611,4.6332515 L24.1265611,15.261567 Z M30.0951163,0.0961158535 C25.5998734,1.91395812 20.8407567,2.83569945 15.9499049,2.83569945 C11.0590532,2.83569945 6.29993647,1.91395812 1.80469357,0.0961158535 C1.13279452,-0.175732727 0.367822906,0.14880986 0.0960752721,0.82080986 C-0.175672362,1.49260797 0.148769278,2.25757958 0.820668332,2.52932721 C2.20746959,3.09008431 3.61758947,3.57068999 5.04769672,3.97134614 L5.04769672,15.261567 C5.04769672,21.2451632 9.91573458,26.113302 15.8994317,26.113302 C21.883028,26.113302 26.7511668,21.2451632 26.7511668,15.261567 L26.7511668,3.99930828 C28.2157977,3.59299913 29.6597346,3.10330828 31.0791415,2.52932721 C31.7509396,2.25757958 32.0753813,1.49260797 31.8037346,0.82080986 C31.5319869,0.14880986 30.7668134,-0.175732727 30.0951163,0.0961158535 Z" id="Fill-7"></path>
            </g>
            <path d="M7.01615098,4.03785489 C8.13120461,4.03785489 9.03507843,3.13398107 9.03507843,2.01892744 C9.03507843,0.903873817 8.13120461,0 7.01615098,0 C5.90109735,0 4.99722354,0.903873817 4.99722354,2.01892744 C4.99722354,3.13398107 5.90109735,4.03785489 7.01615098,4.03785489" id="Fill-10" fill="#111111"></path>
            <path d="M24.8836589,4.03785489 C25.9987125,4.03785489 26.9025863,3.13398107 26.9025863,2.01892744 C26.9025863,0.903873817 25.9987125,0 24.8836589,0 C23.7686052,0 22.8647314,0.903873817 22.8647314,2.01892744 C22.8647314,3.13398107 23.7686052,4.03785489 24.8836589,4.03785489" id="Fill-12" fill="#111111"></path>
        </g>
    </g>
</svg>