<svg width="24" height="24" viewBox="0 0 24 24" fill="none" xmlns="http://www.w3.org/2000/svg">
<g filter="url(#filter0_ii_303_1254)">
<path fill-rule="evenodd" clip-rule="evenodd" d="M18.8461 10.0758C18.9256 9.12311 18.7462 7.55996 17.4833 7.23245C16.9836 7.10291 17.1762 6.49342 17.8179 6.6309C18.8394 6.84976 21.1381 7.42045 21.4505 10.0816C22.8741 10.1747 24 11.3589 24 12.8063V20.5614C24 22.0694 22.7777 23.2919 21.2697 23.2919H12.3597C10.8516 23.2919 9.62915 22.0694 9.62915 20.5614V12.8063C9.62915 11.2983 10.8516 10.0758 12.3597 10.0758H18.8461Z" fill="url(#paint0_linear_303_1254)"/>
</g>
<path d="M16.9721 13.1131L15.8383 13.0869C15.847 13.2353 15.8296 13.4446 15.8209 13.6101C15.8034 13.7585 15.786 13.9155 15.7685 14.0812C15.6552 14.0812 15.5418 14.0812 15.4197 14.0812C14.8878 14.0812 14.1203 14.0114 13.8151 13.9591L13.8412 14.9706C14.2511 14.9882 14.9314 15.0231 15.3847 15.0231C15.4808 15.0231 15.568 15.0231 15.6639 15.0231C15.629 15.3806 15.6029 15.7469 15.5854 16.1218C14.3645 16.6974 13.4401 17.866 13.4401 18.9911C13.4401 19.872 13.9806 20.2557 14.6173 20.2557C15.0795 20.2557 15.5418 20.116 15.9691 19.9067C16.004 20.0288 16.0476 20.1509 16.0825 20.2644L17.0853 19.9592C17.0157 19.7499 16.9459 19.5318 16.8849 19.3137C17.5476 18.7644 18.2454 17.8486 18.7163 16.6625C19.318 16.8981 19.6232 17.3603 19.6232 17.8835C19.6232 18.7382 18.943 19.5928 17.2599 19.7759L17.8354 20.6917C19.9807 20.369 20.7046 19.1742 20.7046 17.9358C20.7046 16.9241 20.0332 16.1306 19.0215 15.7992C19.0738 15.6335 19.1436 15.4504 19.1785 15.3543L18.1146 15.1016C18.1057 15.2324 18.071 15.4504 18.0361 15.6248C17.9838 15.6248 17.9313 15.6248 17.879 15.6248C17.4517 15.6248 16.9981 15.6858 16.5797 15.7817C16.5884 15.5201 16.6144 15.2498 16.6407 14.9882C17.7133 14.9446 18.882 14.8398 19.7367 14.6829L19.7278 13.6713C18.7686 13.898 17.8267 14.0114 16.7628 14.055C16.7888 13.8806 16.8237 13.7236 16.85 13.5754C16.8849 13.4446 16.9198 13.2875 16.9721 13.1131ZM14.4691 18.7644C14.4691 18.2673 14.9051 17.6044 15.5593 17.1597C15.5767 17.7614 15.6465 18.3631 15.7424 18.9039C15.4283 19.087 15.1144 19.1917 14.8702 19.1917C14.5912 19.1917 14.4691 19.0434 14.4691 18.7644ZM16.5448 16.7324V16.7061C16.8849 16.6016 17.286 16.523 17.7482 16.5144C17.4517 17.2207 17.0593 17.7527 16.6493 18.18C16.5797 17.744 16.5448 17.2643 16.5448 16.7324Z" fill="white"/>
<g filter="url(#filter1_iii_303_1254)">
<path fill-rule="evenodd" clip-rule="evenodd" d="M2.73048 0C1.22248 0 0 1.22248 0 2.73048V11.1329C0 12.5763 1.11978 13.758 2.53795 13.8568C3.08413 16.2072 5.2571 16.7445 6.25894 16.9591C6.93205 17.1033 7.13404 16.464 6.61 16.3282C5.49604 16.0391 5.18562 14.8339 5.16464 13.8634H12.3443C13.8523 13.8634 15.0748 12.6409 15.0748 11.1329V2.73048C15.0748 1.22248 13.8523 0 12.3443 0H2.73048Z" fill="white" fill-opacity="0.55"/>
</g>
<path d="M11.1457 11.222H9.7463L9.0546 9.2648H6.03037L5.36546 11.222H3.97131L6.85077 3.53271H8.28782L11.1457 11.222ZM8.71678 8.22456L7.64972 5.15743C7.61755 5.05733 7.58359 4.89648 7.54784 4.67484H7.52639C7.49421 4.8786 7.45848 5.03946 7.41916 5.15743L6.36282 8.22456H8.71678Z" fill="url(#paint1_linear_303_1254)"/>
<defs>
<filter id="filter0_ii_303_1254" x="9.62915" y="6.61084" width="14.3708" height="20.1222" filterUnits="userSpaceOnUse" color-interpolation-filters="sRGB">
<feFlood flood-opacity="0" result="BackgroundImageFix"/>
<feBlend mode="normal" in="SourceGraphic" in2="BackgroundImageFix" result="shape"/>
<feColorMatrix in="SourceAlpha" type="matrix" values="0 0 0 0 0 0 0 0 0 0 0 0 0 0 0 0 0 0 127 0" result="hardAlpha"/>
<feOffset dy="3.44103"/>
<feGaussianBlur stdDeviation="3.44103"/>
<feComposite in2="hardAlpha" operator="arithmetic" k2="-1" k3="1"/>
<feColorMatrix type="matrix" values="0 0 0 0 0 0 0 0 0 0 0 0 0 0 0 0 0 0 0.25 0"/>
<feBlend mode="normal" in2="shape" result="effect1_innerShadow_303_1254"/>
<feColorMatrix in="SourceAlpha" type="matrix" values="0 0 0 0 0 0 0 0 0 0 0 0 0 0 0 0 0 0 127 0" result="hardAlpha"/>
<feOffset/>
<feGaussianBlur stdDeviation="3.42649"/>
<feComposite in2="hardAlpha" operator="arithmetic" k2="-1" k3="1"/>
<feColorMatrix type="matrix" values="0 0 0 0 0 0 0 0 0 0 0 0 0 0 0 0 0 0 0.07 0"/>
<feBlend mode="normal" in2="effect1_innerShadow_303_1254" result="effect2_innerShadow_303_1254"/>
</filter>
<filter id="filter1_iii_303_1254" x="-0.860258" y="0" width="15.9351" height="19.561" filterUnits="userSpaceOnUse" color-interpolation-filters="sRGB">
<feFlood flood-opacity="0" result="BackgroundImageFix"/>
<feBlend mode="normal" in="SourceGraphic" in2="BackgroundImageFix" result="shape"/>
<feColorMatrix in="SourceAlpha" type="matrix" values="0 0 0 0 0 0 0 0 0 0 0 0 0 0 0 0 0 0 127 0" result="hardAlpha"/>
<feOffset dx="-0.860258" dy="2.58077"/>
<feGaussianBlur stdDeviation="2.58077"/>
<feComposite in2="hardAlpha" operator="arithmetic" k2="-1" k3="1"/>
<feColorMatrix type="matrix" values="0 0 0 0 0.0447222 0 0 0 0 0.2576 0 0 0 0 0.670833 0 0 0 0.23 0"/>
<feBlend mode="normal" in2="shape" result="effect1_innerShadow_303_1254"/>
<feColorMatrix in="SourceAlpha" type="matrix" values="0 0 0 0 0 0 0 0 0 0 0 0 0 0 0 0 0 0 127 0" result="hardAlpha"/>
<feOffset/>
<feGaussianBlur stdDeviation="6.45193"/>
<feComposite in2="hardAlpha" operator="arithmetic" k2="-1" k3="1"/>
<feColorMatrix type="matrix" values="0 0 0 0 0 0 0 0 0 0 0 0 0 0 0 0 0 0 0.25 0"/>
<feBlend mode="normal" in2="effect1_innerShadow_303_1254" result="effect2_innerShadow_303_1254"/>
<feColorMatrix in="SourceAlpha" type="matrix" values="0 0 0 0 0 0 0 0 0 0 0 0 0 0 0 0 0 0 127 0" result="hardAlpha"/>
<feOffset/>
<feGaussianBlur stdDeviation="3.0109"/>
<feComposite in2="hardAlpha" operator="arithmetic" k2="-1" k3="1"/>
<feColorMatrix type="matrix" values="0 0 0 0 1 0 0 0 0 1 0 0 0 0 1 0 0 0 0.75 0"/>
<feBlend mode="normal" in2="effect2_innerShadow_303_1254" result="effect3_innerShadow_303_1254"/>
</filter>
<linearGradient id="paint0_linear_303_1254" x1="15.0182" y1="8.7922" x2="24.6019" y2="23.4972" gradientUnits="userSpaceOnUse">
<stop stop-color="#81D1FF"/>
<stop offset="1" stop-color="#4667DD"/>
</linearGradient>
<linearGradient id="paint1_linear_303_1254" x1="9.74939" y1="12.2128" x2="3.10203" y2="0.247467" gradientUnits="userSpaceOnUse">
<stop stop-color="#66BAF7"/>
<stop offset="1" stop-color="#2B39BB"/>
</linearGradient>
</defs>
</svg>
