<svg viewBox="0 0 27 27" class="fill-current w-[27px] h-[27px] md:w-[32px] md:h-[32px]" xmlns="http://www.w3.org/2000/svg"><path fill-rule="evenodd" clip-rule="evenodd" d="M3.30612 9.21598C3.30612 6.10423 5.77387 3.58163 8.81798 3.58163H10.331C10.928 3.58163 11.4118 4.07626 11.4118 4.6864V5.68072C11.4118 6.29086 10.928 6.78549 10.331 6.78549H8.81798C7.56452 6.78549 6.22416 7.93467 6.22416 9.21598V10.7627C6.22416 11.3728 5.74031 11.8674 5.14342 11.8674H4.38689C3.79 11.8674 3.30612 11.3728 3.30612 10.7627V9.21598Z"></path><path fill-rule="evenodd" clip-rule="evenodd" d="M23.1921 17.8331C23.1921 20.945 20.7243 23.4676 17.6802 23.4676H16.1671C15.5703 23.4676 15.0863 22.973 15.0863 22.3628V21.3685C15.0863 20.7585 15.5703 20.2637 16.1671 20.2637H17.6802C18.9338 20.2637 20.2741 19.1145 20.2741 17.8331V16.2864C20.2741 15.6764 20.7579 15.1818 21.3547 15.1818H22.1112C22.7083 15.1818 23.1921 15.6764 23.1921 16.2864V17.8331Z"></path><path fill-rule="evenodd" clip-rule="evenodd" d="M17.6802 3.58163C20.7243 3.58163 23.1921 6.10423 23.1921 9.21598V10.7627C23.1921 11.3728 22.7083 11.8674 22.1112 11.8674H21.1387C20.5416 11.8674 20.0579 11.3728 20.0579 10.7627V9.21598C20.0579 7.93467 18.9338 6.56453 17.6802 6.56453H16.1671C15.5703 6.56453 15.0863 6.06991 15.0863 5.45976V4.6864C15.0863 4.07626 15.5703 3.58163 16.1671 3.58163H17.6802Z"></path><path fill-rule="evenodd" clip-rule="evenodd" d="M8.81798 23.4676C5.77387 23.4676 3.30612 20.945 3.30612 17.8331V16.2864C3.30612 15.6764 3.79 15.1818 4.38689 15.1818H5.35955C5.95645 15.1818 6.44033 15.6764 6.44033 16.2864V17.8331C6.44033 19.1145 7.56452 20.4846 8.81798 20.4846H10.331C10.928 20.4846 11.4118 20.9792 11.4118 21.5894V22.3628C11.4118 22.973 10.928 23.4676 10.331 23.4676H8.81798Z"></path></svg>
