<?xml version="1.0" standalone="no"?><!DOCTYPE svg PUBLIC "-//W3C//DTD SVG 1.1//EN" "http://www.w3.org/Graphics/SVG/1.1/DTD/svg11.dtd"><svg t="1650887692233" class="icon" viewBox="0 0 1024 1024" version="1.1" xmlns="http://www.w3.org/2000/svg" p-id="1712" width="20" height="20" xmlns:xlink="http://www.w3.org/1999/xlink"><defs><style type="text/css">@font-face { font-family: element-icons; src: url("chrome-extension://moombeodfomdpjnpocobemoiaemednkg/fonts/element-icons.woff") format("woff"), url("chrome-extension://moombeodfomdpjnpocobemoiaemednkg/fonts/element-icons.ttf ") format("truetype"); }
</style></defs><path d="M296 596.99999998a36 36 0 0 1 0-72h252a36 36 0 0 1 0 72H296z m426.384 0a36 36 0 1 1 36-36 36 36 0 0 1-36 36zM728 776.99999998H296a36 36 0 0 1 0-72h432a36 36 0 0 1 0 72z m198 36a36 36 0 0 1-36-36V452.99999998a108 108 0 0 0-108-108H242a108 108 0 0 0-108 108v396a108 108 0 0 0 108 108h648a36 36 0 0 1 0 72H242A180 180 0 0 1 62 848.99999998V452.99999998A180 180 0 0 1 242 272.99999998h540a180 180 0 0 1 180 180v324a36 36 0 0 1-36 36z" p-id="1713" fill="#81b29a"></path></svg>