<?xml version="1.0" standalone="no"?><!DOCTYPE svg PUBLIC "-//W3C//DTD SVG 1.1//EN" "http://www.w3.org/Graphics/SVG/1.1/DTD/svg11.dtd"><svg t="1634965521274" class="icon" viewBox="0 0 1024 1024" version="1.1" xmlns="http://www.w3.org/2000/svg" p-id="3909" xmlns:xlink="http://www.w3.org/1999/xlink" width="20" height="20"><defs><style type="text/css"></style></defs><path d="M958.6 609.5c-2-84-59.4-161.2-144.4-192-46-126.4-165.9-211.5-300-213-132.5-1.4-253.2 79.2-303 202.5-87.4 32.2-146 112.6-147 199.5-1.2 104.1 80.7 199.5 193.9 216h512.1c111.4-17 190.8-111.4 188.4-213zM756.8 737.1v0.2H263.2v-0.4c-65.5-5.3-117-60.2-117-127 0-70.2 56.7-127.1 126.8-127.5 23.4-110.2 121.3-192.9 238.5-192.9S726.6 372.2 750 482.4c70.1 0.4 126.8 57.3 126.8 127.5-0.1 67.8-53.1 123.3-120 127.2z" p-id="3910" data-spm-anchor-id="a313x.7781069.0.i6" class="" fill="#528bc8"></path></svg>