<?xml version="1.0" standalone="no"?><!DOCTYPE svg PUBLIC "-//W3C//DTD SVG 1.1//EN" "http://www.w3.org/Graphics/SVG/1.1/DTD/svg11.dtd"><svg t="1651230423752" class="icon" viewBox="0 0 1024 1024" version="1.1" xmlns="http://www.w3.org/2000/svg" p-id="4160" width="16" height="16" xmlns:xlink="http://www.w3.org/1999/xlink"><defs><style type="text/css">@font-face { font-family: element-icons; src: url("chrome-extension://moombeodfomdpjnpocobemoiaemednkg/fonts/element-icons.woff") format("woff"), url("chrome-extension://moombeodfomdpjnpocobemoiaemednkg/fonts/element-icons.ttf ") format("truetype"); }
</style></defs><path d="M0 128a51.2 51.2 0 0 1 51.2-51.2h350.24a51.2 51.2 0 0 1 47.0592 31.0336L473.6 166.4h499.2a51.2 51.2 0 0 1 51.2 51.2v537.6a51.2 51.2 0 0 1-51.2 51.2H51.2a51.2 51.2 0 0 1-51.2-51.2V128z" fill="#457b9d" p-id="4161" data-spm-anchor-id="a313x.7781069.0.i46" class=""></path><path d="M89.6 249.6m51.2 0l742.4 0q51.2 0 51.2 51.2l0 460.8q0 51.2-51.2 51.2l-742.4 0q-51.2 0-51.2-51.2l0-460.8q0-51.2 51.2-51.2Z" fill="#FFFFFF" p-id="4162"></path><path d="M0 332.8m51.2 0l921.6 0q51.2 0 51.2 51.2l0 512q0 51.2-51.2 51.2l-921.6 0q-51.2 0-51.2-51.2l0-512q0-51.2 51.2-51.2Z" fill="#749cb6" p-id="4163" data-spm-anchor-id="a313x.7781069.0.i45" class=""></path></svg>