<?xml version="1.0" standalone="no"?><!DOCTYPE svg PUBLIC "-//W3C//DTD SVG 1.1//EN" "http://www.w3.org/Graphics/SVG/1.1/DTD/svg11.dtd"><svg t="1651206880639" class="icon" viewBox="0 0 1194 1024" version="1.1" xmlns="http://www.w3.org/2000/svg" p-id="6045" xmlns:xlink="http://www.w3.org/1999/xlink" width="23.3203125" height="20"><defs><style type="text/css">@font-face { font-family: element-icons; src: url("chrome-extension://moombeodfomdpjnpocobemoiaemednkg/fonts/element-icons.woff") format("woff"), url("chrome-extension://moombeodfomdpjnpocobemoiaemednkg/fonts/element-icons.ttf ") format("truetype"); }
</style></defs><path d="M136.99999971 62h300.00000058a150.00000029 150.00000029 0 0 1 149.99999942 150.00000029v675a74.99999971 74.99999971 0 0 1-74.99999971 74.99999971H136.99999971a74.99999971 74.99999971 0 0 1-74.99999971-74.99999971V136.99999971a74.99999971 74.99999971 0 0 1 74.99999971-74.99999971z" fill="#8a8a8a" p-id="6046" data-spm-anchor-id="a313x.7781069.0.i23" class=""></path><path d="M62 174.5h974.99999971a74.99999971 74.99999971 0 0 1 75.00000058 74.99999971v637.50000058a74.99999971 74.99999971 0 0 1-75.00000058 74.99999971H136.99999971a74.99999971 74.99999971 0 0 1-74.99999971-74.99999971V174.5z" fill="#bfbfbf" p-id="6047" data-spm-anchor-id="a313x.7781069.0.i22" class=""></path><path d="M343.25 624.5A56.25 56.25 0 1 1 287 680.75 56.25 56.25 0 0 1 343.25 624.5z m506.25 18.74999971a37.50000029 37.50000029 0 0 1 0 75.00000058h-299.99999971a37.50000029 37.50000029 0 0 1 0-75.00000058zM343.25 399.5A56.25 56.25 0 1 1 287 455.75 56.25 56.25 0 0 1 343.25 399.5z m506.25 18.74999971a37.50000029 37.50000029 0 0 1 0 75.00000058h-299.99999971a37.50000029 37.50000029 0 0 1 0-75.00000058z" fill="#e6e6e6" p-id="6048" data-spm-anchor-id="a313x.7781069.0.i21" class=""></path></svg>