<svg width="48px" height="48px" viewBox="0 0 48 48" version="1.1" xmlns="http://www.w3.org/2000/svg" xmlns:xlink="http://www.w3.org/1999/xlink" class="navigation-logo">
    <defs>
        <ellipse id="path-1" cx="24.0034504" cy="24" rx="24.0034504" ry="24"></ellipse>
        <linearGradient x1="50%" y1="32.7868852%" x2="50%" y2="83.6065574%" id="linearGradient-3">
            <stop stop-color="#FFFFFF" offset="0%"></stop>
            <stop stop-color="#F2F2F2" offset="100%"></stop>
        </linearGradient>
        <path d="M36.4731588,54.1000025 C32.1372057,53.8032112 20.3108863,53.0117794 12.3384586,49.3912148 C5.89109393,46.4632359 2.63600006,40.5350121 2.63600006,40.5350121 C2.63600006,40.5350121 4.90456161,29.8098131 6.59236116,25.5510862 C8.27598837,21.3028873 12.7547143,15.0303309 12.7547143,15.0303309 C12.7547143,15.0303309 12.2709698,10.1779824 14.3143534,10.1779824 C16.8491107,10.1779824 19.2033412,12.722764 19.2033412,12.722764 C19.2033412,12.722764 26.8910907,11.6736603 29.4367595,14.6837345 C32.3184106,18.0910841 38.8505708,19.9718349 38.8505708,19.9718349 C38.8505708,19.9718349 41.188477,19.2870699 40.2251575,22.951569 C39.2618379,26.6160682 36.0237119,29.8373991 29.5359385,29.8421559 C27.2195011,29.8438542 26.4954309,31.2599202 26.6176816,33.105413 C26.8733604,36.965135 30.6960205,42.8773535 30.6960205,42.8773535 C30.6960205,42.8773535 38.3119065,54.2258627 36.4731588,54.1000025 Z" id="path-4"></path>
        <filter x="-50%" y="-50%" width="200%" height="200%" filterUnits="objectBoundingBox" id="filter-5">
            <feOffset dx="0" dy="0" in="SourceAlpha" result="shadowOffsetInner1"></feOffset>
            <feComposite in="shadowOffsetInner1" in2="SourceAlpha" operator="arithmetic" k2="-1" k3="1" result="shadowInnerInner1"></feComposite>
            <feColorMatrix values="0 0 0 0 1   0 0 0 0 1   0 0 0 0 1  0 0 0 0.5 0" type="matrix" in="shadowInnerInner1"></feColorMatrix>
        </filter>
        <linearGradient x1="49.9999851%" y1="-37.8720182%" x2="50%" y2="100%" id="linearGradient-6">
            <stop stop-color="#FFFFFF" offset="0%"></stop>
            <stop stop-color="#EBEBEB" offset="26.4742419%"></stop>
            <stop stop-color="#CBCBCB" offset="100%"></stop>
        </linearGradient>
        <path d="M34.0731588,44.1000025 C30.5848924,43.8612344 16.2824932,43.6845712 9.49658538,40.7488808 C1.02612008,37.0844244 0.236000061,30.5350121 0.236000061,30.5350121 C0.236000061,30.5350121 2.50456161,19.8098131 4.19236116,15.5510862 C5.87598837,11.3028873 10.3547143,5.03033089 10.3547143,5.03033089 C10.3547143,5.03033089 9.87096977,0.177982367 11.9143534,0.177982367 C14.4491107,0.177982367 16.8033412,2.72276403 16.8033412,2.72276403 C16.8033412,2.72276403 24.4910907,1.67366034 27.0367595,4.68373452 C29.9184106,8.09108414 36.4505708,9.9718349 36.4505708,9.9718349 C36.4505708,9.9718349 38.788477,9.28706986 37.8251575,12.951569 C36.8618379,16.6160682 33.6237119,19.8373991 27.1359385,19.8421559 C24.8195011,19.8438542 24.0954309,21.2599202 24.2176816,23.105413 C24.4733604,26.965135 28.2960205,32.8773535 28.2960205,32.8773535 C28.2960205,32.8773535 35.9119065,44.2258627 34.0731588,44.1000025 Z" id="path-7"></path>
    </defs>
    <g id="logo-page-1" stroke="none" stroke-width="1" fill="none" fill-rule="evenodd">
        <g id="header" transform="translate(-449.000000, -31.000000)">
            <g id="navigation" transform="translate(449.000000, 31.000000)">
                <g id="icon">
                    <mask id="mask-2" fill="white">
                        <use xlink:href="#path-1"></use>
                    </mask>
                    <g id="Oval-mask-copy"></g>
                    <ellipse id="logo-mask-1" fill="#DD4C4F" mask="url(#mask-2)" cx="24.0034504" cy="24" rx="24.0034504" ry="24"></ellipse>
                    <ellipse id="logo-mask-2" stroke="#BB3933" stroke-width="1.19391079" mask="url(#mask-2)" cx="24.0034504" cy="24" rx="24.0034504" ry="24"></ellipse>
                    <g id="Bear-fill" mask="url(#mask-2)">
                        <use fill="url(#linearGradient-3)" fill-rule="evenodd" xlink:href="#path-4"></use>
                        <use fill="black" fill-opacity="1" filter="url(#filter-5)" xlink:href="#path-4"></use>
                    </g>
                    <path d="M22.6629743,39.5574958 C22.1411973,34.5697551 19.6738552,32.0161804 18.59531,30.3923918 C15.9836784,26.4604863 15.9836784,23.6020011 15.9836784,23.6020011 C15.9836784,23.6020011 18.1428514,27.2148598 20.287058,28.5010839 C22.4312646,29.7873079 28.9756693,29.8836734 28.9756693,29.8836734 C28.9756693,29.8836734 26.8362656,29.9873115 26.6428647,32.4272132 C26.613741,32.7946317 26.6486605,34.7587758 27.8799033,37.5661883 C29.1944653,40.5635804 34.1489321,48.239529 34.1489321,48.239529 C34.1489321,48.239529 30.3403034,52.355518 29.1721212,52.6981753 C27.7312001,53.120834 21.988077,48.4517272 21.988077,48.4517272 C21.988077,48.4517272 23.0190187,42.9609753 22.6629743,39.5574958 Z" id="Soft-Neck-+-Ear" fill="url(#linearGradient-6)" mask="url(#mask-2)"></path>
                    <g id="Mask-+-Border-2" mask="url(#mask-2)">
                        <g transform="translate(2.400000, 10.000000)">
                            <mask id="mask-8" fill="white">
                                <use xlink:href="#path-7"></use>
                            </mask>
                            <g id="bear-logo-mask-2" stroke="none" fill="none"></g>
                            <ellipse id="Border-2" stroke="#BABABA" stroke-width="1.19391079" fill="none" mask="url(#mask-8)" cx="21.6034504" cy="14" rx="24.0034504" ry="24"></ellipse>
                        </g>
                    </g>
                </g>
            </g>
        </g>
    </g>
</svg>