<?xml version="1.0" encoding="UTF-8"?>
<svg width="1024px" height="1024px" viewBox="0 0 1024 1024" version="1.1" xmlns="http://www.w3.org/2000/svg" xmlns:xlink="http://www.w3.org/1999/xlink">
    <title>icon1024直角</title>
    <defs>
        <linearGradient x1="50%" y1="0%" x2="50%" y2="100%" id="linearGradient-1">
            <stop stop-color="#26CCFF" offset="0%"></stop>
            <stop stop-color="#1171FF" offset="100%"></stop>
        </linearGradient>
        <linearGradient x1="157.850043%" y1="63.5653724%" x2="-17.6781519%" y2="42.6994897%" id="linearGradient-2">
            <stop stop-color="#89EBF7" offset="0%"></stop>
            <stop stop-color="#51E0EC" offset="100%"></stop>
        </linearGradient>
    </defs>
    <g id="城通网盘logo" stroke="none" stroke-width="1" fill="none" fill-rule="evenodd">
        <g id="icon1024直角">
            <polygon id="形状结合" fill="#FFFFFF" points="7.87238634e-15 1.18085795e-14 1024 5.30970057e-15 1024 1024 3.14895454e-14 1024"></polygon>
            <g id="编组" transform="translate(108.000000, 184.000000)">
                <path d="M221.009227,247.837738 C242.4353,247.824209 259.815535,265.182503 259.829067,286.608577 L259.829075,286.633079 L259.829075,286.633079 C259.829075,308.185576 243.000074,325.987903 221.481601,327.198451 C199.737876,328.421649 187.370413,329.278753 184.379213,329.769762 C125.183814,339.486762 80.0888889,390.593863 80.0888889,452.10592 C80.0888889,520.26464 135.455767,575.64831 204.023026,576.103099 L206.015889,576.09873 L206.994183,576.093269 C259.659033,575.461701 298.806403,551.112601 338.481557,487.293334 L430.206885,487.290592 C411.510813,523.32231 392.67351,552.544403 372.634879,576.10003 L604.513706,576.098803 L604.513706,576.098803 C672.950514,575.320702 728.088889,520.047696 728.088889,452.104056 C728.088889,383.67749 672.163393,328.104056 603.049939,328.104056 C540.559276,328.104056 500.522589,352.013787 463.77951,419.020081 L374.593889,419.02173 L374.78694,418.600814 C375.708325,416.571028 376.633876,414.560842 377.563709,412.57018 C377.605401,412.479986 377.647751,412.387088 377.690106,412.294143 C377.851539,411.939891 378.017494,411.589128 378.187872,411.24189 C431.604257,297.616211 499.18119,248.104056 603.049939,248.104056 C716.233475,248.104056 808.088889,339.381223 808.088889,452.104056 C808.088889,564.82724 716.233116,656.10712 603.049939,656.10712 L603.001718,656.106827 C602.798814,656.105263 602.001388,656.097441 600.60944,656.083362 L208.329145,656.083265 C207.181267,656.098373 206.029532,656.10592 204.873914,656.10592 L201.691889,656.07973 L201.468975,656.078005 C201.243252,656.074345 201.017984,656.068815 200.793185,656.06143 C89.6175775,653.900665 0.0888888889,563.455488 0.0888888889,452.10592 C0.0888888889,339.863289 91.0594398,248.861715 203.471703,248.110603 C206.270311,247.93431 212.116152,247.843355 221.009227,247.837738 Z" id="形状结合" fill="url(#linearGradient-1)" transform="translate(404.088889, 451.972425) scale(-1, 1) translate(-404.088889, -451.972425) "></path>
                <path d="M402.313389,1.47792889e-12 C533.645319,1.47792889e-12 641.87897,96.9283012 656.606584,224.279107 C639.173305,220.171103 620.996891,218 602.313389,218 C592.746574,218 583.312713,218.569244 574.04383,219.675709 C560.546055,136.121746 489.874439,80 402.313389,80 C333.089266,80 271.193551,120.31261 242.558504,182.022737 C236.228727,195.663759 231.685978,205.162631 229.041167,219.083575 C221.562377,218.365626 213.980581,218 206.313389,218 C186.154547,218 166.586039,220.527522 147.90748,225.282952 C150.982203,197.982569 158.449078,173.221941 169.990564,148.349393 C211.616971,58.6421589 301.655754,1.47792889e-12 402.313389,1.47792889e-12 Z" id="形状结合备份" fill="url(#linearGradient-2)" fill-rule="nonzero"></path>
            </g>
        </g>
    </g>
</svg>