<?xml version="1.0" standalone="no"?><!DOCTYPE svg PUBLIC "-//W3C//DTD SVG 1.1//EN" "http://www.w3.org/Graphics/SVG/1.1/DTD/svg11.dtd"><svg t="1632554091870" class="icon" viewBox="0 0 1024 1024" version="1.1" xmlns="http://www.w3.org/2000/svg" p-id="1806" xmlns:xlink="http://www.w3.org/1999/xlink" width="32" height="32"><defs><style type="text/css"></style></defs><path d="M480.9216 46.08c-74.0864 32.512-198.6048 100.0448-298.752 231.3216-212.0704 277.9648-135.1168 606.1056-121.9584 658.2784 35.2256 15.5136 321.792 136.5504 579.1744-5.9392 146.7392-81.2032 220.9792-213.0944 243.8656-255.0272 57.088-104.3968 73.7792-201.3184 79.2576-260.9664a1052.16 1052.16 0 0 1-115.8144-71.168c-49.7664-35.1744-51.6096-42.9568-97.536-77.1072-91.8528-68.2496-121.7024-64.7168-182.8864-118.6304C544.1024 127.3856 512 95.232 480.9216 46.08z" fill="#CC9966" p-id="1807"></path><path d="M813.056 124.9792c18.3808-27.5456 37.5296-43.1104 50.1248-51.6096 9.3184-6.2976 11.8272-6.6048 100.2496-29.4912 14.2848-3.6864 39.0144-10.1376 43.8784 0 3.0208 6.2464 0 22.1184 0 22.1184s-7.6288 21.3504-12.544 29.4912c-13.824 23.0912-45.5168 6.7584-87.7568 22.1184-18.2784 6.656-46.2336 16.8448-50.1248 36.864-7.5776 39.0656 87.04 60.928 112.7936 154.88 7.7824 28.4672 7.168 55.9104 6.2464 95.8464-1.1264 48.5888-8.6528 89.5488-12.544 110.6432-0.6656 3.6352-1.2288 6.5024-1.7408 9.0624-2.3552 11.2128-4.2496 19.4048-4.5056 20.4288-1.8432 7.7824-6.656 37.7344-18.7904 125.3888 2.3552-12.1856 4.9664-33.5872 0-58.9824-3.1232-15.7696-8.192-28.16-12.544-36.864-73.4208-94.5152-139.8784-161.8432-188.0064-206.4896-19.1488-17.7664-37.1712-33.9968-169.216-147.5072C510.208 170.6496 461.6192 129.024 427.52 99.84c-6.0416-3.9424-18.0224-10.4448-34.3552-11.7248-26.0096-1.9968-44.8 10.8032-50.1248 14.7456 27.392-21.3504 147.8656-110.1312 300.8-73.728 81.5104 19.4048 138.8544 66.4064 169.216 95.8464z" fill="#996633" p-id="1808"></path></svg>