<?xml version="1.0" standalone="no"?><!DOCTYPE svg PUBLIC "-//W3C//DTD SVG 1.1//EN" "http://www.w3.org/Graphics/SVG/1.1/DTD/svg11.dtd"><svg t="1632481954526" class="icon" viewBox="0 0 1024 1024" version="1.1" xmlns="http://www.w3.org/2000/svg" p-id="9243" xmlns:xlink="http://www.w3.org/1999/xlink" width="200" height="200"><defs><style type="text/css"></style></defs><path d="M851.40363594 172.59636406c-187.46181844-187.46181844-491.34545437-187.46181844-678.80727188 0-187.46181844 187.46181844-187.46181844 491.34545437 0 678.80727188 187.46181844 187.46181844 491.34545437 187.46181844 678.80727188 0 187.46181844-187.46181844 187.46181844-491.34545437 0-678.80727188zM387.33090875 728.08727281a47.08363594 47.08363594 0 1 1-66.63272719-66.50181843 47.08363594 47.08363594 0 0 1 66.63272719 66.50181843z m205.52727281 1.39636313a38.74909125 38.74909125 0 0 1-76.62545437-11.52h-0.04363594a6.54545437 6.54545437 0 0 0-0.04363688 0.30545531v-0.34909125c0.30545438-2.61818156 2.05090875-20.72727281-2.96727281-44.98909125a174.24 174.24 0 0 0-48.56727281-89.28 172.10181844 172.10181844 0 0 0-88.8-48.30545438 156.69818156 156.69818156 0 0 0-42.45818156-2.92363593 38.66181844 38.66181844 0 0 1-35.38909125-65.32363688 38.61818156 38.61818156 0 0 1 21.12-10.8218175v-0.2181825c4.45090875-0.74181844 111.14181844-16.45090875 200.33454562 72.74181844 89.01818156 89.01818156 74.18181844 196.14545438 73.44 200.72727281z m175.2 7.59272812a38.74909125 38.74909125 0 0 1-65.67272719 21.3818175 39.49090875 39.49090875 0 0 1-11.65090875-33.73090875c0.08727281-0.34909125 5.10545437-37.48363594-5.06181843-88.97454562-13.30909125-67.37454562-45.29454563-126.89454563-94.95272719-176.90181844-50.00727281-49.70181844-109.52727281-81.64363594-176.94545438-94.95272719-51.49090875-10.16727281-88.58181844-5.19272719-89.01818156-5.14909031h0.21818156-0.04363687a39.92727281 39.92727281 0 0 1-44.68363594-32.90181844 38.83636406 38.83636406 0 0 1 32.20363594-44.37818156c1.92-0.30545438 47.86909125-7.33090875 111.27272719 4.36363594a411.75272719 411.75272719 0 0 1 106.25454562 34.95272718 425.76 425.76 0 0 1 114.63272719 82.25454563l0.91636406 0.96 0.96 0.87272719a425.89090875 425.89090875 0 0 1 82.25454563 114.72c16.40727281 33.6 28.14545437 69.29454562 34.99636312 106.21090875 11.65090875 63.40363594 4.66909125 109.35272719 4.32 111.27272812z" fill="#1296db" p-id="9244"></path></svg>