<?xml version="1.0" standalone="no"?><!DOCTYPE svg PUBLIC "-//W3C//DTD SVG 1.1//EN" "http://www.w3.org/Graphics/SVG/1.1/DTD/svg11.dtd"><svg t="1635834450924" class="icon" viewBox="0 0 1362 1024" version="1.1" xmlns="http://www.w3.org/2000/svg" p-id="2846" xmlns:xlink="http://www.w3.org/1999/xlink" width="26.6015625" height="20"><defs><style type="text/css"></style></defs><path d="M396.699 596.955c0 0 0 0 0 0 0 14.475 9.773 26.211 21.827 26.211 12.057 0 21.827-11.737 21.827-26.211 0 0 0 0 0 0 0 0 0 0 0 0 0-14.475-9.773-26.211-21.827-26.211-12.057 0-21.827 11.737-21.827 26.211s0 0 0 0zM915.141 596.955c0 0 0 0 0 0 0 14.475 9.773 26.211 21.827 26.211 12.057 0 21.827-11.737 21.827-26.211 0 0 0 0 0 0 0 0 0 0 0 0 0-14.475-9.773-26.211-21.827-26.211-12.057 0-21.827 11.737-21.827 26.211s0 0 0 0zM1251.226 428.593c-35.806 0-67.188 22.704-84.729 56.775-59.689-129.436-183.865-249.357-337.327-298.738-82.806-33.039-140.954-96.454-148.142-170.567-7.187 74.114-65.335 137.527-148.142 170.567-153.462 49.385-277.639 169.299-337.327 298.738-17.541-34.070-48.923-56.775-84.729-56.775-54.99 0-99.567 53.524-99.567 119.562 0 66.030 44.576 119.562 99.567 119.562 16.724 0 32.475-4.972 46.313-13.726 4.735 214.402 237.349 353.577 523.893 353.951 286.535-0.371 519.157-139.542 523.893-353.951 13.839 8.753 29.593 13.726 46.313 13.726 54.99 0 99.567-53.524 99.567-119.562-0.007-66.030-44.593-119.562-99.578-119.562zM156.086 585.521c-4.658 17.214-25.392 24.543-46.313 16.384s-34.105-28.731-29.444-45.945c4.658-17.214 25.392-24.543 46.313-16.384s34.105 28.737 29.444 45.945zM681.023 948.257c-229.82-0.356-415.935-108.67-415.935-263.725 0-3.247 0.119-6.465 0.274-9.678 0.053-1.056 0.108-2.114 0.18-3.171 0.142-2.191 0.339-4.37 0.558-6.549 0.292-2.918 0.638-5.826 1.062-8.719 0.042-0.287 0.076-0.575 0.119-0.858 4.626-30.474 16.471-76.976 34.358-103.783 42.977-62.164 119.634-103.578 207.083-103.578 67.324 0 128.206 24.588 172.301 64.238 44.094-39.651 104.974-64.238 172.301-64.238 87.453 0 164.108 41.42 207.083 103.578 17.889 26.801 29.734 73.307 34.358 103.783 0.042 0.287 0.076 0.575 0.119 0.858 0.429 2.892 0.771 5.804 1.062 8.719 0.215 2.179 0.411 4.352 0.558 6.549 0.071 1.056 0.125 2.114 0.18 3.171 0.157 3.211 0.274 6.43 0.274 9.678 0 155.051-186.117 263.359-415.935 263.725zM1252.272 601.902c-20.921 8.16-41.658 0.831-46.313-16.384s8.527-37.781 29.444-45.945c20.921-8.16 41.658-0.831 46.313 16.384 4.658 17.214-8.527 37.781-29.444 45.945z" p-id="2847"></path></svg>