<?xml version="1.0" ?><!DOCTYPE svg  PUBLIC '-//W3C//DTD SVG 1.1//EN'  'http://www.w3.org/Graphics/SVG/1.1/DTD/svg11.dtd'><svg enable-background="new 0 0 128 128" id="Social_Icons" version="1.1" viewBox="0 0 128 128" xml:space="preserve" xmlns="http://www.w3.org/2000/svg" xmlns:xlink="http://www.w3.org/1999/xlink"><g id="_x34__stroke"><g id="Youtube_1_"><rect clip-rule="evenodd" fill="none" fill-rule="evenodd" height="128" width="128"/><path clip-rule="evenodd" d="M126.72,38.224c0,0-1.252-8.883-5.088-12.794    c-4.868-5.136-10.324-5.16-12.824-5.458c-17.912-1.305-44.78-1.305-44.78-1.305h-0.056c0,0-26.868,0-44.78,1.305    c-2.504,0.298-7.956,0.322-12.828,5.458C2.528,29.342,1.28,38.224,1.28,38.224S0,48.658,0,59.087v9.781    c0,10.433,1.28,20.863,1.28,20.863s1.248,8.883,5.084,12.794c4.872,5.136,11.268,4.975,14.116,5.511    c10.24,0.991,43.52,1.297,43.52,1.297s26.896-0.04,44.808-1.345c2.5-0.302,7.956-0.326,12.824-5.462    c3.836-3.912,5.088-12.794,5.088-12.794S128,79.302,128,68.868v-9.781C128,48.658,126.72,38.224,126.72,38.224z M50.784,80.72    L50.78,44.501l34.584,18.172L50.784,80.72z" fill="#CE1312" fill-rule="evenodd" id="Youtube"/></g></g></svg>