<?xml version="1.0" standalone="no"?><!DOCTYPE svg PUBLIC "-//W3C//DTD SVG 1.1//EN" "http://www.w3.org/Graphics/SVG/1.1/DTD/svg11.dtd"><svg t="1671684404348" class="icon" viewBox="0 0 1024 1024" version="1.1" xmlns="http://www.w3.org/2000/svg" p-id="2231" xmlns:xlink="http://www.w3.org/1999/xlink" width="20" height="20"><path d="M684.95 383.494c3.192 6.843 4.104 14.595 3.192 22.806 0.911-9.123 0-16.874-3.191-22.806z" p-id="2232"></path><path d="M1020.566 113.192C1020.566 50.677 969.89 0 907.374 0h-792.34C52.519 0 1.842 50.677 1.842 113.192v792.341c0 62.515 50.677 113.192 113.192 113.192h792.341c62.514 0 113.191-50.677 113.191-113.193v-792.34zM521.18 656.28c0.456-14.144 6.385-29.652 18.246-46.526 10.494-16.425 25.548-32.848 40.603-50.636 23.264-26.916 80.742-89.41 100.358-128.181 3.651-7.299 5.93-14.144 6.843-20.071 2.28-34.67-41.97-48.355-107.658-66.601l-12.778 7.754 24.634 20.072c-110.85 19.615-177.452 40.139-258.197 68.422l11.405 28.74-40.599 39.686c6.84 1.368 77.546 25.09 150.536-26.002l0.46-0.451c0.45-0.46 0.912-0.913 0.912-0.913-2.284-3.65-6.843-7.543-13.234-12.56 21.9 1.364 35.13 12.052 32.85 40.35h-9.581c0.455 0-0.743-13.44-2.567-18.459-56.568 41.966-121.997 47.23-178.203 27.616v49.266c-29.273 9.58-75.894 39.687-75.894 68.423 1.828 14.144 8.362 19.159 15.201 22.812 62.04 35.122 229.761-12.773 229.301-12.773-60.216 31.015-120.054 55.648-208.553 59.3-117.237-2.285-134.157-80.288-79.87-161.486 52.46-82.11 135.01-155.097 266.847-201.624 38.323-13.686 94.422-28.739 148.706-30.107 78.007 0 153.73 23.264 148.712 98.534-3.655 57.93-84.855 137.3-128.645 195.693-19.161 25.087-22.355 42.421 10.034 40.143 114.504-7.301 219.881-46.988 317.044-88.496-66.602 44.248-404.634 212.573-406.914 98.075z" p-id="2233" data-spm-anchor-id="a313x.7781069.0.i2" class="" fill="#ff7300"></path></svg>