<svg xmlns="http://www.w3.org/2000/svg" xmlns:xlink="http://www.w3.org/1999/xlink" width="32" height="32" viewBox="0 0 32 32" fill="none"><defs><rect id="path_0" x="0" y="0" width="18" height="18" /></defs><g opacity="1" transform="translate(0 0)  rotate(0 16 15.999999999999998)"><path id="矩形 1" fill-rule="evenodd" transform="translate(0 0)  rotate(0 16 15.999999999999998)" opacity="1" d="M0,32L32,32L32,0L0,0L0,32Z " /><g opacity="1" transform="translate(7 7)  rotate(0 9 9)"><mask id="bg-mask-0" fill="white"><use xlink:href="#path_0"></use></mask><g mask="url(#bg-mask-0)" ><path id="分组 1" fill-rule="evenodd" style="fill:#1C1919" transform="translate(2.8799999999999946 0)  rotate(0 5.390812498535158 6.4799999999999995)" opacity="1" d="M6.65725 7.244L6.65725 6.774C6.06725 6.774 5.47725 6.814 4.96725 6.934C4.02725 7.214 3.28725 7.804 3.28725 9.064C3.28725 10.044 3.79725 10.714 4.65725 10.714C4.77725 10.714 4.88725 10.674 4.96725 10.674C5.47725 10.554 5.94725 10.204 6.22725 9.654C6.68725 8.864 6.65725 8.154 6.65725 7.244Z M7.08 11.3C7.51 11.9 7.63 12.17 8.37 12.8C8.57 12.88 8.77 12.88 8.92 12.76C9.5 12.27 10.08 11.77 10.64 11.27C10.84 11.11 10.8 10.87 10.68 10.68C10.25 10.12 9.82 9.65 9.82 8.59L9.82 5.04C9.82 3.54 9.94 2.17 8.84 1.14C7.94 0.32 6.53 0 5.44 0L4.97 0C2.97 0.12 0.86 0.98 0.39 3.47C0.31 3.78 0.55 3.9 0.71 3.94L2.9 4.21C3.13 4.17 3.25 3.98 3.29 3.78C3.48 2.91 4.19 2.48 4.97 2.4L5.13 2.4C5.6 2.4 6.11 2.6 6.38 2.99C6.69 3.47 6.65 4.1 6.65 4.65L6.65 4.96L6.65 4.96C6.14 5 5.56 5.04 4.97 5.12C4.07 5.24 3.17 5.4 2.43 5.75C0.98 6.34 0 7.6 0 9.45C0 11.78 1.49 12.96 3.37 12.96C3.99 12.96 4.5 12.88 4.97 12.76C5.72 12.53 6.34 12.09 7.08 11.3Z " /><g opacity="1" transform="translate(0.0052498700325296355 12.959992002016168)  rotate(0 8.625000064983734 2.5200039989919087)"><path id="路径 3" fill-rule="evenodd" style="fill:#FF9B00" transform="translate(13.585500135826841 0)  rotate(0 1.8322499970703126 1.7970181346629581)" opacity="1" d="M2.3,0C1.98,0 1.66,0.03 1.35,0.1L1.35,0.08L1.02,0.19L1.01,0.19L0.82,0.25L0.82,0.26C0.6,0.35 0.4,0.46 0.22,0.6C0.1,0.68 0.01,0.8 0,0.97C0,1.07 0.05,1.17 0.13,1.24C0.21,1.31 0.33,1.34 0.43,1.32L0.45,1.32L0.46,1.32C0.63,1.28 0.86,1.26 1.14,1.22C1.38,1.2 1.63,1.18 1.85,1.18C1.98,1.17 2.11,1.18 2.23,1.21C2.28,1.21 2.31,1.23 2.35,1.25C2.36,1.28 2.36,1.31 2.36,1.34C2.36,1.52 2.29,1.86 2.18,2.19C2.08,2.52 1.95,2.85 1.87,3.06C1.85,3.12 1.83,3.17 1.83,3.23C1.83,3.33 1.87,3.42 1.94,3.49C2.01,3.56 2.1,3.6 2.2,3.59L2.2,3.59C2.32,3.59 2.43,3.55 2.52,3.48C3.36,2.72 3.65,1.52 3.66,0.85L3.66,0.74L3.66,0.74C3.65,0.56 3.62,0.42 3.54,0.31L3.53,0.3L3.52,0.29C3.45,0.21 3.38,0.17 3.3,0.14C3.06,0.05 2.72,0 2.3,0Z " /><path id="路径 4" fill-rule="evenodd" style="fill:#FF9B00" transform="translate(0 0.6495079921244429)  rotate(0 7.639500064983731 2.1952500029296873)" opacity="1" d="M14.09,1.36L13.92,1.43L13.92,1.43C12.07,2.17 10.12,2.61 8.32,2.65C8.26,2.65 8.19,2.65 8.13,2.65C5.3,2.65 2.99,1.35 0.66,0.07C0.58,0.02 0.5,0 0.41,0C0.31,0 0.2,0.04 0.12,0.11C0.04,0.19 0,0.29 0,0.4C0,0.54 0.07,0.67 0.18,0.75C2.37,2.64 4.76,4.39 7.99,4.39C8.05,4.39 8.11,4.39 8.18,4.39C10.22,4.34 12.54,3.65 14.34,2.53L14.35,2.52C14.59,2.38 14.82,2.23 15.05,2.05C15.19,1.95 15.27,1.79 15.28,1.62C15.27,1.33 15.02,1.13 14.75,1.13C14.66,1.13 14.58,1.15 14.5,1.19C14.4,1.22 14.31,1.27 14.22,1.3L14.09,1.36Z " /></g></g></g></g></svg>