<?xml version="1.0" standalone="no"?><!DOCTYPE svg PUBLIC "-//W3C//DTD SVG 1.1//EN" "http://www.w3.org/Graphics/SVG/1.1/DTD/svg11.dtd"><svg t="1671629126922" class="icon" viewBox="0 0 1024 1024" version="1.1" xmlns="http://www.w3.org/2000/svg" p-id="5188" xmlns:xlink="http://www.w3.org/1999/xlink" width="20" height="20"><path d="M81.92 0h860.16a81.92 81.92 0 0 1 81.92 81.92v860.16a81.92 81.92 0 0 1-81.92 81.92H81.92a81.92 81.92 0 0 1-81.92-81.92V81.92a81.92 81.92 0 0 1 81.92-81.92z" fill="#c81522" p-id="5189" data-spm-anchor-id="a313x.7781069.0.i25" class=""></path><path d="M384 239.0016h-75.776v329.5232a258.8672 258.8672 0 0 1-7.9872 78.6432 61.44 61.44 0 0 1-25.6 37.2736 132.3008 132.3008 0 0 1-50.5856 24.3712L154.624 716.8v68.1984h6.3488l97.4848-12.9024a225.28 225.28 0 0 0 72.4992-35.84c35.4304-31.3344 54.0672-78.6432 54.0672-141.9264zM870.4 512a325.4272 325.4272 0 0 0-20.48-118.9888A224.0512 224.0512 0 0 0 792.576 307.2c-51.6096-44.8512-125.952-67.584-223.4368-67.584h-111.2064v545.3824h111.2064c97.4848 0 171.8272-23.7568 223.4368-69.632a198.656 198.656 0 0 0 58.1632-85.1968A317.8496 317.8496 0 0 0 870.4 512z m-126.976-155.4432a139.264 139.264 0 0 1 39.3216 63.6928 266.24 266.24 0 0 1 14.7456 91.7504 252.3136 252.3136 0 0 1-14.7456 89.4976 133.12 133.12 0 0 1-39.3216 63.6928C706.56 700.416 650.8544 716.8 577.9456 716.8h-48.128V305.152h48.128c72.9088 0 128.6144 17.408 165.4784 52.224z" fill="#FFFFFF" p-id="5190" data-spm-anchor-id="a313x.7781069.0.i26" class=""></path></svg>