<svg width="128" height="128" viewBox="0 0 128 128" fill="none" xmlns="http://www.w3.org/2000/svg">
<g clip-path="url(#clip0_348_80)">
 
<path d="M76.4872 49.0319L71.695 51.0288L78.3653 56.7825L74.8898 58.177L75.9838 60.7203L80.0014 59.0955L80.6403 60.3335L76.4872 61.9708L77.5255 64.4866L82.1179 62.6896L83.2698 65.6012L87.797 63.6205L86.5506 60.8926L91.1452 59.0955L90.1447 56.4598L85.712 58.4566L85.113 57.0588L89.5654 55.0848L88.7071 52.6661L85.712 54.0238L86.5506 45.0785L81.6786 47.2749L81.1994 53.7043L76.4872 49.0319Z" fill="white"/>
<path d="M36.5496 60.4582L31.7574 62.455L38.4277 68.2088L34.9522 69.6033L36.0462 72.1465L40.0638 70.5218L40.7027 71.7598L36.5496 73.3971L37.5878 75.9129L42.1803 74.1159L43.3321 77.0275L47.8593 75.0468L46.613 72.3188L51.2076 70.5218L50.2071 67.8861L45.7744 69.8828L45.1754 68.4851L49.6278 66.5111L48.7695 64.0923L45.7744 65.4501L46.613 56.5048L41.741 58.7011L41.2618 65.1306L36.5496 60.4582Z" fill="white"/>
<path fill-rule="evenodd" clip-rule="evenodd" d="M33.0664 38.3565L73.1138 26.9874L74.0349 12.9951C98.6821 27.9939 117.501 39.6091 119.393 55.1017C121.715 74.1228 102.654 84.8882 69.3264 94.3175V100.166C83.3805 104.102 83.2141 114.288 83.0392 124.992C83.0197 126.186 83.0001 127.386 83.0001 128.585H46.9008C46.4131 120.077 47.8879 104.016 63.1548 100.166V95.7622C40.61 101.303 6.6877 107.964 8.45037 71.9748C9.47649 51.0242 23.5148 28.9383 25.7908 26.9874L33.0664 38.3565ZM99.7231 54.9202C99.7231 64.7848 91.7262 72.7817 81.8616 72.7817C71.9969 72.7817 64 64.7848 64 54.9202C64 45.0555 71.9969 37.0586 81.8616 37.0586C91.7262 37.0586 99.7231 45.0555 99.7231 54.9202ZM59.7855 66.3464C59.7855 76.2111 51.7886 84.208 41.9239 84.208C32.0593 84.208 24.0624 76.2111 24.0624 66.3464C24.0624 56.4818 32.0593 48.4849 41.9239 48.4849C51.7886 48.4849 59.7855 56.4818 59.7855 66.3464Z" fill="white"/>
</g>
<defs>
<clipPath id="clip0_348_80">
<rect width="128" height="128" fill="white"/>
</clipPath>
</defs>
</svg>
