<svg xmlns="http://www.w3.org/2000/svg" xmlns:xlink="http://www.w3.org/1999/xlink" width="30" height="30" viewBox="0 0 30 30" fill="none"><defs><rect id="path_0" x="0" y="0" width="30" height="30" /><rect id="path_1" x="0" y="0" width="26" height="26" /></defs><g opacity="1" transform="translate(0 0)  rotate(0 15 15)"><mask id="bg-mask" fill="white"><use xlink:href="#path_0"></use></mask><g mask="url(#bg-mask)" ><path id="矩形 1" fill-rule="evenodd"  transform="translate(0 0)  rotate(0 15 15)" opacity="1" d="M0,30L30,30L30,0L0,0L0,30Z " /><g opacity="1" transform="translate(2 2)  rotate(0 13 13)"><mask id="bg-mask" fill="white"><use xlink:href="#path_1"></use></mask><g mask="url(#bg-mask)" ><path id="分组 5" fill-rule="evenodd" style="fill:#000000" transform="translate(0 0)  rotate(0 13 13)" opacity="1" d="M0 13C0 20.15 5.85 26 13 26C20.15 26 26 20.15 26 13C26 5.85 20.15 0 13 0C5.85 0 0 5.85 0 13Z M0 13C0 20.15 5.85 26 13 26C20.15 26 26 20.15 26 13C26 5.85 20.15 0 13 0C5.85 0 0 5.85 0 13Z " /><path id="分组 6" fill-rule="evenodd" style="fill:#000000" transform="translate(4.875 4.875)  rotate(0 8.125 8.125)" opacity="1" d="M0 8.13C0 12.68 3.57 16.25 8.13 16.25C12.68 16.25 16.25 12.68 16.25 8.13C16.25 3.58 12.68 0 8.13 0C3.58 0 0 3.57 0 8.13Z M0 8.13C0 12.68 3.58 16.25 8.13 16.25C12.68 16.25 16.25 12.68 16.25 8.13C16.25 3.57 12.68 0 8.13 0C3.58 0 0 3.58 0 8.13Z " /><path id="分组 7" fill-rule="evenodd" style="fill:#000000" transform="translate(7.3125 7.3125)  rotate(0 5.6875 5.6875)" opacity="1" d="M0 5.69C0 8.78 2.6 11.38 5.69 11.38C8.78 11.38 11.38 8.78 11.38 5.69C11.38 2.6 8.78 0 5.69 0C2.6 0 0 2.6 0 5.69Z M0 5.69C0 8.78 2.6 11.38 5.69 11.38C8.78 11.38 11.38 8.78 11.38 5.69C11.38 2.6 8.78 0 5.69 0C2.6 0 0 2.6 0 5.69Z " /><path id="分组 8" fill-rule="evenodd" style="fill:#FFFFFF" transform="translate(2.4375 3.5750000000000006)  rotate(0 10.562499999999998 9.424999999999995)" opacity="1" d="M0 3.41C0.65 3.9 1.14 4.39 1.79 4.88C2.76 5.53 3.9 6.34 4.88 7.15L4.88 0C4.71 0.16 4.39 0.32 4.22 0.49C2.76 1.46 1.46 2.44 0 3.41Z M3.73528 3.415C3.57528 3.085 3.89528 2.925 3.73528 2.605L3.73528 2.275L3.57528 2.275C3.57528 2.435 3.41528 2.605 3.24528 2.605C3.08528 2.605 2.92528 2.435 2.76528 2.275L2.76528 2.765C2.76528 2.925 2.92528 3.255 2.76528 3.415C2.59528 3.575 2.43528 3.905 2.43528 4.225C2.43528 4.385 2.27528 4.555 2.43528 4.555L2.76528 4.555C2.92528 4.555 2.92528 4.715 3.08528 4.715L3.73528 4.715C3.89528 4.715 3.89528 4.715 3.89528 4.555L4.22528 4.555C4.38528 4.385 4.38528 4.225 4.22528 4.225C4.06528 3.905 3.89528 3.575 3.73528 3.415Z M5.2 7.15C6.82 6.01 8.29 5.04 9.91 3.9C10.07 3.74 10.24 3.74 10.24 3.58L7.15 1.3C6.5 0.98 5.85 0.49 5.2 0L5.2 7.15Z M6.0175 3.255L6.1775 3.085L6.1775 4.555L7.7975 4.555L7.7975 3.085L7.9575 3.245C8.1275 3.085 8.2875 2.925 8.2875 2.765C8.1275 2.595 7.7975 2.435 7.4775 2.275C7.4775 2.435 7.3075 2.605 6.9875 2.605C6.8275 2.605 6.6575 2.435 6.6575 2.275L5.6875 2.765C5.8475 2.925 6.0175 3.085 6.0175 3.255Z M15.765 6.99L15.765 0C14.135 1.14 12.345 2.44 10.725 3.58C12.515 4.71 14.135 6.01 15.765 6.99Z M13.6453 4.555L14.7853 4.555C14.6253 4.385 14.4653 4.385 14.2953 4.385C14.2953 4.225 14.2953 4.065 14.4653 3.905C14.6253 3.735 14.9453 3.575 15.1153 3.255C15.2753 2.925 15.1153 2.605 15.1153 2.275L13.4853 2.275C13.4853 2.605 13.3253 2.925 13.4853 3.255C13.6453 3.575 13.9753 3.735 14.1353 4.065C14.2953 4.225 14.1353 4.385 14.2953 4.555C13.9753 4.385 13.8153 4.555 13.6453 4.555Z M16.0875 6.99C17.7175 5.85 19.3375 4.55 20.9675 3.41C20.7975 3.41 20.6375 3.25 20.4775 3.09C19.4975 2.44 18.3675 1.62 17.3875 0.98C16.8975 0.65 16.5775 0.33 16.0875 0L16.0875 6.99Z M17.3825 2.44L17.7125 2.44C17.7125 2.27 17.5525 2.11 17.5525 2.11C17.5525 1.95 17.2225 1.95 17.0625 1.95C17.0625 2.11 17.2225 2.44 17.3825 2.44Z M17.875 2.4425L18.195 2.4425C18.365 2.2725 18.365 2.2725 18.365 2.1125L18.035 2.1125C17.875 2.2725 17.875 2.2725 17.875 2.4425Z M16.8981 3.73773C16.8981 4.22773 17.5481 4.70773 18.0381 4.70773C18.3581 4.70773 18.5281 4.54773 18.8481 4.38773C19.1781 4.05773 19.1781 3.57773 19.0081 3.24773C18.6881 2.75773 18.1981 2.43773 17.7081 2.59773C17.2281 2.59773 16.7381 3.24773 16.8981 3.73773Z M21.13 11.0525L21.13 4.0625L16.25 7.4725C17.88 8.6125 19.5 9.9125 21.13 11.0525Z M19.335 8.615L19.335 8.125C19.505 7.965 19.665 7.805 19.985 7.635C20.155 7.635 20.315 7.965 20.475 7.965L20.635 7.965C20.635 7.805 20.635 7.635 20.475 7.475C20.475 7.315 20.635 7.155 20.635 6.985C20.635 6.825 20.475 6.825 20.315 6.825C20.155 6.825 20.155 6.985 19.985 7.155C19.665 6.985 19.505 6.825 19.335 6.665L19.335 6.175C19.175 6.335 19.015 6.665 18.845 6.825C18.525 6.825 18.035 7.155 17.875 7.475C17.875 7.635 18.035 7.805 18.195 7.965C18.365 8.125 18.685 8.125 18.845 8.285C19.015 8.455 19.175 8.615 19.335 8.615Z M0 11.0525C1.63 9.9125 3.25 8.7725 4.71 7.6425L4.71 7.4725C3.25 6.3325 1.63 5.2025 0 4.0625L0 11.0525Z M1.4625 6.4975C1.3025 6.4975 1.3025 6.6575 1.3025 6.8275C1.1425 6.8275 1.1425 6.9875 0.9725 6.9875C0.8125 6.9875 0.8125 7.3075 0.8125 7.4775L0.8125 8.1275C0.8125 8.2875 0.9725 8.4475 1.1425 8.4475L2.4425 8.4475C2.6025 8.4475 2.6025 8.4475 2.7625 8.2875C2.9225 8.1275 2.7625 7.9575 2.7625 7.7975C2.7625 7.4775 2.7625 7.3175 2.6025 6.9875C2.6025 6.8275 2.4425 6.8275 2.4425 6.6675C2.2725 6.4975 2.1125 6.3375 1.9525 6.3375C1.7925 6.3375 1.6225 6.3375 1.4625 6.4975Z M9.425 6.0075C9.425 5.6875 9.265 5.3675 9.095 5.0375C8.935 5.3575 8.935 5.6875 8.615 6.0075C8.455 6.0175 8.285 6.1775 8.125 6.1775C8.285 6.3375 8.455 6.6675 8.455 6.8275L8.615 6.8275C8.775 6.9875 8.775 7.3175 8.775 7.4775C8.615 7.6375 8.285 7.6375 8.125 7.6375C8.285 7.9575 8.285 8.2875 8.455 8.6175C8.615 8.6175 8.615 8.4475 8.775 8.2875C8.935 8.6075 8.935 8.9375 8.935 9.2575L8.285 9.4275C8.615 9.7475 8.935 9.9075 9.265 10.2375C9.265 9.7475 9.425 9.4275 9.425 8.9375C9.425 8.6075 9.425 8.2875 9.745 8.1275C9.745 8.2875 9.915 8.4475 9.915 8.6075L10.235 8.6075L10.235 10.2375C10.395 10.0775 10.725 10.0775 10.725 9.9075C10.885 9.4275 11.045 8.9375 11.045 8.6075L11.535 8.6075C11.695 9.0975 11.695 9.7475 11.865 10.2375C12.025 10.0775 12.185 9.9075 12.345 9.9075C12.345 9.4275 12.515 9.0975 12.515 8.6175C12.835 8.4475 12.995 8.4475 13.325 8.4475C13.325 8.1275 13.325 7.9575 13.165 7.7975L12.515 7.7975C12.515 7.4775 12.675 7.3175 12.675 6.9875L13.165 6.9875C13.165 6.8275 13.165 6.4975 12.995 6.3375L12.185 6.3375C12.345 6.1775 12.515 6.0075 12.835 5.8475L12.995 5.6875C12.835 5.5275 12.515 5.1975 12.185 5.0375C12.025 5.3675 11.865 5.6875 11.695 6.1775L11.535 6.1775C11.375 6.3375 11.215 6.3375 11.045 6.3375C11.045 6.0075 11.215 5.8475 11.375 5.5275C10.885 5.3675 10.565 5.1975 10.075 5.0375L10.395 6.1775C10.075 6.3375 9.915 6.3375 9.745 6.3375L9.745 6.0075L9.425 6.0075Z M10.075 7.47C10.075 7.64 9.915 7.8 9.915 7.8C10.075 7.8 10.235 7.8 10.405 7.64C10.405 7.48 10.235 7.31 10.235 6.99C10.075 6.99 9.915 6.99 9.915 6.83C9.755 6.83 9.755 6.66 9.755 6.5C9.425 6.83 9.425 7.15 9.425 7.47L10.075 7.47Z M11.05 7.7975C11.21 7.7975 11.54 7.6375 11.7 7.6375L11.7 6.9875C11.54 6.9875 11.38 6.9875 11.21 7.1475C11.21 7.3175 11.05 7.6375 11.05 7.7975Z M1.4625 6.83L2.2725 6.83C2.1125 6.66 1.9525 6.5 1.7925 6.5C1.6225 6.5 1.6225 6.66 1.4625 6.83Z M14.46 13.65C14.95 14.14 15.44 14.46 15.93 14.79L15.93 7.8C14.3 8.94 12.68 10.24 11.05 11.38C12.19 12.19 13.16 13 14.46 13.65Z M13.8125 10.4025C13.9725 10.4025 13.9725 10.2425 14.1325 10.2425C14.3025 10.2425 14.6225 10.2425 14.7825 10.4025C14.7825 10.2425 14.6225 10.0725 14.6225 9.9125L13.9725 9.9125L13.9725 10.0725C13.8125 10.2425 13.8125 10.2425 13.8125 10.4025Z M13.4838 11.0525C13.3238 11.3725 13.4838 11.8625 13.8138 12.0225C14.1338 12.1825 14.4638 12.1825 14.7838 11.8625C15.1138 11.5425 15.1138 10.7225 14.6238 10.5625L14.1338 10.5625C13.8138 10.5625 13.6538 10.8825 13.4838 11.0525Z M13.9725 12.6775L14.6225 12.6775C14.6225 12.5175 14.6225 12.3475 14.7825 12.1875C14.4625 12.3475 14.1325 12.3475 13.8125 12.1875C13.8125 12.3475 13.9725 12.5075 13.9725 12.6775Z M16.0875 14.95C16.8975 14.46 17.5475 13.81 18.3675 13.32C19.1775 12.67 20.1475 12.02 20.9675 11.37C19.3375 10.08 17.7175 8.94 16.0875 7.8L16.0875 14.95Z M17.7125 10.24L17.8725 10.24L17.8725 9.91C18.0325 9.75 17.8725 9.91 17.7125 9.75L17.7125 10.24Z M17.0625 10.2425L17.2225 10.2425C17.2225 10.2425 17.3825 9.9125 17.0625 9.9125L17.0625 10.2425Z M18.525 10.2425C18.525 10.2425 18.685 10.4025 18.685 10.2425L18.685 9.9125L18.525 9.9125L18.525 10.2425Z M18.85 12.1825C19.01 12.1825 19.01 12.1825 19.17 12.0225C19.34 11.8625 19.34 11.7025 19.34 11.3725C19.17 11.0525 19.01 11.0525 18.85 11.0525L18.85 10.5625L16.9 10.5625L16.9 12.3525C16.9 12.5125 17.06 12.5125 17.06 12.5125L18.85 12.5125L18.85 12.1825Z M1.95 12.8325C2.93 13.4825 3.9 14.3025 4.88 14.9525L4.88 7.9625L0 11.3725L1.95 12.8325Z M4.3825 11.215C4.3825 11.045 4.5525 10.885 4.5525 10.565L4.0625 10.075C3.9025 10.235 3.7425 10.395 3.7425 10.565C3.5725 10.885 3.4125 11.375 3.2525 11.535C2.9225 11.705 2.4425 11.705 2.1125 12.025C2.4425 12.355 2.9225 12.355 3.2525 12.355C3.4125 12.355 3.5725 12.025 3.5725 11.865C3.5725 11.705 3.7425 11.375 3.9025 11.215C4.0625 11.045 4.0625 11.215 4.0625 11.215L4.0625 12.345L4.2225 12.345C4.2225 12.025 4.2225 11.535 4.3825 11.215Z M5.2 14.95L10.08 11.38L8.13 9.91C7.15 9.26 6.17 8.45 5.2 7.8L5.2 14.95Z M8.45 10.7275C8.12 10.3975 7.96 10.3975 7.8 10.3975C7.64 10.3975 7.64 10.2375 7.47 10.2375L6.66 10.2375C6.5 10.2375 6.5 10.3975 6.5 10.5575L6.01 10.5575C5.85 10.5575 5.85 10.7275 5.85 10.7275L5.85 12.1875C5.85 12.3475 6.01 12.3475 6.18 12.3475L8.29 12.3475C8.45 12.3475 8.45 12.1875 8.45 12.1875L8.45 10.7275Z M6.825 16.4125C8.125 17.2225 9.265 18.0325 10.405 18.8525L10.405 11.8625L5.525 15.2725C6.015 15.6025 6.495 15.9225 6.825 16.4125Z M8.2925 15.9284L8.1225 16.0884C8.1225 16.2484 8.2925 16.5784 8.4525 16.5784C8.6125 16.7384 8.9425 16.4084 8.9425 16.2484L8.9425 15.1084L10.0725 15.1084C10.0725 14.9484 9.9125 14.6284 9.7525 14.4584C9.5925 14.2984 9.4225 14.2984 9.4225 14.1384C8.7725 13.8084 8.1225 13.9784 7.6425 14.4584C7.4725 14.6284 7.3125 14.9484 7.3125 15.1084L7.6425 15.1084C7.8025 15.1084 7.9625 15.2784 8.1225 15.1084L8.6125 15.1084L8.6125 16.0884C8.6125 16.2484 8.4525 16.2484 8.4525 16.2484C8.4525 16.0884 8.2925 15.9284 8.2925 15.9284Z M10.725 18.69C12.355 17.55 13.975 16.25 15.605 15.11L10.725 11.7L10.725 18.69Z M12.19 13.81L11.7 14.3C11.7 14.3 11.86 14.46 12.02 14.3L13.33 14.3C13.16 14.14 13 13.98 12.84 13.98C12.67 13.98 12.51 13.81 12.35 13.65L12.19 13.81Z M11.5375 15.93C11.5375 15.93 11.5375 16.09 11.6975 16.09L13.1575 16.09C13.3275 15.93 13.1575 15.76 13.1575 15.44L13.1575 14.46C13.1575 14.3 12.9975 14.3 12.9975 14.3C12.5075 14.62 12.0275 14.62 11.5375 14.62L11.5375 15.93Z " /></g></g></g></g></svg>