<svg xmlns="http://www.w3.org/2000/svg" xmlns:xlink="http://www.w3.org/1999/xlink" width="32" height="32" viewBox="0 0 32 32" fill="none"><defs><rect id="path_0" x="0" y="0" width="20" height="20" /></defs><g opacity="1" transform="translate(0 0)  rotate(0 16 15.999999999999998)"> <g opacity="1" transform="translate(6 6)  rotate(0 10 10)"><mask id="bg-mask-0" fill="white"><use xlink:href="#path_0"></use></mask><g mask="url(#bg-mask-0)" ><path id="路径 1" fill-rule="evenodd" style="fill:#F7B400" transform="translate(0.007812499999976907 0.0039062499999884537)  rotate(0 9.985473764543096 9.986328124999996)" opacity="1" d="M10.03,0L9.94,0C9.51,0.01 9.08,0.18 8.75,0.51L6.85,2.41L4.16,2.41C3.19,2.41 2.41,3.2 2.41,4.16L2.41,6.85L0.51,8.75C0.17,9.09 0,9.54 0,9.99C0,10.43 0.17,10.88 0.51,11.22L2.41,13.12L2.41,15.82C2.41,16.78 3.2,17.56 4.16,17.56L6.85,17.56L8.75,19.46C9.44,20.14 10.54,20.14 11.22,19.46L13.12,17.56L15.82,17.56C16.78,17.56 17.56,16.78 17.56,15.82L17.56,13.12L19.46,11.22C20.14,10.54 20.14,9.44 19.46,8.75L17.55,6.85L17.55,4.16C17.55,3.2 16.77,2.41 15.81,2.41L13.12,2.41L11.22,0.51C10.89,0.19 10.46,0.01 10.03,0Z " /><path id="路径 2" fill-rule="evenodd" style="fill:#FFFFFF" transform="translate(4.8046875 8.76953125)  rotate(0 5.1884765625 3.6025390624999987)" opacity="1" d="M5.18,0C3.65,0 2.4,1.15 2.22,2.62C0.99,2.66 0,3.67 0,4.91C0,6.18 1.03,7.21 2.29,7.21L8.09,7.21C9.35,7.21 10.38,6.18 10.38,4.91C10.38,3.67 9.38,2.65 8.13,2.62C7.96,1.15 6.7,0 5.18,0Z " /><path id="分组 1" fill-rule="evenodd" style="fill:#000000" transform="translate(6.121093749999979 7.947265624999977)  rotate(0 3.8583984375000053 2.692406760720422)" opacity="1" d="M6.97633 1.48C7.38633 1.48 7.71633 1.15 7.71633 0.74C7.71633 0.33 7.38633 0 6.97633 0C6.56633 0 6.23633 0.33 6.23633 0.74C6.23633 1.15 6.56633 1.48 6.97633 1.48Z M0.74 1.48C1.15 1.48 1.48 1.15 1.48 0.74C1.48 0.33 1.15 0 0.74 0C0.33 0 0 0.33 0 0.74C0 1.15 0.33 1.48 0.74 1.48Z M2.05138 3.44531C1.72138 3.44531 1.42138 3.90531 1.91138 4.25531L3.10138 5.15531C3.10138 5.15531 3.43138 5.38531 3.86138 5.38531C4.29138 5.38531 4.61138 5.15531 4.61138 5.15531L5.81138 4.25531C6.29138 3.89531 6.00138 3.44531 5.66138 3.44531L2.05138 3.44531Z " /></g></g></g></svg>