<svg width="128" height="128" viewBox="0 0 128 128" fill="none" xmlns="http://www.w3.org/2000/svg">
<rect width="128" height="128" fill="white"/>
<rect width="128" height="128" fill="url(#paint0_linear_2_104)"/>
<path d="M47.5 27C45.3036 36.5248 37.7321 48.2673 37 49L40.5 51.7129C41.1461 51.2515 41.7341 50.829 42.276 50.4397C48.4434 46.0086 48.6339 45.8717 60.5 41.5C79.5 34.5 99.5748 39 100 54.5C100.5 72.7277 100.5 68.8713 100.5 74C100.5 78.8845 97.5 95.5 87 97C85.7572 97 84.9548 97 84.1526 96.9887C82.592 96.9667 81.032 96.902 76.2307 96.7115V101.535C79.1592 102.267 86.3341 103 88.6769 103C105.516 103 113.374 94.9742 112.5 72.2277C112.379 69.0904 112.418 65.959 112.456 62.9127C112.649 47.4625 110.222 32.3011 89.409 31.5C70.3737 30.7673 57.0188 34.5347 55.5546 36L59.5 28.5L47.5 27Z" fill="white"/>
<path d="M29.0908 55.3575C27.3433 54.3341 25.7127 53.3791 24.5 52.4455L19.5 59.5C19.6143 59.5457 19.7303 59.5915 19.848 59.6374C20.6719 59.9585 21.576 60.2833 22.5141 60.6203C27.1657 62.2911 32.6504 64.2613 33.3032 67.5644L33 70.5C30.7148 77.9278 20.0795 89.3569 14.5 94.9406L27.4461 100.802C27.5459 100.602 27.6475 100.401 27.7508 100.197C28.4738 98.7715 29.2801 97.25 30.1243 95.6572C30.6411 94.6821 31.172 93.6804 31.7066 92.6576C35.4489 85.4979 39.3729 77.3067 39.8923 70.0297C39.9884 69.4417 39.943 67.7338 39.9124 66.5814C39.8959 65.9609 39.7908 65.365 39.6099 64.7915C38.3441 60.7768 33.3674 57.8621 29.0908 55.3575Z" fill="white"/>
<path d="M61 50L63 47L54 45.5C51.7494 49.8015 48.7101 53.2549 44.5 57L47 60.5L53 57H64V65H46.4815V71H64V86L63.7941 86.0187C55.9134 86.7365 54.0086 86.9099 54.9991 76.5H45V84C45 92.3747 48.3694 94.2079 54.9991 94.2079C68.1162 94.2079 74.7449 90.8874 84.6241 85.9386C84.9132 85.7938 85.2051 85.6476 85.5 85.5V91C85.5 91 89 91 90.5 89.5C92 88 92 83 92 83V75.5C90.4597 76.3802 89.2099 77.1393 88.1067 77.8094C84.1967 80.1844 82.1293 81.4401 75.4986 83V70.5H88.9579C91.3156 70.5 93.3529 68.853 93.8469 66.5476L94.5 63.5L75.4986 64V56.5L86.6588 56.128C88.9237 56.0525 90.8546 54.4632 91.3642 52.2551L92 49.5L61 50Z" fill="white"/>
<ellipse cx="28" cy="38" rx="8" ry="7" fill="#FFFD54"/>
<defs>
<linearGradient id="paint0_linear_2_104" x1="10.5" y1="9.50001" x2="163.5" y2="159.5" gradientUnits="userSpaceOnUse">
<stop offset="0.0112965" stop-color="#EA642B"/>
<stop offset="1" stop-color="#EF8733"/>
</linearGradient>
</defs>
</svg>
