<?xml version="1.0" standalone="no"?><!DOCTYPE svg PUBLIC "-//W3C//DTD SVG 1.1//EN" "http://www.w3.org/Graphics/SVG/1.1/DTD/svg11.dtd"><svg t="1671630713242" class="icon" viewBox="0 0 1024 1024" version="1.1" xmlns="http://www.w3.org/2000/svg" p-id="7452" xmlns:xlink="http://www.w3.org/1999/xlink" width="20" height="20"><path d="M212.5 954.1c-4.2-33.2-3.7-66.3 3.6-99.1 3.3-14.7 7.3-29.1 19.5-40.5-28.1 2.5-51.2 13.4-68.6 34.5-27.6 33.5-30.4 70.5-13 109.7h60.5c-1.1-0.8-1.7-2.3-2-4.6zM513.9 888.1c-7.5 0.5-15.2-0.7-22.8 0.6-8.1 1.4-10.1 6.3-5.4 13 7 9.8 14.1 19.5 21.2 29.2 3.6 4.9 9.9 4.8 13.5-0.1 7-9.6 13.9-19.3 20.9-28.9 5-6.9 3.1-11.7-5.4-13.2-7.3-1.3-14.6-0.2-22-0.6zM755.5 951.9c-2.9-23.2-3.6-46.4-0.8-69.5 2.9-24.1 5.9-48.3 23.5-67.9-28.8 2.7-52.6 14.5-70.1 37-25.8 33.3-27.9 69.4-11 107.2h60.2c-1.1-0.9-1.3-2.8-1.8-6.8zM269.9 958.7H330c17.8-40.3 14.4-77.8-14.6-111.6-17.2-20-39.7-30.3-66-32.1 4.1 4 7.1 8.6 9.7 13.5 4.2 8 6.3 16.7 8.6 25.3 4.9 18.6 5.9 37.8 6.3 57 0.3 15-0.8 29.9-2.9 44.7-0.2 1.6-0.6 2.6-1.2 3.2zM813.6 958.7h59.2c9.6-18.9 12.9-38.2 10.3-58.4-2.6-20.8-11.3-38.8-25.3-54.3-19.3-21.4-50.4-32.3-65.4-30.5 7.7 6.4 11.7 15.1 14.6 24.3 12.1 38.6 12.6 77.9 7.2 117.6-0.2 0.5-0.4 0.9-0.6 1.3z" fill="#FFFFFF" p-id="7453"></path><path d="M957.9 744.4c0-8.9-2.3-17.5-4-26-2.6-12.4-6.7-24.4-12.8-35.8-6.5-12.1-14.7-21.2-28-25.3-14.4-4.4-27.7-1.8-40.6 5.5-5.2 3-9.4 7.2-14.2 10.5-4 2.7-7.4 6-10.4 9.5-8.1 9.4-15.6 19.3-23.8 28.6-14.6 16.5-31.8 30.2-47.3 45.7-12.2 12.2-26.7 21.5-42.3 29-13.3 6.4-27.2 11.5-41.7 14.3-12 2.4-24.3 3.7-36.6 3.7-89.7 0-179.5 0-269.2 0.1-20.6 0-41.1-0.6-61-6.7-10.3-3.1-20.7-5.7-30.3-10.8-7.5-3.9-15.3-7.2-22-12.4-4.2-3.2-8.6-6.4-12.7-9.8-4-3.4-8.6-6.2-12.4-9.9-14.8-14.4-30.1-28.3-43.9-43.8-7.7-8.7-15.1-17.7-23-26.2-8.6-9.4-17.7-18.2-29.5-23.9-4.8-2.3-9.9-3.8-14.5-6.3h-0.4l-0.3-0.1c-2.7 0-5.5 0-8.2-0.1-7.2-0.3-14 1.6-20.1 5.1-5.6 3.1-10.8 6.8-15.6 11.2-1.1 1-0.7 3.4-3 3.2-3.4 6.7-6.7 13.4-9.5 20.4-5 12.6-7.8 25.8-9.9 39.1-1.3 7.9-2.1 15.9-3.2 23.9-0.1 8.9-0.2 17.7-0.2 26.6v67.5c2.2 51 38.1 93.2 85.9 105-16.3-38.3-13-74.5 14.1-107.3 17.4-21.1 40.5-32.1 68.6-34.5-12.1 11.4-16.2 25.8-19.5 40.5-7.3 32.8-7.8 65.8-3.6 99.1 0.5 4.3 1.9 5.6 6.3 5.5 15.8-0.3 31.7-0.2 47.5-0.1 3.1 0 4.4-0.5 4.9-4 2-14.9 3.2-29.8 2.9-44.7-0.4-19.1-1.4-38.3-6.3-57-2.3-8.6-4.4-17.3-8.6-25.3-2.6-4.9-5.5-9.5-9.7-13.5 26.3 1.8 48.8 12.1 66 32.1 29.2 33.9 32.4 71.6 14.4 112.1h367.6c-17.2-37.9-15.2-74.3 10.7-107.7 17.5-22.6 41.3-34.3 70.1-37-17.6 19.6-20.6 43.8-23.5 67.9-2.8 23.2-2.1 46.4 0.8 69.5 0.9 7.5 0.8 7.5 8.2 7.5h46.6c1.6 0 3.3 0.7 3.7-2.2 5.4-39.7 4.9-79-7.2-117.6-2.9-9.2-6.9-17.9-14.6-24.3 15.1-1.8 46.1 9.1 65.4 30.5 14 15.5 22.7 33.5 25.3 54.3 2.5 19.3-0.4 37.8-9 55.8 49.1-12.5 85.3-56.9 85.3-109.8v-92.8c-1.2-2.7-1.8-5.7-1.7-8.8zM541.3 901.8c-7 9.6-13.9 19.3-20.9 28.9-3.5 4.9-9.9 5-13.5 0.1-7.1-9.7-14.2-19.4-21.2-29.2-4.8-6.7-2.8-11.5 5.4-13 7.6-1.3 15.4-0.1 22.8-0.6 7.4 0.4 14.7-0.6 21.9 0.6 8.5 1.6 10.4 6.4 5.5 13.2z" p-id="7454"></path><path d="M690.9 552.5c10.9 0.1 21.8 0 32.6 0 1.2 0 2.5-0.2 3.7-0.3v-53.5h-54.6v35.4c0.1 10.9 7.4 18.3 18.3 18.4zM727.2 408.4h-54.1v53h54.1v-53zM819.1 498.9h-54.5v53.7c12.5 0 24.6 0.1 36.8 0 10.3-0.1 17.6-7.5 17.7-18 0.1-9.4 0-18.9 0-28.3v-7.4z" fill="#DA0B06" p-id="7455"></path><path d="M846.2 66.5h-666c-62.6 0-113.3 50.8-113.3 113.3 0.1 197.6 0.2 583.8 0.3 577.2 1-8 1.9-16 3.2-23.9 2.1-13.3 4.9-26.4 9.9-39.1 2.8-7 6.1-13.7 9.5-20.4 2.3 0.2 1.8-2.2 3-3.2 4.8-4.4 10-8.1 15.6-11.2 6.1-3.4 12.9-5.4 20.1-5.1 2.7 0.1 5.5 0.1 8.2 0.1l0.3 0.1h0.4c4.7 2.5 9.8 4 14.5 6.3 11.8 5.7 20.9 14.5 29.5 23.9 7.9 8.5 15.2 17.6 23 26.2 13.8 15.4 29.1 29.3 43.9 43.8 3.8 3.7 8.4 6.5 12.4 9.9 4.1 3.5 8.4 6.6 12.7 9.8 6.7 5.1 14.6 8.5 22 12.4 9.6 5 20 7.6 30.3 10.8 19.9 6.1 40.4 6.7 61 6.7 89.7-0.1 179.5-0.1 269.2-0.1 12.3 0 24.6-1.4 36.6-3.7 14.5-2.8 28.4-8 41.7-14.3 15.6-7.5 30.1-16.8 42.3-29 15.5-15.5 32.8-29.2 47.3-45.7 8.2-9.3 15.7-19.3 23.8-28.6 3-3.5 6.4-6.8 10.4-9.5 4.9-3.3 9-7.5 14.2-10.5 12.9-7.3 26.2-10 40.6-5.5 13.3 4.1 21.5 13.2 28 25.3 6.1 11.4 10.2 23.4 12.8 35.8 1.8 8.5 4.1 17.2 4 26 0 3.2 0.5 6.3 1.6 9.4V179.8c0.3-62.5-50.4-113.3-113-113.3z m-372.1 521c-57.9-33.4-111.4-70.7-142.8-132.9-31.5 61.9-84.7 99.8-142.9 132.9-6.1-10.8-11.9-21.1-17.9-31.8 7-4.2 13.8-8.1 20.4-12.2 29.3-18 57-38 79.9-64 17.2-19.5 30.3-41.4 36.9-66.8 0.2-0.7 0.4-1.4 0.5-2.1 0-0.3-0.1-0.6-0.3-1.3h-4.6c-42.1 0-84.2-0.1-126.4 0.1-4.2 0-5.4-1.2-5.3-5.4 0.3-8.8 0.1-17.7 0.1-26.6 0-1.4 0.1-2.8 0.2-4.7h140.4v-76.2H186.4v-36.6c1.6-0.1 3.1-0.2 4.6-0.2 93.4 0 186.8 0 280.2-0.1 4.3 0 5.4 1.3 5.3 5.4-0.3 8.8-0.3 17.7 0 26.6 0.1 3.9-1.1 4.9-4.9 4.9-38.8-0.1-77.6-0.1-116.3-0.1-5.7 0-5.7 0-5.7 5.6 0 21.8 0.1 43.6-0.1 65.4 0 4.2 1.2 5.4 5.4 5.4 43.3-0.1 86.6-0.1 129.8-0.1h6.3c0 11.9 0.1 23-0.1 34.2 0 0.8-1.5 2.1-2.4 2.2-2 0.4-4 0.2-6.1 0.2H359.1c-1.4 0-2.8 0.2-4.9 0.3 0.6 2.5 0.9 4.5 1.5 6.5 8.9 30.2 26.3 55 48.6 76.7 25.4 24.7 54.7 43.9 85.3 61.3 0.6 0.4 1.2 0.7 2.4 1.5-5.8 10.5-11.7 20.9-17.9 31.9z m107.4-30.3c-11.9 10.3-25.1 19.1-37.8 28.6-0.9 0.7-2 1.1-3.5 1.9-3-5.1-5.8-10.1-8.7-15.1-2.5-4.3-4.7-8.7-7.4-12.8-1.9-3-1.2-4.4 1.6-6.1 13.8-8.5 26.5-18.2 37.6-30.1 10-10.7 15.6-23.2 15.4-38.1-0.1-8.5 0-17.1 0-26.6-12.8 7.6-24.9 14.7-37.6 22.2-6.3-10.6-12.4-20.8-18.8-31.4 8-4.8 15.6-9.4 23.3-14 10.1-6 20.3-11.9 30.3-18 1.4-0.8 2.9-2.7 3-4.1 0.2-11.8 0.1-23.5 0.1-35.3 0-0.4-0.2-0.8-0.6-1.7-12.4 7.3-24.5 14.5-37.1 21.9-0.9-1.3-1.8-2.4-2.5-3.6-4.9-8.1-9.6-16.2-14.6-24.2-1.8-2.8-1.2-4 1.6-5.6 16.7-9.7 33.2-19.7 49.8-29.4 2.4-1.4 3.6-3.1 3.4-5.9-0.2-3.5-0.1-7-0.3-10.4-0.8-12.4-6.1-19.2-18.4-21.2-10.4-1.7-21-2-31.6-2.4-3.5-0.1-4.8-0.8-4.8-4.5 0.2-10.4 0.1-20.9 0.1-31.1 0.6-0.4 0.9-0.7 1.1-0.7 20.4-1 40.7-0.7 59.6 8.7 18.6 9.3 29.1 24.7 30.2 45.1 1.3 22.1 1 44.4 1 66.6 0.1 32.8-0.8 65.6 0 98.4 0.8 32.1-10.4 58.3-34.4 78.9z m274.3-178.6v155.9c0 30.8-23.8 54.6-54.7 54.6H690.5c-30.6 0-54.5-23.9-54.5-54.4V377v-5.3h219.8v6.9z m-4.4-59.7c-8.6-0.2-17.1-0.1-25.7 0h-4.8c0 8.1-0.2 15.8 0.1 23.4 0.2 4.3-0.9 5.9-5.5 5.7-8.7-0.4-17.4-0.1-26.1-0.1-1.6 0-3.1-0.1-5.1-0.2v-28.3c-1.7-0.2-2.9-0.4-4.2-0.4-22.8 0-45.6 0-68.4-0.1-3.6 0-4.9 0.9-4.7 4.6 0.3 7 0 13.9 0.1 20.9 0 2.6-0.8 3.6-3.5 3.5-9.9-0.1-19.8-0.1-29.6 0-3.3 0.1-3.8-1.4-3.8-4.2 0.1-8.1 0-16.2 0-24.8h-33.8v-36.5h33.8v-18.1c0-5.6 0-5.6 5.7-5.6H707V282h77.2v-17.7c0-5.6 0-5.6 5.7-5.6 8.6 0 17.1 0.2 25.7-0.1 4.1-0.1 5.7 0.9 5.4 5.3-0.4 5.9-0.1 11.8-0.1 18.4h34.7c0.1 2.3 0.3 4.3 0.3 6.2 0 8.7-0.2 17.4 0.1 26.1 0 3.5-1.3 4.4-4.6 4.3z" fill="#DA0B06" p-id="7456"></path><path d="M819.1 410.7c0-3-2.3-2.5-4.1-2.5-15.7 0-31.4-0.1-47 0-1.1 0-2.2 0.2-3.5 0.3v53h54.6v-50.8z" fill="#DA0B06" p-id="7457"></path><path d="M491.1 372.6c0 11.9 0.1 23-0.1 34.2 0 0.8-1.5 2.1-2.4 2.2-2 0.4-4 0.2-6.1 0.2H359.2c-1.4 0-2.8 0.2-4.9 0.3 0.6 2.5 0.9 4.5 1.5 6.5 8.9 30.2 26.3 55 48.6 76.7 25.4 24.7 54.7 43.9 85.3 61.3 0.6 0.4 1.2 0.7 2.4 1.5-5.9 10.5-11.8 20.9-18 31.9-57.9-33.4-111.4-70.7-142.8-132.9-31.5 61.9-84.7 99.8-142.9 132.9-6.1-10.8-11.9-21.1-17.9-31.8 7-4.2 13.8-8.1 20.4-12.2 29.3-18 57-38 79.9-64 17.2-19.5 30.3-41.4 36.9-66.8 0.2-0.7 0.4-1.4 0.5-2.1 0-0.3-0.1-0.6-0.3-1.3h-4.6c-42.1 0-84.2-0.1-126.4 0.1-4.2 0-5.4-1.2-5.3-5.4 0.3-8.8 0.1-17.7 0.1-26.6 0-1.4 0.1-2.8 0.2-4.7h140.4v-76.2H186.4v-36.6c1.6-0.1 3.1-0.2 4.6-0.2 93.4 0 186.8 0 280.2-0.1 4.3 0 5.4 1.3 5.3 5.4-0.3 8.8-0.3 17.7 0 26.6 0.1 3.9-1.1 4.9-4.9 4.9-38.8-0.1-77.6-0.1-116.3-0.1-5.7 0-5.7 0-5.7 5.6 0 21.8 0.1 43.6-0.1 65.4 0 4.2 1.2 5.4 5.4 5.4 43.3-0.1 86.6-0.1 129.8-0.1h6.4zM636 371.9h219.8v162.6c0 30.8-23.8 54.6-54.7 54.6H690.5c-30.6 0-54.5-23.9-54.5-54.4V377v-5.1z m128.5 89.5h54.6v-50.8c0-3-2.3-2.5-4.1-2.5-15.7 0-31.4-0.1-47 0-1.1 0-2.2 0.2-3.5 0.3v53z m-91.4-53v53h54.1v-53h-54.1z m146 90.5h-54.5v53.7c12.5 0 24.6 0.1 36.8 0 10.3-0.1 17.6-7.5 17.7-18 0.1-9.4 0-18.9 0-28.3v-7.4z m-146.4-0.2v35.4c0 10.9 7.3 18.3 18.2 18.4 10.9 0.1 21.8 0 32.6 0 1.2 0 2.5-0.2 3.7-0.3v-53.5h-54.5zM541.2 481.3c-6.3-10.6-12.4-20.8-18.8-31.4 8-4.8 15.6-9.4 23.3-14 10.1-6 20.3-11.9 30.3-18 1.4-0.8 2.9-2.7 3-4.1 0.2-11.8 0.1-23.5 0.1-35.3 0-0.4-0.2-0.8-0.6-1.7-12.4 7.3-24.5 14.5-37.1 21.9-0.9-1.3-1.8-2.4-2.5-3.6-4.9-8.1-9.6-16.2-14.6-24.2-1.8-2.8-1.2-4 1.6-5.6 16.7-9.7 33.2-19.7 49.8-29.4 2.4-1.4 3.6-3.1 3.4-5.9-0.2-3.5-0.1-7-0.3-10.4-0.8-12.4-6.1-19.2-18.4-21.2-10.4-1.7-21-2-31.6-2.4-3.5-0.1-4.8-0.8-4.8-4.5 0.2-10.4 0.1-20.9 0.1-31.1 0.6-0.4 0.9-0.7 1.1-0.7 20.4-1 40.7-0.7 59.6 8.7 18.6 9.3 29.1 24.7 30.2 45.1 1.3 22.1 1 44.4 1 66.6 0.1 32.8-0.8 65.6 0 98.4 0.8 32-10.5 58.2-34.4 78.9-11.9 10.3-25.1 19.1-37.8 28.6-0.9 0.7-2 1.1-3.5 1.9-3-5.1-5.8-10.1-8.7-15.1-2.5-4.3-4.7-8.7-7.4-12.8-1.9-3-1.2-4.4 1.6-6.1 13.8-8.5 26.5-18.2 37.6-30.1 10-10.7 15.6-23.2 15.4-38.1-0.1-8.5 0-17.1 0-26.6-12.8 7.5-24.9 14.7-37.6 22.2zM820.8 282.2h34.7c0.1 2.3 0.3 4.3 0.3 6.2 0 8.7-0.2 17.4 0.1 26.1 0.1 3.6-1.2 4.4-4.5 4.3-8.6-0.2-17.1-0.1-25.7 0h-4.8c0 8.1-0.2 15.8 0.1 23.4 0.2 4.3-0.9 5.9-5.5 5.7-8.7-0.4-17.4-0.1-26.1-0.1-1.6 0-3.1-0.1-5.1-0.2v-28.3c-1.7-0.2-2.9-0.4-4.2-0.4-22.8 0-45.6 0-68.4-0.1-3.6 0-4.9 0.9-4.7 4.6 0.3 7 0 13.9 0.1 20.9 0 2.6-0.8 3.6-3.5 3.5-9.9-0.1-19.8-0.1-29.6 0-3.3 0.1-3.8-1.4-3.8-4.2 0.1-8.1 0-16.2 0-24.8h-33.8v-36.5h33.8v-18.1c0-5.6 0-5.6 5.7-5.6H707v23.3h77.2v-17.7c0-5.6 0-5.6 5.7-5.6 8.6 0 17.1 0.2 25.7-0.1 4.1-0.1 5.7 0.9 5.4 5.3-0.5 5.9-0.2 11.8-0.2 18.4z" fill="#FFFFFF" p-id="7458"></path></svg>