<svg width="128" height="128" viewBox="0 0 128 128" fill="none" xmlns="http://www.w3.org/2000/svg">
 
<path fill-rule="evenodd" clip-rule="evenodd" d="M38 52H41V54H46.5V56H41V60H46.5V62H41V66H46.5V68H41V72.5H46.5V74.5H33.5V75H30.5V56.5L29 58V69C29 70.6569 27.6569 72 26 72H20V53H29V54.0833L31.5 52H35.5L33.5 54H38V52ZM33.5 60H38V56H33.5V60ZM33.5 62V66H38V62H33.5ZM33.5 68V72.5H38V68H33.5ZM26 54.5H23V70.5H24C25.1046 70.5 26 69.6046 26 68.5V54.5ZM73.5 52H52.5V62H70.5C72.1569 62 73.5 60.6569 73.5 59V52ZM70.5 54H55.5V60H69.5C70.0523 60 70.5 59.5523 70.5 59V54ZM50.5 63H62.5V71C62.5 72.6569 61.1569 74 59.5 74H50.5V63ZM53.5 65H59.5V70C59.5 71.1046 58.6046 72 57.5 72H53.5V65ZM63.5 74H72.5C74.1569 74 75.5 72.6569 75.5 71V63H63.5V74ZM72.5 65H66.5V72H70.5C71.6046 72 72.5 71.1046 72.5 70V65ZM90.5 52L78 62.5H82L83.5 61H102L103.5 62.5H107.5L95 52H90.5ZM93 53.5H92.5L86 59.5H99.5L93 53.5ZM85 66H79.5V64H105.5V66H88.5L86 72H100C101.363 72 100.844 70.685 100.333 69.3878C100.213 69.0853 100.095 68.7837 100 68.5H103C103.067 68.7333 103.147 69.0013 103.232 69.2872C103.573 70.4306 104 71.86 104 72.5C104 74 102.667 74 102 74H81.5L85 66Z" fill="white"/>
</svg>
