<?xml version="1.0" encoding="UTF-8"?>
<svg width="128px" height="128px" viewBox="0 0 128 128" version="1.1" xmlns="http://www.w3.org/2000/svg" xmlns:xlink="http://www.w3.org/1999/xlink">
    <title> </title>
    <defs>
  
    </defs>
    <g id="" stroke="none" stroke-width="1" fill="none" fill-rule="evenodd">
 
        <path d="M64,26 C84.9868205,26 102,43.0131795 102,64 C102,84.9868205 84.9868205,102 64,102 C43.0131795,102 26,84.9868205 26,64 C26,43.0131795 43.0131795,26 64,26 Z M98.9836997,65.0785076 L99.5809356,65.0774716 C85.4531648,65.0774716 71.6006095,65.6219284 55.9259088,68.0212222 C55.875422,70.2880176 55.8116067,72.3811364 55.7333683,74.3018121 C55.3205466,84.4361786 49.6791022,91.618451 46.7268916,94.4468709 C51.8232578,97.345177 57.7183766,99 64,99 C82.9691625,99 98.4137465,83.9094852 98.9836997,65.0785076 Z M50.8622517,68.8511483 L50.5242329,68.9101886 C44.1350098,70.0348137 37.4219813,71.474365 30.2544217,73.3105165 C32.6954616,82.1859387 38.5448691,89.6482799 46.3061308,94.2046442 C49.1728557,91.0675309 49.7008397,88.3050729 50.6768155,72.64 C50.753439,71.4101411 50.815251,70.1471905 50.8622517,68.8511483 Z M49.2358251,32.2593237 L48.8872902,32.4219462 C37.1233455,38.0621576 29,50.0824243 29,64 C29,65.0916147 29.0499743,66.1715572 29.1477598,67.2376646 L28.4426827,67.2872973 C37.901,66.6223373 44.8731345,66.0599088 50.9510331,65.4325688 C51.100887,55.9878863 50.5292742,44.9299696 49.2358251,32.2593237 Z M64,29 C61.167444,29 58.4134781,29.3364843 55.7758934,29.9716617 C55.9536028,39.0417106 56.0451996,47.0888558 56.0513428,54.1143114 L56.0513428,55.6136383 C56.0483722,58.9397831 56.0254207,62.0270333 55.9824881,64.8753888 C57.3655815,64.7099579 58.7225698,64.5386904 60.0764595,64.3583812 L61.1883187,64.2081922 C64.9008377,63.6996988 68.6369393,63.1182896 72.8661364,62.4145807 L72.8664437,30.1328386 C70.0347474,29.3935465 67.0633326,29 64,29 Z M79.1167274,32.4238727 L77.7191939,61.5923636 C83.3752274,60.6201564 90.0136472,59.4404966 98.478348,57.9646221 C96.518083,46.6683363 89.1389715,37.2306038 79.1167274,32.4238727 Z" id="形状结合" fill="#FFFFFF" fill-rule="nonzero"></path>
    </g>
</svg>