<?xml version="1.0" standalone="no"?><!DOCTYPE svg PUBLIC "-//W3C//DTD SVG 1.1//EN" "http://www.w3.org/Graphics/SVG/1.1/DTD/svg11.dtd"><svg t="1632484140741" class="icon" viewBox="0 0 1024 1024" version="1.1" xmlns="http://www.w3.org/2000/svg" p-id="13820" xmlns:xlink="http://www.w3.org/1999/xlink" width="200" height="200"><defs><style type="text/css"></style></defs><path d="M204.986 894.387l242.405-239.233c55.127 52.429 122.872 72.762 205.054 72.761 169.146 0 305.959-130.61 305.959-298.596 0-167.963-137.617-304.634-306.764-304.634-169.147 0-299.306 134.541-299.306 302.505 0 70.133 16.78 136.738 57.021 188.27L165.224 856.42a22.376 22.376 0 0 0-6.677 15.954c0 5.776 6.816 15.338 11.266 19.74 8.855 8.807 26.274 11.08 35.173 2.273z m450.442-721.555c140.363 0 254.499 113.378 254.499 252.724 0 139.368-114.136 252.749-254.499 252.749-140.317 0-254.5-113.381-254.5-252.749 0-139.346 114.183-252.724 254.5-252.724z" fill="#FC994A" p-id="13821"></path></svg>