<?xml version="1.0" ?><!DOCTYPE svg  PUBLIC '-//W3C//DTD SVG 1.1//EN'  'http://www.w3.org/Graphics/SVG/1.1/DTD/svg11.dtd'><svg height="512px" style="enable-background:new 0 0 512 512;" version="1.1" viewBox="0 0 512 512" width="512px" xml:space="preserve" xmlns="http://www.w3.org/2000/svg" xmlns:xlink="http://www.w3.org/1999/xlink"><g id="_x33_73-weibo"><g><path d="M217.487,442.277c-95.504,0-192.986-46.18-192.986-122.455c0-39.805,25.156-85.713,68.551-129.107    c89.576-89.576,182.566-90.655,155.971-5.123c-3.594,11.77,11.051,5.123,11.051,5.391c71.428-30.187,126.232-15.093,102.424,46.18    c-3.325,8.446,0.987,9.793,7.456,11.769C491.873,286.938,401.219,442.277,217.487,442.277L217.487,442.277z" style="fill:#D52A2C;"/><path d="M393.169,200.506c6.828-21.563-12.04-42.047-33.603-37.466    c-19.766,4.314-25.876-25.246-6.379-29.468c45.012-9.793,82.927,33.333,68.731,76.188    C415.809,228.808,387.06,219.464,393.169,200.506z" style="fill:#E99315;"/><path d="M349.594,310.838c-4.852-50.045-70.527-84.456-146.807-76.999    c-76.188,7.726-133.688,54.176-128.837,104.219c4.851,50.043,70.528,84.455,146.807,76.998    C296.944,407.328,354.446,360.881,349.594,310.838z" style="fill:#FFFFFF;"/><path d="M340.07,72.479c-23.269,5.032-15.094,39.262,7.458,34.41    c64.956-13.656,121.109,47.438,100.356,111.407c-6.649,21.742,26.144,33.242,33.601,10.782    C510.146,139.413,431.981,53.072,340.07,72.479L340.07,72.479z" style="fill:#E99315;"/><path d="M269.542,351.895c-15.364,34.859-60.016,53.906-98.02,41.599c-36.657-11.77-52.11-47.978-36.208-80.592    c15.903-31.806,56.692-49.774,92.9-40.521C265.949,282.087,284.906,317.484,269.542,351.895z"/><path d="M192.006,324.941c-11.589-4.852-26.953,0.271-34.14,11.59c-7.458,11.591-3.865,25.156,7.727,30.547    c11.769,5.39,27.671,0.271,35.128-11.59C207.909,343.72,204.045,330.063,192.006,324.941z" style="fill:#FFFFFF;"/><path d="M221.296,312.901c-4.582-1.527-10.242,0.54-12.848,4.852c-2.606,4.584-1.258,9.525,3.323,11.59    c4.582,1.798,10.512-0.269,13.119-4.851C227.405,319.822,225.877,314.699,221.296,312.901z" style="fill:#FFFFFF;"/></g></g><g id="Layer_1"/></svg>