<?xml version="1.0" standalone="no"?><!DOCTYPE svg PUBLIC "-//W3C//DTD SVG 1.1//EN" "http://www.w3.org/Graphics/SVG/1.1/DTD/svg11.dtd"><svg t="1632461992660" class="icon" viewBox="0 0 1024 1024" version="1.1" xmlns="http://www.w3.org/2000/svg" p-id="2787" xmlns:xlink="http://www.w3.org/1999/xlink" width="200" height="200"><defs><style type="text/css"></style></defs><path d="M962.56 296.96l-394.24-235.52c-20.48-15.36-51.2-15.36-71.68 0l-430.08 235.52c-20.48 10.24-35.84 35.84-35.84 61.44s15.36 51.2 35.84 61.44l51.2 30.72c-35.84 66.56-56.32 143.36-56.32 220.16 0 20.48 0 40.96 5.12 66.56 5.12 20.48 20.48 35.84 46.08 35.84h35.84c30.72 0 61.44 5.12 92.16 10.24v148.48c0 20.48 20.48 40.96 40.96 40.96s40.96-20.48 40.96-40.96v-117.76c66.56 30.72 122.88 81.92 163.84 143.36 5.12 10.24 20.48 20.48 35.84 20.48 15.36 0 25.6-5.12 35.84-20.48 76.8-112.64 199.68-179.2 337.92-179.2h35.84c20.48 0 40.96-15.36 46.08-35.84 5.12-25.6 5.12-46.08 5.12-66.56 0-76.8-20.48-153.6-56.32-220.16l46.08-25.6c20.48-10.24 35.84-35.84 35.84-61.44-10.24-30.72-25.6-56.32-46.08-71.68z m-430.08-158.72l378.88 225.28-414.72 225.28-117.76-71.68 128-71.68c20.48-10.24 25.6-35.84 15.36-56.32-10.24-20.48-35.84-25.6-56.32-15.36l-168.96 92.16-179.2-107.52 414.72-220.16z m-389.12 552.96c-5.12 0-5.12 0 0 0-5.12-5.12-5.12-10.24-5.12-15.36 0-61.44 15.36-122.88 46.08-179.2l51.2 30.72v168.96c-30.72-5.12-61.44-5.12-92.16-5.12z m742.4-20.48v15.36h-5.12c-143.36 0-276.48 61.44-368.64 174.08-51.2-61.44-122.88-112.64-194.56-138.24v-143.36l143.36 81.92c10.24 5.12 25.6 10.24 35.84 10.24 10.24 0 25.6-5.12 35.84-10.24l312.32-168.96c25.6 56.32 40.96 117.76 40.96 179.2z" p-id="2788"></path></svg>