<?xml version="1.0" standalone="no"?><!DOCTYPE svg PUBLIC "-//W3C//DTD SVG 1.1//EN" "http://www.w3.org/Graphics/SVG/1.1/DTD/svg11.dtd"><svg t="1632552870287" class="icon" viewBox="0 0 1024 1024" version="1.1" xmlns="http://www.w3.org/2000/svg" p-id="1808" xmlns:xlink="http://www.w3.org/1999/xlink" width="32" height="32"><defs><style type="text/css"></style></defs><path d="M334.33181468 147.45802272C255.16360691 180.59820247 218.34118555 209.1355789 116.15896377 318.68228521c-50.63083004 54.31307295-92.05605473 101.26166006-92.05605471 103.10278088 0 0.92056041 33.14017975 1.84112081 73.64484403 0s73.64484404 0 73.64484404 4.60280331c0 3.68224161-21.17289319 27.61681602-46.94858842 53.39251125l-46.02802673 46.028028 79.16820648 2.76168122 79.16820777 2.76168121-42.34578509 47.86914882-41.42522471 47.86914883 63.518677 4.60280202 63.5186783 4.60280333-21.1728932 52.47195084-22.0934523 53.39251254 57.07475416 50.63083004c35.90186097 32.21961935 92.05605473 68.12148032 149.1308089 95.73829634 142.68688476 70.88316283 128.87847739 77.32708566 140.84576394-68.12148031 15.64952947-189.63547317 42.3457851-223.69621333 160.17753504-213.57004758 32.21961935 3.68224161 71.80372323 8.28504494 89.29437352 11.96728785 23.01401401 4.60280333 41.42522469 0.92056041 69.04204071-12.88784827 21.17289319-10.12616575 45.1074663-21.17289319 54.31307295-23.93457441 40.50466428-12.88784826 68.12148032-145.44856727 40.50466428-197.92051681-7.36448454-15.64952947-37.74298306-34.06074016-99.42053926-59.83643667-106.7850238-45.1074663-115.99062914-52.47195085-127.95791698-99.42053927-14.72896907-52.47195085-53.39251125-74.56540445-119.67287076-67.20091991-37.74298306 4.60280333-64.43923869 0.92056041-104.94390298-12.88784696-72.72428363-25.77569522-143.60744516-24.85513482-210.80836507 2.76168122z" p-id="1809" data-spm-anchor-id="a313x.7781069.0.i2" class="selected" fill="#000000"></path></svg>