<?xml version="1.0" standalone="no"?><!DOCTYPE svg PUBLIC "-//W3C//DTD SVG 1.1//EN" "http://www.w3.org/Graphics/SVG/1.1/DTD/svg11.dtd"><svg t="1632482192858" class="icon" viewBox="0 0 1024 1024" version="1.1" xmlns="http://www.w3.org/2000/svg" p-id="10264" xmlns:xlink="http://www.w3.org/1999/xlink" width="200" height="200"><defs><style type="text/css"></style></defs><path d="M145.621959 0c-44.79888 0-79.998 36.81188-79.998 81.61076v860.77848c0 44.79888 35.19912 81.61076 79.998 81.61076h732.781681a81.969151 81.969151 0 0 0 81.61076-81.61076V324.80468L657.60916 0h-511.987201z" fill="#F05542" p-id="10265"></path><path d="M657.60916 0v233.59416c0 25.59936 17.61236 92.79768 97.61036 92.79768h204.79488L657.60916 0z" fill="#FFFFFF" p-id="10266"></path><path d="M226.208745 708.129497c0.40959-1.791955 0.972776-3.507112 1.715157-5.094273L230.40704 697.633759a99.530312 99.530312 0 0 0 5.836654-17.381965l5.862253-24.0122a2497.98555 2497.98555 0 0 1 9.59976-38.245444c1.61276-6.092648 3.532712-12.466888 5.785456-19.122722l7.039824-20.633084 7.423814-21.887453c2.508737-7.475013 4.761481-15.257219 6.758231-23.244219a3.839904 3.839904 0 0 0 0.153596-1.20317c0-0.79358-0.255994-1.305567-0.742381-1.510362s-1.151971-0.307192-1.945551-0.307192c-2.508737 0-4.582285-0.38399-6.220645-1.126372a10.188545 10.188545 0 0 1-5.913452-7.039824 29.18327 29.18327 0 0 1 0.998375-15.436414c1.049574-2.636734 2.40634-4.710282 4.044699-6.143846s3.455914-2.508737 5.401465-3.148722 3.839904-1.177571 5.708657-1.58716 3.481513-0.81918 4.863878-1.279968 2.40634-1.279968 2.995126-2.483138c0.998375-2.099148 1.919952-4.326292 2.76473-6.681433s1.919952-4.531087 3.22552-6.527837 2.892728-3.660708 4.81268-4.940676 4.40309-1.945551 7.500612-1.945552c2.201545 0 4.147096 0.588785 5.862253 1.791956s3.174321 2.687933 4.42869 4.505487 2.329542 3.737507 3.225519 5.785455l2.40634 5.63186a310.00825 310.00825 0 0 1 43.800505 4.198295c7.500612 1.407965 15.026824 3.507112 22.578635 6.297442s14.361241 6.425439 20.40269 10.879728 11.007725 9.702157 14.847629 15.743607 5.785455 12.978876 5.785456 20.78668c0 3.9935-0.460788 8.140596-1.356767 12.441289l-1.049573 5.247869c-0.79358 4.198295-2.483138 8.089398-5.017475 11.698907s-5.427064 6.860628-8.626984 9.753356c-8.908577 8.191795-18.661933 15.078023-29.260069 20.633084s-21.657059 10.214145-33.151171 14.02845-23.244219 6.988625-35.250319 9.59976-23.858604 5.043074-35.557511 7.347016l-4.198295 0.588785c-2.303942 0.307192-3.660708 1.151971-4.044699 2.559936-1.99675 6.911827-3.58391 12.953276-4.735881 18.149947s-2.227144 10.162946-3.22552 14.924427l-2.995125 14.258843c-0.998375 4.761481-2.252744 10.034949-3.737506 15.820405-0.511987 1.894353-1.407965 4.147096-2.687933 6.758231s-2.841529 5.043074-4.659084 7.347016-3.865503 4.275093-6.220644 5.913452-4.81268 2.483138-7.423814 2.483138c-1.791955 0-3.353516-0.511987-4.659084-1.510362s-2.38074-2.278343-3.225519-3.814305-1.510362-3.225519-1.945552-5.017474-0.665583-3.507112-0.665583-5.094273v-1.715157c0-0.537587 0-1.126372 0.204795-1.638359z m59.544111-110.845229l-0.819179 2.636734a73.828554 73.828554 0 0 0-1.715157 6.451039 11.007725 11.007725 0 0 0-0.307193 2.022349c0 0.511987 0.076798 0.921577 0.230394 1.279968s0.486388 0.537587 0.972776 0.537587c0.307192 0 1.254369-0.127997 2.841529-0.383991s3.532712-0.563186 5.785455-0.972775 4.684683-0.844779 7.270219-1.356766 5.094273-0.998375 7.500612-1.510363a343.159421 343.159421 0 0 0 42.955726-12.594885c7.347016-2.687933 14.38684-5.60626 21.068274-8.703782s12.646084-6.39984 17.842754-9.906953c5.503862-3.711907 9.906952-7.398215 13.209269-11.110122s4.940676-7.654209 4.940677-11.852503c0-2.508737-0.332792-4.735882-0.972776-6.681433s-1.382365-3.737507-2.175946-5.324667c-2.995125-4.889478-6.758231-8.754981-11.238119-11.545312s-9.394965-4.889478-14.694032-6.297442-10.854129-2.303942-16.639584-2.687933-11.494113-0.588785-17.100373-0.588785c-1.510362 0-3.763106 0.102397-6.835029 0.307192s-6.246244 0.460788-9.59976 0.742381-6.451039 0.665583-9.292568 1.126372-4.78708 0.972776-5.785455 1.587161c-0.511987 0.307192-0.921577 0.79358-1.279968 1.510362s-0.614385 1.305567-0.819179 1.791955l-3.302318 8.319792c-1.407965 3.532712-2.892728 7.526212-4.505487 11.929302s-3.276718 9.062173-5.017475 13.951651-3.430314 9.676558-5.017474 14.335642l-4.42869 13.055673a167.59901 167.59901 0 0 0-3.071923 9.932552zM421.045474 692.693083c4.607885-3.302317 9.266968-5.375866 14.028449-6.220645s9.778956-1.535962 15.078023-2.022349l37.503063-151.804205-3.379116-0.076798c-1.843154-0.051199-3.891103-0.204795-6.143846-0.460789s-4.479888-0.665583-6.681433-1.279968-3.839904-1.459164-4.940677-2.559936a54.552236 54.552236 0 0 1-4.044699-6.502237c-0.691183-1.331167-1.305567-2.713532-1.791955-4.121497s-0.742381-2.79033-0.742381-4.198295c0-2.303942 0.972776-4.223894 2.918327-5.785456s4.351891-2.79033 7.19342-3.737506 5.913452-1.61276 9.21577-2.02235 6.297443-0.588785 9.010974-0.588785c12.594885 0 24.268193 0.38399 35.019925 1.126372s20.81228 2.38074 30.156046 4.863878 18.149946 6.041449 26.39294 10.649334 16.127597 10.751731 23.628209 18.457139c2.79033 2.892728 5.478263 6.143846 8.0126 9.753356a74.238144 74.238144 0 0 1 11.494113 25.420164c1.20317 4.838279 1.791955 9.98375 1.791955 15.385216a95.792805 95.792805 0 0 1-1.663959 17.381965 115.529912 115.529912 0 0 1-30.540036 54.680233c-6.963026 6.963026-14.566036 12.978876-22.885828 18.073148s-16.895578 9.548561-25.804155 13.337267-17.945151 7.091023-27.160921 9.906952-18.149946 5.299068-26.853728 7.500613h0.153596c-3.891103 1.20317-8.089398 2.252744-12.594885 3.148721s-9.062173 1.638359-13.644459 2.252744-9.164571 1.075173-13.721257 1.433564-8.831779 0.537587-12.82528 0.537586c-4.40309 0-8.089398-0.281593-11.110122-0.819179s-5.427064-1.305567-7.270218-2.252744-3.174321-2.022349-3.967901-3.225519-1.20317-2.508737-1.20317-3.891103c0-1.99675 0.563186-4.070298 1.715157-6.220644s3.071923-4.223894 5.657459-6.118247z m65.99515-43.058124l-3.737507 15.743607c-1.279968 5.401465-2.559936 10.700532-3.737506 15.897202l3.455913-0.742381a309.470663 309.470663 0 0 0 21.913053-5.990251 212.986675 212.986675 0 0 0 32.639184-12.978875 178.427539 178.427539 0 0 0 34.866328-22.297043c5.401465-4.40309 10.137347-9.113372 14.258844-14.182045s7.372616-10.342141 9.830154-15.897203 3.686308-11.314917 3.686308-17.330766c0-6.092648-1.20317-11.878103-3.60951-17.330767s-5.631859-10.495738-9.676558-15.154821-8.754981-8.80618-14.105248-12.441289-10.982125-6.732632-16.76758-9.343767-11.673308-4.582285-17.61236-5.913452-11.570911-2.022349-16.869978-2.022349c-7.500612 19.404315-13.900452 39.090223-19.19952 59.108922s-10.41894 40.267793-15.334017 60.875278zM715.054124 553.176571c-0.79358 1.20317-1.817555 3.276718-3.071924 6.220644s-2.559936 6.348641-3.891102 10.188545-2.687933 7.935802-4.044699 12.236494-2.611135 8.319792-3.737507 12.082898-2.124747 7.039824-2.918327 9.906953-1.305567 4.735882-1.510362 5.631859c-0.204795 1.100772-0.563186 2.739132-1.126372 4.940676l-1.433564 5.708658c11.21252-3.788705 22.271443-6.937427 33.227969-9.446164a146.940326 146.940326 0 0 1 39.679008-3.583911c2.81593 0.102397 5.555061 0.486388 8.242994 1.126372s5.017475 1.663958 6.963026 3.071923 2.918327 3.404715 2.918327 5.990251l-0.153596 1.868753a18.252344 18.252344 0 0 1-3.225519 8.473388 9.036574 9.036574 0 0 1-4.275093 3.302318c-1.100772-0.102397-2.175946-0.153596-3.22552-0.153597h-3.225519c-7.091023 0-14.233244 0.614385-21.375466 1.868754s-14.361241 2.943926-21.60586 5.094272-14.463638 4.710282-21.682658 7.654209-14.38684 6.067048-21.58026 9.369366l-15.154821 65.559961c-0.204795 1.689558-1.023974 3.225519-2.483138 4.582285s-2.867128 2.022349-4.275093 2.02235h-3.60951c-3.788705 0-6.425439-1.561561-7.884603-4.659084s-2.175946-7.091023-2.175945-12.0061c0-4.095898 0.358391-8.575786 1.049573-13.414064s1.510362-9.574161 2.40634-14.182046l2.40634-12.594885c0.716782-3.788705 1.049574-6.707032 1.049574-8.703782-1.20317-1.689558-2.40634-3.507112-3.60951-5.401465s-1.791955-4.249494-1.791955-7.039824c0-4.40309 1.151971-7.910202 3.455913-10.495738s5.350266-5.145471 9.138972-7.654209c0.40959-0.307192 0.81918-0.844779 1.279968-1.638359s0.844779-1.689558 1.20317-2.687932 0.639984-1.99675 0.895977-2.995126l0.665584-2.559936 6.143846-22.194645a1206.216245 1206.216245 0 0 1 16.127597-54.526636l3.967901-12.082898c0.40959-1.305567 1.075173-3.148721 2.022349-5.555062s2.099148-4.761481 3.455914-7.039824 2.867128-4.300692 4.582285-5.99025 3.558311-2.559936 5.555061-2.559936c4.505487 0 7.577411 0.38399 9.21577 1.126372s2.713532 1.715157 3.225519 2.918327l1.356766 3.302318c1.61276-0.204795 3.865503-0.563186 6.83503-1.126372s5.99025-1.177571 9.138971-1.868754 6.067048-1.382365 8.780581-2.022349 4.659084-1.177571 5.862253-1.58716c6.707032-1.791955 12.850879-3.353516 18.457139-4.659084s10.905327-2.38074 15.897202-3.225519 9.804555-1.484763 14.41244-1.868754 9.241369-0.588785 13.951651-0.588785c2.201545 0 4.249494 0.102397 6.143846 0.307193s3.532712 0.563186 4.863879 1.126371 2.431939 1.356766 3.225519 2.40634 1.20317 2.431939 1.20317 4.121497a14.617235 14.617235 0 0 1-2.534336 7.423815 15.61561 15.61561 0 0 1-9.471764 6.502237c-0.691183 0.204795-1.945551 0.486388-3.737506 0.81918l-6.220645 1.126371-7.500612 1.279968-7.577411 1.279968c-3.788705 0.895978-8.063798 1.868753-12.825279 2.918327s-9.702157 2.227144-14.847629 3.532712-10.316542 2.687933-15.513212 4.198295-10.111747 3.046324-14.694033 4.659084-8.729382 3.251119-12.364491 4.940676-6.553436 3.430314-8.652583 5.22227z" fill="#FFFFFF" p-id="10267"></path></svg>