<?xml version="1.0" standalone="no"?><!DOCTYPE svg PUBLIC "-//W3C//DTD SVG 1.1//EN" "http://www.w3.org/Graphics/SVG/1.1/DTD/svg11.dtd"><svg t="1632465063510" class="icon" viewBox="0 0 1024 1024" version="1.1" xmlns="http://www.w3.org/2000/svg" p-id="2661" xmlns:xlink="http://www.w3.org/1999/xlink" width="200" height="200"><defs><style type="text/css"></style></defs><path d="M1023.978667 862.826667a161.152 161.152 0 0 1-161.173334 161.173333h-701.632a161.152 161.152 0 0 1-161.173333-161.173333v-701.632a161.194667 161.194667 0 0 1 161.173333-161.173334h701.632a161.194667 161.194667 0 0 1 161.173334 161.173334v701.632z" fill="#05B711" p-id="2662"></path><path d="M218.56 208.064h586.816v66.090667h-586.816zM754.389333 601.557333v-258.410666h-484.8v258.410666h484.8z m-414.506666-192.384h344.917333v126.357334h-344.917333v-126.357334zM649.493333 750.506667c21.098667-32.298667 41.002667-69.738667 59.434667-112.256l-70.506667-25.706667c-18.346667 50.368-39.701333 96.426667-64 137.941333h-122.709333c-20.373333-53.802667-43.328-99.818667-69.077333-137.941333l-64.853334 25.706667c26.752 40.128 48.32 77.482667 64.853334 112.256h-180.693334v65.386666h620.053334v-65.386666h-172.501334z" fill="#FFFFFF" p-id="2663"></path></svg>