<?xml version="1.0" standalone="no"?><!DOCTYPE svg PUBLIC "-//W3C//DTD SVG 1.1//EN" "http://www.w3.org/Graphics/SVG/1.1/DTD/svg11.dtd"><svg t="1632476106571" class="icon" viewBox="0 0 1024 1024" version="1.1" xmlns="http://www.w3.org/2000/svg" p-id="3384" xmlns:xlink="http://www.w3.org/1999/xlink" width="200" height="200"><defs><style type="text/css"></style></defs><path d="M812.629333 370.688a248.32 248.32 0 0 1 166.826667 234.538667c0 147.2-113.066667 248.149333-283.221333 248.149333H352.853333C160.853333 853.333333 42.666667 750.037333 42.666667 594.218667c0-130.218667 82.773333-228.650667 193.365333-247.765334 35.669333-114.389333 141.525333-188.16 272.938667-188.16 139.904 0 255.061333 87.04 303.658666 212.394667z m-93.610666 396.586667c111.018667-7.466667 175.104-70.4 175.104-162.048a162.858667 162.858667 0 0 0-57.429334-124.16c0.512 8.149333 0.768 16.426667 0.768 24.746666 0 106.410667-44.245333 198.741333-118.442666 261.461334z m-264.448-173.482667c-48.128 80.128-146.048 90.368-214.912 42.325333l48.768-69.973333c31.36 21.845333 72.661333 17.493333 93.013333-16.298667 28.714667-47.829333-8.746667-111.658667-88.277333-120.448C202.368 419.413333 128 488.96 128 594.218667 128 700.16 205.653333 768 352.810667 768h116.992c167.594667 0 282.325333-111.786667 282.325333-262.229333 0-147.754667-105.728-262.186667-243.157333-262.186667-84.864 0-151.765333 40.192-182.357334 104.874667 122.88 26.752 186.752 147.370667 128 245.290666z" fill="#2980FF" p-id="3385"></path></svg>