<svg xmlns="http://www.w3.org/2000/svg" viewBox="0 0 24.3 24.29"><title>pin-tab</title><path d="M12.15,24.29a1.14,1.14,0,0,1-.65-.2l-11-7.28a.91.91,0,0,1-.32-.3h0l0-.05A1.24,1.24,0,0,1,0,15.82V8.45a1.23,1.23,0,0,1,.18-.63l0-.06a1,1,0,0,1,.32-.29L11.5.19a1.22,1.22,0,0,1,1.3,0l11,7.28a1,1,0,0,1,.32.29h0a.1.1,0,0,1,0,.05,1.23,1.23,0,0,1,.18.63v7.37a1.24,1.24,0,0,1-.18.64l0,.05a1,1,0,0,1-.32.3l-11,7.28A1.14,1.14,0,0,1,12.15,24.29Zm1.15-7.84V21l7.78-5.17-3.43-2.31ZM3.22,15.83,11,21V16.45L6.65,13.52Zm5.49-3.69,3.44,2.31,3.44-2.31L12.15,9.82Zm11,0L22,13.68V10.6ZM2.3,10.6v3.08l2.29-1.54Zm11-2.77,4.35,2.92,3.43-2.3L13.3,3.28ZM3.22,8.45l3.43,2.3L11,7.83V3.28Z"/></svg>