<?xml version="1.0" standalone="no"?>
<!DOCTYPE svg PUBLIC "-//W3C//DTD SVG 1.1//EN" "http://www.w3.org/Graphics/SVG/1.1/DTD/svg11.dtd"><svg t="1655695391719"
    viewBox="0 0 1024 1024" version="1.1" xmlns="http://www.w3.org/2000/svg" p-id="14056"
    xmlns:xlink="http://www.w3.org/1999/xlink" width="128" height="128">
    <defs>
        <style type="text/css">
            @font-face {
                font-family: feedback-iconfont;
                src: url("//at.alicdn.com/t/font_1031158_u69w8yhxdu.woff2?t=1630033759944") format("woff2"), url("//at.alicdn.com/t/font_1031158_u69w8yhxdu.woff?t=1630033759944") format("woff"), url("//at.alicdn.com/t/font_1031158_u69w8yhxdu.ttf?t=1630033759944") format("truetype");
            }
        </style>
    </defs>
    <path
        d="M408.995422 252.046064c9.659654-28.118993 40.278558-43.088457 68.39755-33.428803l137.515076 47.218309c66.497619 22.879181 101.906351 95.256589 78.937173 161.594214-11.479589 33.568798-36.328699 60.057849-66.767609 73.97735-28.76897 13.529516-62.687755 16.289417-95.406583 4.899825-28.078994-9.76965-42.928463-40.448552-33.158813-68.527546 4.899825-14.079496 15.059461-24.83911 27.509015-30.828896l23.339164 48.508263c19.049318 6.629763 38.508621 4.969822 55.078028-2.899896 17.389377-7.869718 31.888858-23.18917 38.508621-42.648473 13.249526-38.098636-7.039748-79.917138-45.548369-93.176663l-137.485077-47.20831 32.798826 68.177559-50.2782-17.269382c-28.128993-9.649654-43.098457-40.268558-33.438802-68.387551z"
        fill="#FFFFFF" p-id="14057"></path>
    <path
        d="M431.504616 272.795321c-9.399663 28.20899-39.888572 43.448444-68.097562 34.048781-0.449984-0.149995-0.899968-0.27999-2.569908-0.759973l-0.459983-0.129995c-0.01 0-0.01 0-0.019999-0.01-0.209992 0.059998-0.469983 0.159994-0.769973 0.319989-0.979965 0.529981-2.069926 1.549944-2.769901 3.089889l-50.828179 116.945812c-11.849576 27.269023-43.55844 39.768576-70.827464 27.909001-27.269023-11.849576-39.768576-43.55844-27.909001-70.827464l50.938176-117.195803 0.149995-0.329988c20.709258-46.788324 71.827428-76.78725 125.575503-65.207665 2.49991 0.539981 4.949823 1.249955 7.329737 2.129923 1.459948 0.419985 3.839862 1.10996 6.229777 1.909932 28.188991 9.409663 43.428445 39.898571 34.028782 68.107561z m-51.068171-17.02939c-1.639941-0.539981-3.279883-1.009964-4.629835-1.39995-1.729938-0.489982-2.999893-0.859969-3.239884-1.089961-26.919036-5.799792-53.828072 9.109674-65.017671 34.368769l-50.938176 117.195803L380.436445 255.765931z"
        fill="#FFFFFF" p-id="14058"></path>
    <path
        d="M267.220499 309.933991c0.619978 0.209992 4.239848 1.659941 7.869718 3.109889 3.61987 1.449948 7.24974 2.899896 7.869718 3.109888l41.60851 34.188776a53.770074 53.770074 0 0 0 9.469661-17.159385c9.249669-27.739007-5.339809-57.677935-32.648831-67.607579-0.299989-0.119996-0.759973-0.299989-1.38995-0.549981-1.339952-0.529981-3.06989-1.219956-4.899825-1.95993l-0.059997-0.019999c-1.769937-0.709975-3.63987-1.459948-5.149816-2.059926-0.759973-0.299989-1.529945-0.599979-2.189922-0.859969-0.329988-0.129995-0.729974-0.27999-1.139959-0.429985l-0.019999-0.009999c-0.239991-0.089997-1.179958-0.439984-2.269919-0.809971-0.399986-0.129995-0.789972-0.259991-1.189957-0.379987-14.24949-4.379843-34.35877-8.749687-56.257985-4.689832-24.339128 4.519838-44.838394 18.289345-59.577867 39.348591l-0.049998 0.079997c-12.409556 17.789363-26.749042 41.8885-37.438659 60.457835-5.469804 9.509659-10.229634 17.979356-13.619513 24.089137-1.699939 3.05989-3.05989 5.529802-4.009856 7.249741-0.469983 0.859969-0.83997 1.539945-1.099961 1.999928l-0.409985 0.759973 47.308306 25.68908-47.308306-25.67908-0.089997 0.159994c-6.489768 12.049568-11.539587 22.62919-15.699438 31.358877-0.249991 0.529981-0.499982 1.069962-0.729973 1.599943-16.769399 38.398625-22.599191 80.317124-17.799363 121.375653 0.019999 0.139995 0.029999 0.28999 0.049998 0.429985 1.709939 13.639512 4.029856 31.078887 8.769686 51.538154C98.936525 657.461546 112.866026 699.980023 123.995628 731.168906c2.879897 8.069711 5.329809 14.829469 7.419734 20.589263 6.789757 18.70933 9.729652 26.80904 10.869611 34.788754 0.489982 3.649869 0.349987 8.079711-0.55998 17.389378-0.069997 0.669976-0.139995 1.429949-0.229992 2.259919-0.809971 7.81972-2.309917 22.199205-0.539981 36.348698 3.029891 24.219133 10.669618 45.198381 23.729151 63.627721 12.439555 17.549372 27.849003 29.958927 41.31852 39.648581 0.129995 0.089997 0.259991 0.189993 0.389986 0.27999 27.63901 19.509301 83.117024 53.938068 206.162617 72.217413l0.139995 0.02c32.688829 4.769829 62.897748 6.359772 88.616827 5.389807 24.279131-0.909967 48.948247-4.219849 68.217557-12.109567 27.779005-11.219598 48.918248-29.678937 62.55776-43.958425 13.989499-14.649475 22.819183-27.829003 25.529086-32.078852 0.169994-0.27999 0.349987-0.54998 0.519981-0.82997 22.259203-36.428695 15.64944-70.92746 11.839576-87.926851 25.879073-23.979141 31.258881-29.898929 46.038351-47.138312 0.089997-0.109996 0.189993-0.219992 0.27999-0.329988 12.119566-14.369485 21.249239-24.279131 30.128921-33.918786 3.399878-3.689868 6.759758-7.339737 10.239634-11.179599l0.449984-0.459984c0.329988-0.339988 0.719974-0.739974 1.159958-1.199957 1.359951-1.40995 3.189886-3.299882 5.049819-5.249812 1.829934-1.909932 3.819863-3.989857 5.429806-5.729795 0.779972-0.82997 1.689939-1.809935 2.519909-2.739902 0.109996-0.119996 0.249991-0.27999 0.399986-0.449984 12.939537-12.909538 23.519158-18.669331 31.098886-21.139243 0.27999-0.089997 0.54998-0.179994 0.819971-0.279989 56.96796-19.569299 102.666323-41.648509 130.045343-96.406548 26.589048-53.178096 16.599406-106.1062-9.269668-144.584822-24.329129-36.188704-64.78768-63.017743-107.576148-67.947567-40.908535-4.869826-70.137488 3.019892-95.806569 17.999355-8.509695 4.969822-16.959393 10.979607-23.17917 15.419448-1.339952 0.949966-2.579908 1.839934-3.689867 2.619906-7.099746 4.989821-13.239526 9.009677-20.309273 12.57955-9.609656 4.489839-20.919251 0.799971-26.059067-8.599692-0.509982-1.299953-1.089961-2.629906-1.759937-3.979858-1.859933-5.539802-3.889861-15.859432-5.429806-34.34877-1.10996-13.379521-1.779936-27.689008-2.559908-44.368411-0.439984-9.369664-0.909967-19.479302-1.519945-30.588904-3.239884-59.457871-9.859647-135.265156-35.788719-219.532139l-0.049998-0.169994C582.229218 55.943087 524.671279-4.674743 449.773962 0.28508c-54.608044 3.229884-91.836711 30.238917-114.445902 66.797608-10.399628 16.789399-14.749472 35.428731-16.729401 51.288163-2.039927 16.349415-1.999928 33.648795-0.989965 50.398195 1.999928 33.358805 8.259704 70.567473 14.489482 104.286266 1.869933 10.129637 3.719867 19.869288 5.499803 29.208954 4.409842 23.16917 8.349701 43.888428 10.949607 61.98778 0.329988 2.279918 0.619978 4.439841 0.889969 6.499767l51.958139 42.698471c9.099674-16.059425-0.399986-65.997637-11.149601-122.515613-14.199492-74.687325-30.598904-160.864239-9.139672-195.522998C395.185916 72.632489 417.13513 56.073082 453.16384 54.003156c42.238487-2.899896 82.407049 33.128814 96.07656 77.027242 28.158992 91.526722 31.988854 172.953806 34.918749 235.421569 2.069926 44.078422 3.699868 78.727181 13.11953 100.82639 0.409985 0.409985 0.409985 0.409985 0.409986 0.82997 16.979392 38.508621 62.117776 55.078028 99.796426 36.85868 12.969536-6.479768 23.049175-13.649511 32.408839-20.299273 21.709223-15.429447 39.548584-28.098994 80.637113-23.17917 50.938176 5.799792 108.496115 67.907568 74.957315 134.995166-17.389377 34.788754-45.138384 50.938176-99.386441 69.567508-17.809362 5.799792-36.02871 17.389377-54.248057 36.02871-0.409985 0.82997-14.489481 15.319451-14.489481 15.319452-3.169886 3.519874-6.439769 7.059747-9.879646 10.789613-9.119673 9.889646-19.429304 21.079245-32.358841 36.418696-14.909466 17.389377-17.809362 20.709258-53.838072 53.838072-10.769614 9.76965-7.999714 21.949214-4.76983 36.098707 3.469876 15.239454 7.469733 32.778826-4.339844 52.098135-2.899896 4.549837-26.919036 40.578547-62.947746 55.078027-21.119244 8.699688-69.157523 12.00957-128.785388 3.309882-114.295907-16.979392-161.914202-48.03828-183.033446-62.947746-23.599155-16.979392-38.928606-33.128814-43.068457-66.257627-0.959966-7.669725-0.139995-15.869432 0.719974-24.569121 0.999964-10.079639 2.069926-20.829254 0.519981-32.168848-1.989929-14.069496-7.409735-28.918964-14.899466-49.438229-11.249597-30.818896-27.169027-74.407335-43.078458-147.254727-4.139852-17.809362-6.209778-33.128814-7.869718-46.378339-3.729866-31.888858 0.82997-64.187701 13.669511-93.586649 4.139852-8.699688 8.699688-18.219348 14.489481-28.988962 0 0 31.468873-57.977924 53.418087-89.446796 14.499481-20.689259 34.368769-20.689259 55.907998-14.059497z"
        fill="#FFFFFF" p-id="14059"></path>
    <path
        d="M459.8736 269.495439l137.485076 47.20831c38.508621 13.249526 58.797894 55.078028 45.548369 93.176663-6.629763 19.459303-21.119244 34.788754-38.508621 42.648473-16.569407 7.869718-36.02871 9.519659-55.078027 2.899896"
        fill="#FFFFFF" p-id="14060"></path>
    <path
        d="M434.864495 260.765752c4.829827-14.059497 20.139279-21.549228 34.198776-16.719401l137.495076 47.218309c52.50812 18.069353 80.357122 75.167308 62.247771 127.385438-9.049676 26.51905-28.728971 47.418302-52.638115 58.317912-22.669188 10.699617-49.358232 12.899538-75.237306 3.89986-14.039497-4.879825-21.459232-20.229276-16.579406-34.268773 4.879825-14.039497 20.229276-21.459232 34.268773-16.579406 12.129566 4.219849 24.269131 3.159887 34.688757-1.789936l0.449984-0.209993c10.739615-4.859826 19.939286-14.51948 24.129136-26.79904l0.059998-0.169994c8.329702-23.949142-4.389843-50.448193-28.878966-58.877891h-0.009999l-137.465078-47.19831c-14.079496-4.839827-21.559228-20.149278-16.729401-34.208775z"
        p-id="14061"></path>
    <path
        d="M379.126491 234.366697c-4.969822-80.747108-22.779184-112.215981-3.729866-142.864884 14.079496-22.359199 36.02871-38.928606 72.05742-41.408517 42.648473-2.479911 82.407049 33.128814 96.066559 77.027242 48.03828 156.114409 25.259095 282.419886 48.03828 336.247959 4.549837 11.1796 10.769614 21.529229 17.809362 30.638902 23.599155 30.638903 57.557939 39.338591 91.096738 20.709259 59.217879-33.128814 27.749006-55.488013 104.356263-50.938176 45.138384 2.479911 113.875922 62.527761 86.956886 134.995166-21.119244 57.147954-111.396011 44.308413-164.814098 85.71693-9.519659 7.449733-0.409985 12.83954-9.109674 23.18917-10.769614 13.249526-33.128814 35.19874-48.038279 53.008101-14.489481 17.809362-17.809362 21.119244-53.838072 53.838072-22.359199 20.289273 21.119244 53.828072-9.109674 88.206842-3.729866 4.139852-32.718828 43.478443-62.947746 55.078027-21.529229 8.279703-69.157523 12.419555-128.785388 3.309882-114.295907-16.979392-159.014306-45.138384-180.133549-60.04785-23.599155-16.979392-41.828502-29.818932-45.968354-63.357731-2.069926-16.559407 4.139852-41.828502 1.239955-62.947746-4.969822-35.19874-28.158992-84.476975-55.078027-205.81263-8.279703-37.268665-6.629763-81.167093-6.629763-81.167093 4.559837-37.268665 10.769614-52.178131 24.01914-78.677182 0 0 31.468873-60.86782 53.418087-89.446797 15.319451-20.289273 34.368769-21.119244 55.897998-14.079496 1.239956 0.409985 21.529229 6.209778 22.779185 6.629762 0 0 24.01914-65.017672 53.828072-70.397479 29.818932-5.379807 41.408517 0 41.408517 0v-7.449733h-0.789972z"
        fill="#FFFFFF" p-id="14062"></path>
    <path
        d="M577.41939 949.71108c-2.899896 1.659941-31.468873 14.909466-36.028709 5.379808-2.899896-6.209778-16.149422-40.168562-19.049318-67.497583-2.899896-28.568977-2.899896-56.727969-2.479911-56.727969 10.769614-3.729866 74.127345 14.079496 73.70736-4.969822 0-9.109674 6.619763-6.629763 9.109674 0.409986 7.039748 20.289273 21.529229 33.128814 9.109674 75.367301-12.00957 42.658472-21.529229 41.828502-34.36877 48.038279zM392.366017 240.876464s-27.329021 6.619763-28.158991 11.1796c-10.349629 47.618295-27.329021 127.545433-27.329022 147.42472 0.82997 46.788324 58.797894 50.518191 79.507153 33.958784 22.359199-17.809362-24.01914-192.563104-24.01914-192.563104zM257.290854 414.040263s-12.419555 9.109674-8.699688 11.1796c1.659941 0.82997-1.239956 1.239956-1.239956 1.239955-10.769614 0-25.259095-5.379807-28.988962-16.979392-3.309881-10.349629 2.069926-19.459303 2.489911-19.879288l40.168562-71.637434c3.309881-4.969822 21.949214-7.039748 27.739007-4.969822 0.82997 0.419985 1.239956 0.419985 1.239955 0.82997l-32.708829 100.216411zM443.1142 73.342464c9.519659 0 29.818932 12.00957 43.898428 40.578546 14.079496 29.398947 24.84911 79.507153 31.058888 139.135018 2.899896 29.818932 6.209778 102.286337 9.519659 142.864884 4.559837 53.418087 18.219348 88.206841 39.338591 109.73607 31.888858 32.298843 69.567509 47.208309 93.176663 50.518191 25.67908 3.729866 53.008102-6.209778 52.588117-6.209778-2.069926-1.659941-11.1796-4.549837-10.349629-5.379807 2.479911-2.069926-7.869718-3.309881-8.279704-4.139852-0.409985-2.069926-67.497583-8.699688-62.117775-5.799792 0 0-57.977924-17.389377-62.117776-89.446797-3.729866-71.227449 4.549837-379.316416-131.265299-376.41652-1.659941 0-10.769614 3.729866-4.969822 4.559837 2.069926 0.82997 6.209778 0 9.519659 0z"
        fill="#D9D9D9" p-id="14063"></path>
    <path
        d="M845.2198 480.087898c14.909466 0-31.468873-12.83954-33.128813-13.249526-29.818932-2.899896-35.608725 8.279703-59.21788 21.949214-39.758576 23.18917-93.176663 21.119244-81.167093 36.02871 0 0-4.139852 14.909466 14.079496 20.289273 13.66951 4.139852 21.529229 5.799792 28.988962 3.309882 6.209778-2.069926 24.84911-11.1796 37.268665-20.709258 20.709258-16.559407 33.128814-28.988962 40.578547-33.128814 16.989392-8.689689 36.86868-14.489481 52.598116-14.489481z"
        fill="#D9D9D9" p-id="14064"></path>
    <path
        d="M451.873886 27.134118c58.577902-3.929859 107.426153 44.39841 123.455579 95.886567l0.029999 0.089996c24.969106 81.167093 31.438874 154.42447 34.63876 213.08237 0.579979 10.539623 1.039963 20.399269 1.469947 29.688937 0.799971 17.069389 1.509946 32.198847 2.659905 46.038351 1.66994 20.039282 4.059855 33.728792 7.519731 42.858465 0.149995 0.26999 0.299989 0.55998 0.449984 0.84997 0.55998 1.10996 1.009964 2.199921 1.36995 3.249883 11.349594 23.369163 39.168597 33.118814 62.547761 21.919215 8.919681-4.47984 16.379413-9.409663 23.959142-14.729472 1.359951-0.959966 2.7799-1.969929 4.249847-3.009892 6.249776-4.449841 13.389521-9.519659 20.719258-13.799506 20.599262-12.01957 43.968425-18.70933 79.117167-14.509481 34.128778 3.90986 67.917568 25.819075 88.366836 56.227987 21.21924 31.55887 29.218954 74.177344 7.52973 117.535791-22.389198 44.768397-59.107883 63.887712-114.715892 82.987028-0.139995 0.049998-0.26999 0.089997-0.409985 0.139995-12.589549 4.099853-26.929036 12.689546-42.478479 28.378984-0.28999 0.339988-0.55998 0.639977-0.769972 0.879968-0.629977 0.699975-1.369951 1.509946-2.109925 2.299918-1.499946 1.599943-3.389879 3.589871-5.199814 5.479804-1.819935 1.899932-3.62987 3.769865-4.969822 5.159815-0.669976 0.699975-1.229956 1.269955-1.619942 1.67994l-0.27999 0.289989c-3.329881 3.679868-6.649762 7.279739-10.069639 10.989607-9.009677 9.77965-18.729329 20.319272-31.238881 35.16874l-0.139995 0.169994c-15.729437 18.349343-19.569299 22.569192-54.978032 55.138026 0.169994 2.219921 0.889968 5.5898 2.559909 12.959536 3.489875 15.399449 9.409663 41.978497-7.989714 70.447477-0.049998 0.079997-0.099996 0.159994-0.149995 0.249991l-0.109996 0.169994c-2.079926 3.259883-9.859647 14.919466-22.289202 27.948999-12.249561 12.829541-30.328914 28.378984-53.218094 37.608653-14.919466 6.119781-35.908714 9.279668-59.087884 10.149637-23.909144 0.899968-52.478121-0.56998-83.727002-5.129817l-0.069997-0.009999c-118.67575-17.629369-170.223904-50.368196-194.603031-67.57758l-0.199993-0.139995c-12.639547-9.089674-25.209097-19.439304-35.078744-33.358806-10.179635-14.369485-16.429412-31.018889-18.97932-51.408159-1.359951-10.869611-0.209992-22.109208 0.609978-30.258916 0.079997-0.819971 0.159994-1.609942 0.239991-2.369915 0.929967-9.409663 1.40995-16.629404 0.439985-23.72915-1.559944-10.999606-5.719795-22.439196-12.959536-42.308485-1.979929-5.449805-4.19985-11.529587-6.649762-18.409341-10.839612-30.398911-24.429125-71.837427-37.968641-133.77521-4.439841-19.129315-6.639762-35.518728-8.319702-48.958246l-0.029999-0.209993c-4.259847-36.468694 0.929967-73.577365 15.729437-107.486151 0.119996-0.26999 0.239991-0.539981 0.369987-0.799971 4.149851-8.709688 8.94968-18.769328 15.099459-30.178919l0.039999-0.079997 23.659153 12.83954-23.659153-12.83954v-0.01l0.009999-0.01 0.379987-0.689975c0.249991-0.449984 0.599979-1.10996 1.069962-1.94993 0.919967-1.67994 2.259919-4.109853 3.939858-7.119745 3.33988-6.019784 8.029712-14.369485 13.41952-23.72915 10.649619-18.489338 24.499123-41.728506 36.188704-58.487906l0.029999-0.039999c10.989606-15.699438 25.539085-25.179098 42.44848-28.318985 15.679439-2.909896 30.918893 0.099996 43.428445 3.949858 0.199993 0.059998 0.399986 0.119996 0.599978 0.189993 0.84997 0.27999 1.799936 0.649977 2.149923 0.789972l0.059998 0.019999c0.56998 0.219992 1.269955 0.499982 2.009928 0.789972 1.479947 0.589979 3.33988 1.329952 5.139816 2.049927 1.819935 0.729974 3.589871 1.439948 4.979822 1.989928 0.699975 0.27999 1.249955 0.499982 1.639941 0.649977 0.119996 0.049998 0.209992 0.079997 0.26999 0.099996 13.779507 4.889825 21.159242 19.939286 16.509409 33.868788-4.699832 14.099495-19.949286 21.729222-34.048781 17.01939-0.899968-0.299989-1.909932-0.699975-2.209921-0.809971-0.579979-0.219992-1.269955-0.499982-2.009928-0.789972-1.479947-0.589979-3.329881-1.329952-5.129816-2.039927l-0.01-0.009999c-1.819935-0.729974-3.589871-1.439948-4.979821-1.989929-0.639977-0.249991-1.149959-0.459984-1.539945-0.599978-8.589692-2.569908-13.849504-2.839898-17.02939-2.24992-2.039927 0.379986-4.669833 1.259955-8.169708 6.239777-10.259633 14.709473-23.109172 36.188704-33.678794 54.538047-5.219813 9.069675-9.76965 17.179385-13.019533 23.009176-1.619942 2.919895-2.909896 5.259812-3.789865 6.869754l-1.009964 1.839934-0.249991 0.469983-0.029998 0.059998c-0.01 0.01-0.019999 0.029999-0.02 0.039998-5.359808 9.949644-9.599656 18.799327-13.66951 27.339021-10.729616 24.769113-14.589478 52.078135-11.439591 79.197164 1.619942 12.989535 3.559873 27.149028 7.359737 43.508442 0.029999 0.119996 0.049998 0.229992 0.079997 0.349988 12.949536 59.307876 25.849074 98.556471 36.118707 127.345439 1.839934 5.149816 3.669869 10.159636 5.449804 15.019463 7.619727 20.819254 14.339486 39.158598 16.7594 56.307983l0.01 0.099997c1.919931 14.009498 0.749973 26.859038-0.189993 36.368697l-0.01 0.109996c-1.039963 10.61962-1.569944 15.989427-0.999964 20.579263 1.589943 12.739544 5.069818 20.729258 9.48966 26.959035 4.719831 6.659762 11.579585 12.859539 22.489195 20.719258 17.919358 12.649547 61.647792 41.938498 171.333864 58.227915 28.358984 4.129852 53.61808 5.359808 73.907353 4.599835 20.969249-0.779972 34.518764-3.61987 40.708543-6.169779l0.199992-0.079997c13.079532-5.259812 24.999105-14.949465 34.468766-24.879109 8.919681-9.349665 14.50948-17.659368 15.679439-19.479303 5.229813-8.699688 4.509839-16.079424 1.299953-30.268916-0.129995-0.579979-0.26999-1.199957-0.429985-1.859933-1.439948-6.209778-3.669869-15.869432-3.489875-25.249096 0.239991-12.529551 4.579836-25.67908 16.399413-36.438695 35.088743-32.258845 37.568655-35.168741 50.968175-50.788181l0.449984-0.529981c0.019999-0.029999 0.049998-0.059998 0.069997-0.079998 13.319523-15.789435 24.219133-27.619011 33.398804-37.578654 3.33988-3.61987 6.449769-6.999749 9.369665-10.229633 0.219992-0.239991 0.439984-0.479983 0.669976-0.709975l0.589979-0.609978c0.309989-0.319989 0.739974-0.759973 1.249955-1.289954l0.329988-0.339988c1.309953-1.349952 3.049891-3.159887 4.799828-4.989821 1.759937-1.839934 3.469876-3.62987 4.729831-4.979822 0.409985-0.439984 0.739974-0.789972 0.969965-1.049962 0.029999-0.029999 0.059998-0.069997 0.089997-0.099997 0.56998-0.709975 1.159958-1.38995 1.799935-2.039927 20.489266-20.959249 42.228488-35.288736 64.937675-42.728469 52.738111-18.129351 71.47744-31.318878 83.866997-56.087992 11.859575-23.719151 7.849719-45.708363-4.059855-63.427729-12.669546-18.839325-33.088815-30.878894-49.858215-32.788825l-0.159994-0.02c-23.609155-2.829899-35.218739 1.459948-45.668364 7.54973-5.03982 2.939895-9.659654 6.219777-15.64944 10.479625-1.709939 1.209957-3.529874 2.49991-5.499803 3.88986-8.419698 5.909788-18.459339 12.649547-30.99889 18.919323-0.059998 0.029999-0.109996 0.059998-0.169994 0.079997-0.049998 0.019999-0.099996 0.049998-0.149994 0.069998-51.228165 24.769113-112.54597 2.379915-135.875135-49.618224-0.28999-0.56998-0.56998-1.149959-0.81997-1.739937-7.509731-17.619369-10.579621-39.288593-12.419556-61.4478-1.229956-14.759471-2.019928-31.578869-2.859897-49.378232-0.429985-9.089674-0.869969-18.42934-1.379951-27.879001-3.109889-57.067956-9.279668-125.205516-32.328842-200.142833-11.299595-36.228703-42.688471-59.897855-68.517546-58.127918-0.099996 0.01-0.199993 0.01-0.29999 0.019999-26.649046 1.529945-40.908535 12.84954-50.698184 28.688973l-0.01 0.009999c-1.869933 3.019892-4.019856 8.839683-5.259811 18.779328-1.209957 9.689653-1.349952 21.629225-0.519982 35.578726 1.67994 27.958999 7.089746 60.88782 13.289524 94.456617 1.649941 8.919681 3.35988 17.939358 5.069819 26.889037 4.559837 23.959142 9.019677 47.448301 11.909573 67.477584 1.989929 13.839504 3.399878 27.129028 3.479876 38.628616 0.069997 10.259633-0.749973 24.049139-7.139745 35.328735-7.329738 12.929537-23.759149 17.479374-36.688686 10.149637-12.669546-7.179743-17.289381-23.089173-10.579621-35.888715h-0.01c-0.069997-0.019999 0.639977-2.459912 0.589979-9.20967-0.059998-7.889717-1.069962-18.379342-2.929895-31.338878-2.699903-18.739329-6.809756-40.368554-11.269596-63.827714-1.749937-9.20967-3.559873-18.70933-5.349809-28.428982-6.219777-33.668794-12.199563-69.457513-14.089495-101.016383-0.949966-15.819433-0.929967-31.328878 0.82997-45.458372 1.729938-13.879503 5.349808-28.238989 12.899538-40.438552 18.359343-29.668938 47.948283-51.468157 93.26666-54.118062z m126.765461 459.173557c0.139995 0.129995 0.109996 0.109996 0 0 0-0.01 0-0.01 0 0z m-7.469733-17.959357c-0.01-0.369987 0-0.509982 0-0.249991v0.249991z"
        p-id="14065"></path>
    <path
        d="M210.482531 468.958296c3.309881 4.969822-3.309881 10.349629-5.379808 22.779185-0.82997 5.379807-0.82997 8.699688 0.829971 13.249525 0.82997 3.729866 9.939644 19.879288-4.969822 15.739437-7.869718-2.069926-15.739436-8.699688-17.389378-19.879289-2.069926-11.1796 3.309881-22.359199 12.00957-28.988961 7.449733-4.969822 13.249526-4.969822 14.899467-2.899897zM331.288205 441.669274c5.379807 6.629763-3.729866 14.489481-5.379808 32.298843-0.82997 7.869718-0.409985 12.00957 2.069926 18.639332 1.659941 4.969822 15.319451 26.919036-5.379807 22.779185-11.1796-2.479911-22.779184-11.1796-26.499051-26.919036-3.729866-15.319451 2.489911-31.468873 14.909466-41.828502 9.519659-7.869718 18.209348-7.869718 20.279274-4.969822z"
        fill="#D9D9D9" p-id="14066"></path>
    <path
        d="M283.349921 276.73518c15.949429-36.01871 54.968032-58.477906 95.296588-49.788217 1.529945 0.329988 3.029891 0.789972 4.46984 1.37995 0.129995 0.029999 0.259991 0.069997 0.419985 0.119996 1.309953 0.369987 3.569872 1.009964 5.829791 1.769937 14.099495 4.699832 21.729222 19.939286 17.01939 34.048781-4.699832 14.099495-19.939286 21.729222-34.04878 17.01939-1.029963-0.339988-2.069926-0.639977-3.479876-1.039963-0.189993-0.049998-0.379986-0.109996-0.579979-0.169994l-0.019999-0.009999c-0.609978-0.169994-1.66994-0.479983-2.699904-0.809971-12.989535-1.939931-26.79904 5.369808-32.94882 19.199312l-50.898177 117.095807c-5.929788 13.629512-21.77922 19.879288-35.418732 13.9595s-19.879288-21.77922-13.9595-35.418732l50.938176-117.185803 0.079997-0.169994z"
        p-id="14067"></path>
    <path
        d="M711.344595 551.005358c-5.379807 2.069926-10.769614 3.309881-15.739437 3.729867-5.379807 0.82997-10.349629 0.82997-15.739436 0.82997-4.969822-0.409985-10.349629-0.82997-15.319452-1.659941-2.479911-0.419985-4.969822-1.239956-7.449733-1.65994-2.489911-0.82997-4.969822-1.239956-7.449733-2.069926-19.049318-6.209778-36.438695-17.389377-50.518191-31.888858-7.039748-7.039748-13.249526-15.319451-18.629333-24.01914-4.969822-8.699688-9.519659-17.809362-12.00957-27.749006-5.799792-19.459303-6.209778-40.578547 0.829971-60.87782l0.409985-1.239956c0.409985-0.82997 1.239956-1.239956 2.069926-1.239955 0.409985 0 0.82997 0.409985 1.239955 0.82997 6.209778 16.149422 12.83954 32.298843 21.949214 46.788324l3.309882 5.379808 1.65994 2.899896 2.069926 2.479911 7.449733 10.349629c2.479911 3.309881 5.379807 6.619763 8.279704 9.939644l4.139852 4.969823 4.549837 4.549837c2.899896 2.899896 5.799792 6.209778 9.109674 9.109673l9.519659 8.279704 10.349629 7.869718 10.769614 7.449733c3.729866 2.479911 7.449733 4.559837 10.769615 6.629763 3.729866 2.069926 7.449733 4.139852 11.179599 6.209777 7.449733 4.139852 15.319451 7.449733 23.599155 10.34963 0.82997 0.409985 1.239956 1.239956 1.239956 2.069926 0 0.409985-0.409985 0.82997-0.82997 1.239955l-0.809971 0.449984zM522.581354 828.965404c13.249526-0.82997 26.499051-3.309881 38.508621-7.039748 12.00957-3.729866 23.18917-8.699688 33.128814-14.909466 1.239956-0.82997 2.479911-1.659941 3.729866-2.489911 1.239956-0.82997 2.069926-2.069926 3.309882-2.899896l3.309881-2.899896c0.82997-0.82997 2.069926-1.659941 2.899896-2.899896 2.069926-2.069926 3.729866-4.139852 6.209778-5.379807 1.239956-0.82997 2.479911-1.239956 3.309881-2.069926 1.239956-0.82997 2.479911-1.239956 3.729867-2.069926 5.379807-2.069926 10.769614-4.549837 17.389377-6.629763 3.309881-0.82997 6.619763-2.069926 10.34963-2.899896 3.729866-0.82997 7.869718-2.069926 12.83954-2.479911h0.409985c1.659941 0 3.309881 1.239956 3.729867 2.899896 2.899896 18.639333-3.309881 34.788754-14.079496 46.798324-2.899896 2.899896-5.379807 6.209778-9.109674 8.279704-3.309881 2.069926-7.039748 3.729866-10.769614 5.379807-3.729866 1.239956-7.869718 2.069926-11.599585 3.309882l-5.799792 1.65994c-2.069926 0.409985-3.729866 0.82997-5.799793 1.239956-15.319451 3.729866-30.638903 4.559837-45.548369 2.899896-14.909466-2.069926-28.988962-5.799792-41.828502-12.419555-1.239956-0.82997-1.659941-2.069926-0.82997-3.309882 0.439984-1.659941 1.269955-2.069926 2.50991-2.069926zM269.270425 804.466282c-12.419555 0-24.84911-2.899896-36.85868-7.449734-2.899896-1.239956-5.799792-2.479911-8.699688-3.729866l-8.699689-4.549837-8.279703-5.379807c-2.899896-2.069926-4.969822-4.139852-7.869718-6.209778-2.489911-2.069926-4.969822-4.139852-7.459733-6.629763-2.479911-2.069926-5.379807-4.559837-7.449733-7.039748-2.489911-2.479911-4.559837-5.379807-6.209778-8.279703-1.659941-2.899896-2.899896-6.209778-4.139852-9.519659-3.729866-12.83954-3.729866-27.329021 3.729867-40.998532 0.82997-1.239956 2.069926-1.659941 3.309881-0.82997 6.629763 4.549837 10.769614 9.109674 15.319452 13.249525 4.559837 4.139852 7.449733 8.279703 10.769614 12.419556 1.659941 2.069926 2.899896 4.139852 4.139852 6.209777 1.239956 2.069926 2.479911 4.549837 3.309881 6.629763 0.409985 1.239956 0.82997 2.479911 1.239956 3.729866l1.65994 3.729867 1.659941 3.729866c0.409985 1.239956 1.239956 2.069926 2.069926 3.309882 5.799792 8.699688 12.83954 16.979392 21.119243 24.429125 8.279703 7.449733 17.389377 14.079496 27.749007 19.879288 0.82997 0.409985 1.239956 1.659941 0.82997 2.489911 0 0.809971-0.409985 1.219956-1.239956 0.809971z"
        p-id="14068"></path>
</svg>