<svg width="36" height="36" viewBox="0 0 36 36" xmlns="http://www.w3.org/2000/svg" xmlns:xlink="http://www.w3.org/1999/xlink" class="Logo"><g><path fill="#31303A" d="M18 0c9.941 0 18 8.059 18 18s-8.059 18-18 18S0 27.941 0 18 8.059 0 18 0zm0 19.414L22.586 24h-9.172L18 19.414zm6-6v9.172L19.414 18 24 13.414zm-12 9.172v-9.172L16.586 18 12 22.586zm13.376 3.34a.997.997 0 0 0 .55-.55l-.005.013A.997.997 0 0 0 26 25V11c0-.89-1.077-1.337-1.707-.707L18 16.586l-6.293-6.293C11.077 9.663 10 10.109 10 11v14a1 1 0 0 0 1 1h14c.138 0 .27-.028.39-.079l-.014.006z"></path></g></svg>
