<svg xmlns="http://www.w3.org/2000/svg" xmlns:xlink="http://www.w3.org/1999/xlink" width="64" height="64" viewBox="0 0 64 64">
    <defs>
        <path id="a" d="M13.783 2.295C7.941 3.62 3.955 6.748 2.48 12.473A73.324 73.324 0 0 0 .078 31.027c0 6.149.71 12.298 2.183 18.235 1.42 5.672 5.08 9.223 11.03 10.55a84.527 84.527 0 0 0 36.805 0c5.843-1.325 9.83-4.453 11.304-10.232a73.324 73.324 0 0 0 2.403-18.553c0-6.149-.71-12.3-2.184-18.236-1.42-5.672-5.079-9.224-11.031-10.549C44.472.917 38.3.228 32.077.228c-6.171 0-12.341.69-18.294 2.067z"/>
        <linearGradient id="b" x1="100%" x2="0%" y1="50%" y2="50%">
            <stop offset="0%" stop-color="#EA6529"/>
            <stop offset="100%" stop-color="#F19033"/>
        </linearGradient>
    </defs>
    <g fill="none" fill-rule="evenodd">
        <path fill="#A95113" d="M62.795 33.2c0-6.129-.7-12.259-2.15-18.178-1.4-5.654-5.004-9.194-10.867-10.515a82.309 82.309 0 0 0-36.256 0C7.82 5.88 3.893 8.999 2.44 14.706.827 20.783.074 26.966.074 33.2c0 6.13.7 12.26 2.15 18.178 1.4 5.655 5.004 9.195 10.867 10.516a82.292 82.292 0 0 0 36.256 0c5.756-1.32 9.682-4.439 11.135-10.199 1.56-6.024 2.313-12.26 2.313-18.495"/>
        <path fill="#FFF" d="M13.576 2.288C7.819 3.608 3.893 6.726 2.44 12.434A73.912 73.912 0 0 0 .074 30.928c0 6.13.7 12.26 2.151 18.18C3.624 54.76 7.228 58.3 13.091 59.622a82.309 82.309 0 0 0 36.256 0c5.756-1.321 9.682-4.439 11.135-10.2a73.887 73.887 0 0 0 2.368-18.495c0-6.129-.7-12.26-2.152-18.177-1.4-5.654-5.003-9.195-10.866-10.517C43.807.914 37.728.226 31.596.226a79.22 79.22 0 0 0-18.02 2.062"/>
        <g>
            <mask id="c" fill="#fff">
                <use xlink:href="#a"/>
            </mask>
            <path fill="url(#b)" d="M-.087 61.88h63.944V-.197H-.087z" mask="url(#c)"/>
            <path fill="#E5602A" d="M28.582 46.294L46.82 60.501s1.911-.265 3.822-.795a18.15 18.15 0 0 0 4.369-1.697c2.02-1.167 4.641-3.287 5.733-6.52a59.967 59.967 0 0 0 2.512-11.981c.328-2.968.491-5.937.491-8.905.055-.583 0-2.757 0-2.757L49.55 16.767l-4.532 6.891-8.683 14.95s-3.712 3.286-3.93 3.34c-.22.052-3.823 4.346-3.823 4.346" mask="url(#c)"/>
            <path fill="#FFF" d="M26.07 32.617l-7.973 5.513 2.185 1.644zM39.011 23.606l-6.88 4.77 6.88-4.77zM15.913 17.032c-.983-.689-1.802-.265-1.747.901l.273 15.268c.11 1.112.546 2.173 1.256 2.969l.492.477.71.583 13.978-9.701-14.962-10.497zM39.011 23.606l9.72-6.733c-.109.054-.273.107-.382.212l-9.338 6.52z" mask="url(#c)"/>
            <path fill="#FFF" d="M32.131 28.376l-14.033 9.755 1.965 1.484 10.32 8.057a2.938 2.938 0 0 0 3.44 0l14.199-10.92a5.07 5.07 0 0 0 1.747-3.446l.273-15.266c0-1.008-.546-1.432-1.365-1.113l-9.666 6.678-6.88 4.771z" mask="url(#c)"/>
        </g>
    </g>
</svg>
