<?xml version="1.0" standalone="no"?><!DOCTYPE svg PUBLIC "-//W3C//DTD SVG 1.1//EN" "http://www.w3.org/Graphics/SVG/1.1/DTD/svg11.dtd"><svg t="1672221150010" class="icon" viewBox="0 0 1024 1024" version="1.1" xmlns="http://www.w3.org/2000/svg" p-id="1476" data-spm-anchor-id="a313x.7781069.0.i0" width="20" height="20" xmlns:xlink="http://www.w3.org/1999/xlink"><path d="M103.722667 421.802667H0V327.04h321.28v94.762667H217.6v275.2H103.722667v-275.2z m235.264-94.762667h311.893333v94.762667h-197.888v46.208h197.888v88.021333h-197.888v46.08h197.888v94.933333h-311.893333V327.04z m445.013333 275.242667h44.629333c70.997333 0 81.365333-57.685333 81.365334-92.416 0-23.253333-7.637333-88.021333-90.24-88.021334h-36.437334v180.48l0.682667-0.042666z m-113.92-275.242667h187.050667C980.48 327.04 1024 418.133333 1024 511.36c0 113.493333-60.117333 185.642667-189.184 185.642667h-164.736V326.954667v0.085333z" fill="#EC1015" p-id="1477"></path></svg>