<svg width="87" height="66" viewBox="0 0 87 66" fill="none" xmlns="http://www.w3.org/2000/svg">
<path d="M7.3537 56.8424C8.04087 57.4549 8.76022 58.0304 9.5087 58.5664C13.267 61.1651 17.5094 62.9818 21.9837 63.9084C27.1188 65.0031 32.3933 65.2892 37.6167 64.7564C39.957 64.5332 42.2822 64.1739 44.5807 63.6804C47.6759 63.0189 50.7176 62.1281 53.6807 61.0154C55.1847 60.452 56.6664 59.8344 58.1257 59.1624C61.5598 57.5861 64.8405 55.695 67.9257 53.5134C68.9717 52.7694 69.9917 51.992 70.9857 51.1814C71.4624 50.7914 71.929 50.3964 72.3857 49.9964C73.0964 49.3737 73.7894 48.7314 74.4647 48.0694L74.8447 47.6964C75.6307 46.9104 76.3884 46.0977 77.1177 45.2584C77.8284 44.4404 78.5077 43.5967 79.1557 42.7274C82.0418 38.968 84.0937 34.6368 85.1747 30.0224C86.1729 25.6604 85.8644 21.1011 84.2877 16.9134C83.8392 15.7769 83.2911 14.6823 82.6497 13.6424C81.7817 12.2471 80.764 10.9508 79.6147 9.77635C79.2147 9.36936 78.7727 9.02335 78.3467 8.64535C77.8877 8.23635 77.4097 7.86335 76.9247 7.49035C75.9219 6.72011 74.8681 6.01851 73.7707 5.39035C70.615 3.6214 67.2098 2.34022 63.6707 1.59035C58.9496 0.588785 54.1086 0.274873 49.2977 0.658354C46.6526 0.855704 44.0237 1.23021 41.4287 1.77935C38.2377 2.4528 35.1021 3.3664 32.0487 4.51235C30.6187 5.04835 29.2387 5.63135 27.8817 6.25035C23.5369 8.21365 19.4414 10.6874 15.6817 13.6194C14.8987 14.2334 14.1337 14.8794 13.3997 15.5194C12.9727 15.9004 12.5337 16.2814 12.1197 16.6734C10.9268 17.7831 9.79201 18.9537 8.7197 20.1804C7.9197 21.1034 7.1647 22.0364 6.4377 23.0224C3.71963 26.6193 1.75666 30.7286 0.666699 35.1034C-0.414794 39.4629 -0.17637 44.0456 1.3517 48.2694C1.4787 48.5984 1.6057 48.9234 1.7517 49.2424C2.17013 50.1904 2.65813 51.1063 3.2117 51.9824C3.77993 52.8796 4.41154 53.7351 5.1017 54.5424C5.2117 54.671 5.3227 54.798 5.4347 54.9234C6.03709 55.5992 6.67782 56.24 7.3537 56.8424Z" fill="#CF0000"/>
<path d="M12.4217 52.6274C12.2357 52.6274 12.1217 52.5854 12.0657 52.5004C11.9957 52.3904 12.0287 52.2004 12.1657 51.9204C12.3027 51.6404 30.0867 15.1994 31.5047 12.3144C31.5694 12.1452 31.6774 11.9961 31.8177 11.8817C31.9581 11.7673 32.126 11.6916 32.3047 11.6624C32.6047 11.6624 32.7927 11.9324 32.8317 12.4054C32.9937 14.3474 34.4197 33.3054 35.2557 44.4344C35.4087 46.4854 35.5217 47.9684 35.5297 48.0724C35.5857 48.7874 35.5147 48.9814 34.7297 49.1094C34.2807 49.1834 31.1947 49.6734 30.4657 49.7884C30.3818 49.8028 30.2968 49.8105 30.2117 49.8114C29.8117 49.8114 29.7847 49.5964 29.7807 49.2694C29.7727 48.6344 29.7347 45.8244 29.7127 44.1244L29.7027 43.3934V43.3454L21.8447 44.5634C21.8447 44.5764 19.0657 51.0584 18.9707 51.2904C18.8437 51.5904 18.6957 51.6644 18.3057 51.7274C17.1057 51.9194 13.1817 52.5394 12.7367 52.6054C12.6324 52.6203 12.5271 52.6277 12.4217 52.6274ZM29.6497 25.9914L23.9307 39.3594L29.7047 38.4594L29.6497 25.9914ZM41.7807 48.0584C40.5776 48.0879 39.3804 47.8813 38.2567 47.4504C37.4337 47.1104 37.3187 46.8564 37.5757 45.9434C37.7617 45.2894 38.7447 41.8924 38.7447 41.8724C38.8914 42.1347 39.0803 42.3712 39.3037 42.5724C39.8806 43.0957 40.59 43.4509 41.3547 43.5994C41.6957 43.6737 42.0437 43.7119 42.3927 43.7134C42.9714 43.7489 43.5486 43.6235 44.0605 43.3512C44.5723 43.0788 44.9988 42.6702 45.2927 42.1704C45.5726 41.5129 45.588 40.7729 45.3357 40.1044C44.8288 38.7896 43.9794 37.6343 42.8757 36.7584C41.6964 35.7849 40.7873 34.5245 40.2357 33.0984C39.7174 31.2318 39.9187 29.2386 40.7997 27.5134C41.4406 26.4167 42.348 25.4996 43.4377 24.847C44.5275 24.1944 45.7644 23.8275 47.0337 23.7804C47.3657 23.743 47.6996 23.7243 48.0337 23.7244C49.2368 23.7329 50.4291 23.9518 51.5567 24.3714C51.6504 24.3936 51.7378 24.4369 51.8123 24.4979C51.8868 24.559 51.9464 24.6361 51.9867 24.7236C52.027 24.8111 52.0468 24.9066 52.0447 25.0029C52.0427 25.0992 52.0187 25.1937 51.9747 25.2794C51.9097 25.4674 51.3037 27.1794 50.9427 28.2124V28.2274L50.6887 28.9644V28.9804C49.9038 28.3669 49.0031 27.9183 48.0407 27.6614H47.8227C47.4882 27.6412 47.1536 27.7008 46.8466 27.8352C46.5396 27.9696 46.2689 28.1749 46.0567 28.4344C45.7291 28.791 45.5151 29.2372 45.4423 29.716C45.3694 30.1948 45.441 30.6844 45.6477 31.1224C45.9477 31.6604 46.2477 32.0834 48.9257 34.5034C49.6339 35.11 50.2156 35.8502 50.6377 36.6817C51.0598 37.5132 51.314 38.4196 51.3857 39.3494C51.4887 40.771 51.1977 42.1934 50.5447 43.4604C49.9759 44.5026 49.2044 45.4206 48.2757 46.1604C47.3271 46.9415 46.2045 47.483 45.0027 47.7394C43.9429 47.9498 42.8652 48.0576 41.7847 48.0614L41.7807 48.0584ZM52.7807 46.2204C52.7351 46.227 52.6885 46.2232 52.6446 46.2093C52.6006 46.1955 52.5603 46.1719 52.5267 46.1404C52.4267 46.0234 52.4707 45.7594 52.5607 45.2674C52.6047 45.0214 53.6607 39.3334 54.8907 32.7494V32.7364C56.8527 22.1804 59.3007 9.03336 59.3607 8.69736C59.4947 7.93536 59.7257 7.76936 60.3077 7.68236C60.7417 7.61036 63.8227 7.28236 64.5077 7.27136H64.5497C64.8497 7.27136 65.0197 7.31936 65.1167 7.43536C65.2347 7.57636 65.2497 7.82336 65.1677 8.28836C65.0537 8.93036 60.5807 32.6124 60.5357 32.8514C60.5627 32.8044 61.8887 30.5844 63.2917 28.2354C64.8917 25.5484 66.5537 22.7704 66.6637 22.5824C66.7462 22.4081 66.8752 22.2599 67.0364 22.154C67.1977 22.0482 67.3849 21.9888 67.5777 21.9824L70.1507 21.7284L71.8747 21.5544C72.0017 21.5434 72.0817 21.5344 72.1507 21.5344C72.2147 21.5297 72.2787 21.5428 72.3357 21.5724C72.3673 21.5925 72.3932 21.6205 72.4107 21.6536C72.4283 21.6868 72.4369 21.7239 72.4357 21.7614C72.4328 21.8624 72.4012 21.9605 72.3447 22.0444C72.0907 22.4544 65.7527 32.7164 65.6937 32.8204L66.1617 34.1514C67.1427 36.9434 69.1837 42.7564 69.2927 43.0744C69.3637 43.2824 69.3727 43.4084 69.3207 43.4954C69.2687 43.5824 69.1327 43.6494 68.8697 43.6954C68.6067 43.7414 65.7637 44.1954 64.5817 44.3774C64.5021 44.3912 64.4215 44.3989 64.3407 44.4004C64.0557 44.4004 63.9607 44.2734 63.8407 43.9514C63.6857 43.5354 60.3337 34.1374 60.2987 34.0424L58.1927 44.9244C58.0997 45.4054 57.9227 45.4324 57.6297 45.4774L57.5807 45.4854C56.3387 45.6854 53.8487 46.0794 53.3207 46.1614C53.1405 46.1925 52.9584 46.2116 52.7757 46.2184L52.7807 46.2204Z" fill="white"/>
<path d="M83.0007 6.50936C82.5997 6.51184 82.2026 6.43078 81.8347 6.27136C81.1161 5.96274 80.5433 5.39 80.2347 4.67136C80.0778 4.30247 79.997 3.90572 79.997 3.50486C79.997 3.104 80.0778 2.70726 80.2347 2.33836C80.5433 1.61972 81.1161 1.04699 81.8347 0.738363C82.203 0.5813 82.5993 0.500336 82.9997 0.500336C83.4001 0.500336 83.7964 0.5813 84.1647 0.738363C84.8833 1.04699 85.4561 1.61972 85.7647 2.33836C85.9216 2.70743 86.0024 3.10434 86.0024 3.50536C86.0024 3.90639 85.9216 4.3033 85.7647 4.67236C85.4561 5.391 84.8833 5.96374 84.1647 6.27236C83.7973 6.43117 83.4009 6.51187 83.0007 6.50936ZM83.0007 1.03436C82.6714 1.03203 82.345 1.09702 82.0417 1.22536C81.5161 1.44685 81.0833 1.84335 80.8167 2.34761C80.5501 2.85187 80.4662 3.43283 80.5792 3.99191C80.6921 4.551 80.9951 5.05378 81.4365 5.41496C81.878 5.77614 82.4308 5.97347 83.0012 5.97347C83.5716 5.97347 84.1244 5.77614 84.5659 5.41496C85.0073 5.05378 85.3103 4.551 85.4232 3.99191C85.5362 3.43283 85.4523 2.85187 85.1857 2.34761C84.9192 1.84335 84.4863 1.44685 83.9607 1.22536C83.6575 1.09634 83.3312 1.03066 83.0017 1.03236L83.0007 1.03436ZM82.4757 5.20136H81.8477V1.76936H83.1697C83.4962 1.74349 83.8207 1.83852 84.0817 2.03636C84.1827 2.13534 84.2612 2.25488 84.312 2.38687C84.3627 2.51886 84.3844 2.66023 84.3757 2.80136C84.3849 2.92451 84.3689 3.04823 84.3287 3.16498C84.2885 3.28173 84.2248 3.38904 84.1417 3.48036C83.9812 3.63344 83.7736 3.72757 83.5527 3.74736L84.4467 5.20036H83.7857L82.9317 3.79336H82.4767V5.20136H82.4757ZM82.4757 2.30136V3.26236H82.9357C83.0312 3.26455 83.1267 3.26054 83.2217 3.25036C83.312 3.24424 83.4007 3.22399 83.4847 3.19036C83.5604 3.16042 83.6265 3.11026 83.6757 3.04536C83.7286 2.96675 83.7542 2.87295 83.7487 2.77836C83.7555 2.68299 83.7305 2.58806 83.6777 2.50836C83.6285 2.4435 83.5624 2.39335 83.4867 2.36336C83.4027 2.33025 83.3139 2.31132 83.2237 2.30736C83.1367 2.30136 83.0397 2.29936 82.9377 2.29936L82.4757 2.30136Z" fill="#BFBFBF"/>
</svg>
