<?xml version="1.0" encoding="UTF-8"?><!DOCTYPE svg PUBLIC "-//W3C//DTD SVG 1.1//EN" "http://www.w3.org/Graphics/SVG/1.1/DTD/svg11.dtd"><svg width="128" height="128" viewBox="0 0 128 128" version="1.1" xmlns="http://www.w3.org/2000/svg" xmlns:xlink="http://www.w3.org/1999/xlink" xml:space="preserve"><path d="M102.4,128c14.129,-0 25.6,-11.471 25.6,-25.6l0,-76.8c0,-14.129 -11.471,-25.6 -25.6,-25.6l-76.8,-0c-14.129,-0 -25.6,11.471 -25.6,25.6l-0,76.8c-0,14.129 11.471,25.6 25.6,25.6l76.8,0Zm-20.342,-64.311l-13.204,-13.204c-6.301,-6.541 2.509,-14.826 8.544,-9.165l24.077,24.078c4.102,4.223 0.586,10.683 -3.883,10.714l-66.796,0.005c-8.105,0.041 -8.215,-12.471 -0,-12.428l51.262,0Z" fill="black"/></svg>